<svg width="443" height="346" viewBox="0 0 443 346" fill="none" xmlns="http://www.w3.org/2000/svg">
<g clip-path="url(#clip0_2_1691)">
<path opacity="0.1" d="M434.432 92.4142C430.046 82.2351 424.119 72.7918 416.86 64.4159L173.069 62.0141L373.791 33.8218C360.825 28.6579 347.02 25.9189 333.064 25.741C313.863 10.3932 290.22 1.65372 265.653 0.822406C241.086 -0.00890362 216.907 7.11242 196.712 21.1271C180.573 12.8305 162.683 8.519 144.536 8.55312C90.3679 8.55312 45.2292 46.0681 35.1045 95.8207L434.432 92.4142Z" fill="#2244A3"/>
<path opacity="0.1" d="M443.004 134.138C443.016 120.646 440.436 107.278 435.406 94.7598L12.8844 139.109C8.52735 146.99 5.19448 155.394 2.96665 164.119L133.808 183.627L-0.0216064 197.857C4.00586 254.177 52.2881 298.651 111.268 298.651C140.957 298.651 167.938 287.38 187.924 269.002C207.979 287.729 235.214 299.242 265.222 299.242C309.749 299.242 348.178 273.892 366.073 237.235C401.979 225.842 429.87 197.227 439.417 161.433L273.971 135.75H443.004C442.996 135.211 443.004 134.677 443.004 134.138Z" fill="#2244A3"/>
<path d="M123.618 345.243C177.678 345.243 221.502 338.06 221.502 329.198C221.502 320.337 177.678 313.153 123.618 313.153C69.5585 313.153 25.7344 320.337 25.7344 329.198C25.7344 338.06 69.5585 345.243 123.618 345.243Z" fill="#2244A3"/>
<path d="M224.853 225.838C220.45 226.942 215.931 224.794 215.931 224.794C215.931 224.794 212.076 220.331 208.825 219.728C205.573 219.124 204.314 224.406 202.382 225.765C201.046 226.718 191.404 226.036 185.565 225.527L184.561 225.437C184.461 225.364 184.362 225.286 184.254 225.217C184.254 225.217 178.649 223.492 177.48 221.966C176.312 220.439 168.503 217.615 166.079 217.779C163.656 217.943 156.493 218.331 156.493 218.331C156.493 218.331 153.686 215.135 152.419 215.467C151.151 215.799 146.744 215.442 146.744 215.442C146.744 215.442 145.532 212.328 144.32 207.865C143.756 205.783 141.876 204.321 140.034 203.359C141.69 197.753 138.741 181.764 129.582 178.638C127.585 177.957 126.563 175.693 124.864 174.451C123.342 173.343 120.85 170.73 122.07 166.008C123.795 159.398 128.073 148.988 128.073 148.988L131.259 142.624C130.962 143.075 130.624 143.497 130.25 143.887C130.681 143.335 131.113 142.792 131.483 142.335C134.663 143.941 138.132 144.897 141.686 145.146C145.282 146.599 148.874 147.88 150.271 147.833C153.466 147.721 161.616 151.8 161.616 151.8C161.616 151.8 181.223 157.405 185.298 157.858C189.373 158.311 191.356 153.011 191.356 153.011C191.356 153.011 193.474 142.563 189.714 139.795C185.953 137.027 183.767 149.713 183.767 149.713L158.115 140.468L156.532 139.635C157.761 138.335 158.736 136.817 159.408 135.16C159.805 134.172 160.167 133.042 161.112 132.551C161.366 132.424 161.64 132.344 161.922 132.314C162.156 132.298 162.391 132.298 162.625 132.314C167.075 132.585 170.9 136.087 175.359 136.104C175.523 136.104 175.686 136.104 175.85 136.104C176.7 136.101 177.53 135.846 178.235 135.371C178.633 135.047 178.96 134.645 179.195 134.189C179.431 133.734 179.571 133.235 179.606 132.723C179.541 132.862 179.469 132.997 179.39 133.129C179.507 132.494 179.507 131.844 179.39 131.21C179.114 129.696 178.325 128.338 177.618 126.971C177.418 126.652 177.305 126.286 177.29 125.91C177.311 125.714 177.37 125.524 177.466 125.351C177.561 125.178 177.691 125.027 177.847 124.905C177.853 124.946 177.862 124.986 177.873 125.026C178.209 124.71 178.582 124.436 178.985 124.211C180.075 123.496 181.006 122.565 181.721 121.476C182.436 120.386 182.92 119.161 183.142 117.877C183.034 118.196 182.905 118.511 182.767 118.821C183.43 116.632 183.269 114.276 182.314 112.198C182.067 111.606 181.672 111.088 181.167 110.693C179.559 109.563 177.398 110.766 175.436 110.896C173.711 111.008 172.038 110.236 170.482 109.455C167.826 108.123 165.182 106.683 162.97 104.712C160.456 102.457 158.589 99.5807 156.321 97.084C154.053 94.5873 151.142 92.3623 147.766 92.1122C141.63 91.6378 135.843 97.7179 130.009 95.7343C127.163 94.7727 125.291 92.1423 123.312 89.8828C121.333 87.6233 118.612 85.4543 115.645 85.9416C113.584 86.2866 111.799 87.8863 109.712 87.826C108.621 87.7915 107.608 87.3042 106.573 86.9636C104.067 86.1227 100.635 86.5324 99.7423 89.0247C99.567 89.5324 99.505 90.0723 99.5609 90.6065C99.6168 91.1407 99.7891 91.6561 100.066 92.1165C99.9338 92.3016 99.8156 92.4962 99.7121 92.6986C99.4978 93.0936 99.4233 93.5495 99.5008 93.9922C97.7275 95.584 96.4134 97.6223 95.6957 99.8946C94.9779 102.167 94.8827 104.59 95.4199 106.912C95.9572 109.234 97.1073 111.369 98.7503 113.095C100.393 114.821 102.469 116.074 104.762 116.725C104.843 117.04 104.925 117.355 105.003 117.674C105.84 121.197 106.275 125.164 105.038 127.838C104.96 128.001 104.878 128.161 104.787 128.316L104.68 128.364L104.727 128.411L104.68 128.364L104.524 128.204L103.584 127.221C103.533 126.195 102.955 123.444 98.936 118.338C93.6451 111.616 92.6533 100.491 92.6533 100.491C92.6533 100.491 91.3338 94.7641 92.6533 93.1126C93.9728 91.461 96.1805 73.2771 96.1805 73.2771L99.8286 63.0402C99.8286 63.0402 117.564 44.9727 110.178 42.7735C105.163 41.2772 99.1817 48.9872 95.8615 54.0841C94.2306 56.5868 93.176 59.4205 92.774 62.3805L82.7485 89.8095C82.7485 89.8095 81.7567 93.1169 82.7485 98.8433C83.7402 104.57 85.9437 114.707 85.9437 114.707L91.5494 128.916C91.5494 128.916 93.6149 135.052 93.4338 137.717C93.188 137.876 92.3256 139.584 91.5796 141.136L91.0319 141.998L90.9931 142.348C90.6266 143.128 90.3722 143.689 90.3722 143.689C90.3722 143.689 87.2503 152.904 89.8591 158.557C92.4679 164.21 92.5714 166.832 92.5714 166.832L94.5161 175.206L95.3268 182.536L102.321 199.832L108.763 209.029C108.763 209.029 108.159 215.804 106.836 216.739C105.512 217.675 106.12 222.522 106.12 222.522L105.292 235.243C105.292 235.243 102.705 239.046 102.541 245.212C102.377 251.378 101.437 253.146 101.437 253.146C101.437 253.146 101.006 258.321 102.209 260.692C103.412 263.064 100.281 265.539 100.281 265.539L102.968 274.763L101.92 286.44C101.92 286.44 102.407 286.573 103.214 286.776L103.05 287.613L98.6686 309.733C98.6686 309.733 96.3013 315.796 96.1935 317.224L88.5353 331.052C88.5353 331.052 82.1448 337.387 85.1762 337.99C88.2075 338.594 97.0214 333.144 97.0214 333.144C97.0214 333.144 104.292 325.322 107.155 324.61C110.018 323.899 113.192 321.85 112.277 318.879C111.363 315.908 109.259 311.389 111.286 306.594C112.579 303.576 115.33 295.383 117.219 289.665C117.323 289.35 117.422 289.048 117.521 288.755C118.021 288.71 118.514 288.616 118.996 288.475C123.623 287.043 126.046 288.044 126.046 288.044L134.308 254.612L136.123 237.838L147.692 247.489C149.982 249.398 152.823 250.521 155.799 250.693C160.357 250.96 167.468 251.62 172.616 253.211L174.772 244.233C174.772 244.233 180.938 244.457 182.262 242.362C182.801 241.499 183.332 240.766 183.767 240.206L184.768 240.05L212.059 235.829C217.125 235.829 224.068 232.41 224.068 232.41L228.311 231.586C228.311 231.586 234.641 230.318 235.21 229.27C235.779 228.223 229.264 224.743 224.853 225.838Z" fill="url(#paint0_linear_2_1691)"/>
<path d="M101.014 91.1851C101.877 88.7531 105.249 88.3434 107.702 89.167C108.711 89.5034 109.708 89.982 110.773 90.0295C112.817 90.0898 114.563 88.5202 116.581 88.1882C119.483 87.7053 122.144 89.8268 124.08 92.0389C126.016 94.251 127.853 96.8253 130.638 97.7696C136.343 99.6928 142.009 93.7594 148.012 94.2208C151.306 94.4752 154.152 96.6442 156.373 99.0891C158.593 101.534 160.422 104.346 162.88 106.553C165.036 108.494 167.623 109.904 170.232 111.21C171.754 111.974 173.38 112.728 175.078 112.616C177.002 112.491 179.115 111.322 180.684 112.418C181.178 112.805 181.564 113.313 181.805 113.892C183.737 117.911 182.18 123.263 178.399 125.626C177.739 126.035 176.937 126.488 176.898 127.277C176.91 127.646 177.021 128.004 177.217 128.316C177.907 129.653 178.683 130.985 178.942 132.464C179.201 133.944 178.852 135.647 177.648 136.544C176.863 137.066 175.93 137.322 174.988 137.272C170.624 137.251 166.881 133.823 162.526 133.56C161.969 133.496 161.405 133.582 160.892 133.81C159.969 134.288 159.598 135.397 159.223 136.363C157.205 141.403 152.194 144.909 146.847 145.871C141.5 146.832 135.916 145.478 131.13 142.908C130.78 142.741 130.458 142.52 130.177 142.253C129.777 141.768 129.495 141.196 129.353 140.584C127.887 135.949 125.904 131.098 121.842 128.42C119.207 126.695 115.632 125.725 114.438 122.814C113.688 120.973 114.158 118.881 113.968 116.898C113.781 115.197 113.118 113.584 112.056 112.243C110.993 110.902 109.574 109.888 107.961 109.317C107.254 109.08 106.478 108.912 105.96 108.373C105.54 107.844 105.272 107.21 105.184 106.54C104.542 103.621 104.115 100.538 103.218 97.6877C102.532 95.454 100.096 93.7421 101.014 91.1851Z" fill="#663D5B"/>
<g opacity="0.1">
<path opacity="0.1" d="M178.153 135.203C177.365 135.718 176.433 135.967 175.492 135.914C171.133 135.914 167.39 132.465 163.035 132.206C162.478 132.141 161.914 132.225 161.401 132.452C160.474 132.93 160.107 134.038 159.732 135.004C157.714 140.049 152.699 143.555 147.352 144.517C142.005 145.478 136.421 144.124 131.639 141.554C131.289 141.387 130.968 141.165 130.686 140.899C130.287 140.413 130.005 139.842 129.862 139.23C128.396 134.59 126.413 129.744 122.351 127.062C119.712 125.315 116.137 124.371 114.947 121.456C114.192 119.61 114.662 117.519 114.477 115.54C114.291 113.838 113.628 112.224 112.564 110.883C111.501 109.542 110.08 108.528 108.466 107.959C107.759 107.722 106.982 107.549 106.465 107.015C106.044 106.485 105.777 105.849 105.693 105.178C105.046 102.263 104.624 99.1754 103.727 96.3294C103.123 94.4235 101.221 92.8798 101.316 90.8445C101.26 90.952 101.212 91.0628 101.17 91.1765C100.247 93.7336 102.688 95.4455 103.382 97.6446C104.279 100.491 104.701 103.578 105.348 106.493C105.432 107.164 105.699 107.8 106.12 108.33C106.637 108.865 107.414 109.037 108.121 109.274C109.736 109.844 111.157 110.858 112.22 112.2C113.284 113.542 113.946 115.157 114.132 116.859C114.317 118.838 113.847 120.93 114.602 122.775C115.792 125.703 119.367 126.656 122.006 128.381C126.059 131.067 128.042 135.91 129.517 140.55C129.66 141.162 129.942 141.733 130.341 142.218C130.623 142.485 130.944 142.706 131.294 142.874C136.076 145.461 141.643 146.794 147.007 145.836C152.371 144.879 157.356 141.369 159.387 136.324C159.775 135.358 160.133 134.25 161.056 133.771C161.569 133.545 162.133 133.46 162.69 133.525C167.045 133.788 170.788 137.216 175.147 137.234C176.089 137.283 177.022 137.029 177.808 136.509C178.198 136.193 178.518 135.801 178.75 135.356C178.981 134.91 179.119 134.422 179.153 133.922C178.936 134.428 178.591 134.869 178.153 135.203Z" fill="black"/>
<path opacity="0.1" d="M178.903 124.272C178.243 124.703 177.437 125.134 177.398 125.923C177.394 126.082 177.419 126.239 177.472 126.389C177.799 126.079 178.164 125.811 178.558 125.591C179.625 124.893 180.536 123.982 181.236 122.916C181.935 121.85 182.408 120.651 182.624 119.395C181.987 121.403 180.672 123.127 178.903 124.272Z" fill="black"/>
</g>
<path d="M112.299 304.085C110.303 308.776 112.355 313.192 113.269 316.107C114.183 319.022 111.062 321.01 108.259 321.713C105.456 322.415 98.3409 330.065 98.3409 330.065C98.3409 330.065 89.7168 335.399 86.7501 334.808C83.7834 334.218 90.0359 328.017 90.0359 328.017L97.5303 314.486C97.6381 313.088 99.9537 307.155 99.9537 307.155L104.24 285.508L104.809 282.632L120.005 281.714C120.005 281.714 119.207 284.18 118.107 287.514C116.258 293.119 113.55 301.157 112.299 304.085Z" fill="#CC818C"/>
<path d="M233.576 228.421C233.037 229.447 226.84 230.685 226.84 230.685L222.688 231.491C222.688 231.491 215.896 234.837 210.938 234.837L184.229 238.973L180.645 239.529V224.376C180.645 224.376 182.448 224.566 185.001 224.807C190.705 225.308 200.144 225.972 201.451 225.04C203.34 223.695 204.577 218.52 207.755 219.116C210.933 219.711 214.711 224.074 214.711 224.074C214.711 224.074 219.131 226.174 223.443 225.096C227.755 224.018 234.115 227.395 233.576 228.421Z" fill="#CC818C"/>
<path opacity="0.1" d="M185.173 237.8C185.173 237.8 184.789 238.231 184.229 238.968L180.645 239.525V224.376C180.645 224.376 182.448 224.566 185.001 224.807C189.287 228.192 185.173 237.8 185.173 237.8Z" fill="black"/>
<path d="M133.592 234.298L147.938 246.269C150.179 248.136 152.96 249.235 155.873 249.403C160.331 249.666 167.291 250.309 172.345 251.87L174.449 243.082C174.449 243.082 180.486 243.298 181.779 241.249C182.539 240.04 183.385 238.887 184.311 237.8C184.311 237.8 188.679 227.615 183.72 224.488C183.72 224.488 178.222 222.815 177.088 221.306C175.954 219.797 168.304 217.05 165.933 217.21C163.561 217.369 156.554 217.749 156.554 217.749C156.554 217.749 153.803 214.622 152.565 214.946C151.328 215.269 147.011 214.946 147.011 214.946C147.011 214.946 145.825 211.897 144.64 207.529C143.454 203.161 136.395 201.6 136.395 201.6L133.592 234.298Z" fill="#EBB70C"/>
<path opacity="0.1" d="M133.592 234.298L147.938 246.269C150.179 248.136 152.96 249.235 155.873 249.403C160.331 249.666 167.291 250.309 172.345 251.87L174.449 243.082C174.449 243.082 180.486 243.298 181.779 241.249C182.539 240.04 183.385 238.887 184.311 237.8C184.311 237.8 188.679 227.615 183.72 224.488C183.72 224.488 178.222 222.815 177.088 221.306C175.954 219.797 168.304 217.05 165.933 217.21C163.561 217.369 156.554 217.749 156.554 217.749C156.554 217.749 153.803 214.622 152.565 214.946C151.328 215.269 147.011 214.946 147.011 214.946C147.011 214.946 145.825 211.897 144.64 207.529C143.454 203.161 136.395 201.6 136.395 201.6L133.592 234.298Z" fill="black"/>
<path d="M127.176 126.98L125.589 127.277H125.49L125.257 127.32L122.54 127.825L121.704 128.817L121.669 128.851L118.983 132.033L116.719 134.254L116.698 134.28L114.783 136.143L111.545 139.364L111.001 140.705L109.82 143.676L109.514 144.431L106.28 147.88L104.214 152.3L99.3846 155.103L94.1885 152.408L91.8169 148.958L92.3559 144.017L92.4637 143.029L94.0462 140.489L95.4821 138.178L98.285 134.189L103.675 130.524L104.641 130.27L105.723 129.985C105.806 129.867 105.882 129.745 105.952 129.619C106.043 129.467 106.125 129.31 106.198 129.149C107.409 126.535 106.982 122.65 106.163 119.205C105.535 116.628 104.703 114.104 103.675 111.659L117.905 109.611C117.905 109.611 117.767 112.37 117.767 116.674C117.767 117.752 117.767 118.92 117.797 120.171C117.866 124.052 121.471 125.733 124.192 126.449C124.893 126.636 125.604 126.78 126.322 126.88C126.848 126.962 127.176 126.98 127.176 126.98Z" fill="#CC818C"/>
<path d="M104.753 129.015C104.753 129.015 105.4 126.428 100.225 119.852C95.0508 113.276 94.0806 102.388 94.0806 102.388C94.0806 102.388 92.787 96.7823 94.0806 95.1653C95.3742 93.5482 97.5303 75.761 97.5303 75.761L101.088 65.7354C101.088 65.7354 118.444 48.056 111.221 45.8999C106.314 44.4338 100.441 51.9842 97.2112 56.969C95.6159 59.4185 94.5849 62.1919 94.1927 65.0886L84.3785 91.9312C84.3785 91.9312 83.4083 95.1653 84.3785 100.771C85.3487 106.377 87.5047 116.294 87.5047 116.294L93.0026 130.214C93.0026 130.214 95.896 138.881 94.3954 139.937L97.7459 134.983L104.753 129.015Z" fill="#CC818C"/>
<path d="M190.671 153.822C190.671 153.822 188.73 158.997 184.742 158.566C180.753 158.134 161.564 152.636 161.564 152.636C161.564 152.636 153.587 148.648 150.461 148.756C147.335 148.863 132.997 142.18 132.997 142.18C132.997 142.18 131.988 143.508 130.863 144.905C129.638 146.436 128.275 148.053 127.93 148.109C127.284 148.217 117.258 149.618 117.258 149.618L110.466 146.492L109.82 143.676L109.513 142.382L111.018 140.705L112.998 138.502L116.71 134.267L116.732 134.241L121.686 128.855L121.721 128.821L124.895 127.527L125.507 127.277H125.606C125.986 127.213 127.443 127.079 129.396 128.183C130.757 128.953 132.267 129.421 133.825 129.554C136.925 129.775 139.861 131.033 142.16 133.124L158.115 141.52L183.233 150.575C183.233 150.575 185.389 138.178 189.054 140.873C192.719 143.568 190.671 153.822 190.671 153.822Z" fill="#CC818C"/>
<path opacity="0.1" d="M130.863 144.905C129.638 146.436 128.275 148.053 127.93 148.109C127.284 148.217 117.258 149.618 117.258 149.618L110.467 146.492L109.82 143.676L109.514 144.431L106.28 147.88L104.214 152.3L99.3846 155.103L94.1885 152.408L91.8169 148.958L92.3559 144.017C92.6276 143.43 93.3692 141.835 94.0462 140.489C94.3661 139.748 94.7682 139.045 95.245 138.394C95.6762 138.109 96.129 135.052 96.129 135.052C98.0866 129.407 104.645 128.541 104.645 128.541L105.693 129.524L106.15 129.998C105.965 129.968 106.185 129.567 105.948 129.632C105.568 129.739 105.4 130.313 104.913 130.628C102.261 132.353 98.1168 136.376 96.4782 138.286C96.0815 138.747 95.6719 139.2 95.2536 139.64C92.8863 142.145 93.3218 145.466 93.3218 145.466C92.731 148.053 97.9573 149.993 97.9573 149.993C99.4147 147.57 109.276 140.886 109.276 140.886L115.917 133.448C117.952 129.903 121.954 127.562 124.188 126.467C125.175 125.984 125.822 125.742 125.822 125.742L128.306 126.803C127.65 126.627 126.956 126.657 126.318 126.889C125.951 127.003 125.595 127.147 125.253 127.32C125.123 127.385 124.994 127.454 124.873 127.527C124.194 127.922 123.556 128.383 122.967 128.903L117.387 134.996C113.123 139.649 116.335 147.173 122.644 147.281H122.7C126.555 148.169 129.319 146.384 130.863 144.905Z" fill="black"/>
<path opacity="0.1" d="M120.005 281.727C120.005 281.727 119.207 284.193 118.107 287.526C113.89 287.841 106.926 286.211 104.24 285.521L104.809 282.645L120.005 281.727Z" fill="black"/>
<path d="M106.154 129.998L104.775 128.584C104.775 128.584 99.7941 129.265 96.7024 134.586C96.7024 134.586 95.2578 138.575 94.8137 138.859C94.3695 139.144 91.8168 144.719 91.8168 144.719C91.8168 144.719 88.7638 153.736 91.3123 159.273C93.8607 164.809 93.9728 167.358 93.9728 167.358L95.8788 175.551L96.6679 182.735L103.515 199.659L109.82 208.641C109.82 208.641 109.229 215.269 107.935 216.188C106.642 217.106 107.232 221.845 107.232 221.845L106.426 234.298C106.426 234.298 103.891 238.015 103.731 244.052C103.571 250.089 102.653 251.814 102.653 251.814C102.653 251.814 102.222 256.88 103.408 259.2C104.593 261.52 101.519 263.944 101.519 263.944L104.162 272.943L103.136 284.37C103.136 284.37 115.318 287.768 119.845 286.366C124.373 284.965 126.745 285.935 126.745 285.935L134.83 253.202L137.632 227.494C137.632 227.494 137.796 209.275 140.22 203.721C142.298 198.978 139.573 182.079 130.211 178.888C128.258 178.224 127.266 176.008 125.598 174.792C124.106 173.709 121.669 171.152 122.864 166.53C124.537 160.062 128.741 149.877 128.741 149.877L131.854 143.676C131.854 143.676 128.469 149.152 122.273 147.751H122.217C115.908 147.639 112.696 140.114 116.96 135.466L122.54 129.368C122.54 129.368 125.615 126.535 127.879 127.251L125.399 126.19C125.399 126.19 118.418 128.778 115.481 133.896L108.841 141.334C108.841 141.334 98.9878 147.988 97.5303 150.429C97.5303 150.429 92.3041 148.488 92.8948 145.901C92.8948 145.901 92.4636 142.576 94.8266 140.071C95.2578 139.64 95.6545 139.183 96.0512 138.721C98.1771 136.238 104.054 129.649 106.154 129.998Z" fill="#EBB70C"/>
<path opacity="0.1" d="M106.965 174.412C106.965 174.412 105.4 185.788 106.586 188.103L106.965 174.412Z" fill="black"/>
<path opacity="0.1" d="M107.987 178.832L109.66 185.356C109.66 185.356 110.251 181.368 107.987 178.832Z" fill="black"/>
<path opacity="0.1" d="M98.0693 177.31C98.0693 177.31 101.411 193.912 105.076 198.926L98.0693 177.31Z" fill="black"/>
<path opacity="0.1" d="M121.626 197.322C121.626 197.322 115.913 202.712 113.701 202.32C113.701 202.32 122.488 202.7 125.235 198.064C125.235 198.077 123.459 196.783 121.626 197.322Z" fill="black"/>
<path opacity="0.1" d="M129.547 196.891C129.547 196.891 122.217 202.225 120.764 202.712C120.764 202.712 128.685 200.449 129.547 196.891Z" fill="black"/>
<path opacity="0.1" d="M104.753 157.272C104.753 157.272 101.088 161.964 99.2551 161.424C99.2551 161.424 103.731 161.584 104.753 157.272Z" fill="black"/>
<path opacity="0.1" d="M108.906 163.309C108.906 163.309 116.883 152.477 120.656 152.908C120.656 152.908 111.601 160.778 108.906 163.309Z" fill="black"/>
<path opacity="0.1" d="M119.953 159.367C119.953 159.367 114.886 161.907 115.425 162.649C115.964 163.391 119.953 159.367 119.953 159.367Z" fill="black"/>
<path opacity="0.1" d="M123.618 242.543C123.618 242.543 106.693 252.409 105.133 252.892C105.133 252.892 108.043 255.104 110.79 254.026C113.537 252.948 123.618 242.543 123.618 242.543Z" fill="black"/>
<path opacity="0.1" d="M109.445 263.081C109.445 263.081 102.653 262.378 102.92 264.59C103.188 266.803 109.445 263.081 109.445 263.081Z" fill="black"/>
<path opacity="0.1" d="M117.905 109.611C117.905 109.611 117.767 112.37 117.767 116.674C116.17 117.982 114.286 118.894 112.269 119.333C110.252 119.772 108.159 119.727 106.163 119.201C105.535 116.623 104.703 114.1 103.675 111.655L117.905 109.611Z" fill="black"/>
<path d="M109.496 118.791C116.7 118.791 122.54 112.951 122.54 105.747C122.54 98.5429 116.7 92.7029 109.496 92.7029C102.292 92.7029 96.4523 98.5429 96.4523 105.747C96.4523 112.951 102.292 118.791 109.496 118.791Z" fill="#CC818C"/>
<path opacity="0.1" d="M112.916 113.707C113.282 119.041 114.403 125.143 119.035 127.825C122.381 129.761 126.598 129.252 130.302 128.148C134.006 127.044 137.632 125.397 141.487 125.212C144.45 125.069 147.378 125.798 150.332 125.984C153.285 126.169 156.519 125.708 158.628 123.629C161.646 120.671 161.094 115.294 158.236 112.185C155.377 109.076 150.905 107.946 146.671 108.063C141.496 108.205 135.718 109.788 131.626 106.648C128.879 104.535 127.84 100.87 125.529 98.2872C121.669 93.9752 104.602 87.7485 100.989 94.7772C99.2939 98.0673 106.995 100.417 108.78 102.798C111.601 106.553 112.579 108.783 112.916 113.707Z" fill="black"/>
<path d="M113.317 113.246C113.688 118.584 114.804 124.686 119.436 127.363C122.782 129.3 126.999 128.791 130.703 127.691C134.407 126.592 138.034 124.94 141.893 124.755C144.851 124.612 147.779 125.337 150.737 125.526C153.695 125.716 156.92 125.25 159.029 123.172C162.047 120.21 161.495 114.837 158.637 111.728C155.778 108.619 151.306 107.489 147.076 107.606C141.901 107.743 136.119 109.33 132.027 106.187C129.28 104.074 128.241 100.413 125.93 97.8257C122.07 93.5137 105.003 87.2914 101.39 94.32C99.695 97.6058 107.396 99.9559 109.186 102.34C112.002 106.092 112.98 108.317 113.317 113.246Z" fill="#663D5B"/>
<path opacity="0.1" d="M97.6294 149.989C97.8295 148.287 98.3904 146.647 99.2745 145.18C100.159 143.712 101.346 142.449 102.756 141.477" fill="black"/>
<path opacity="0.1" d="M146.537 217.533C146.497 217.956 146.394 218.37 146.231 218.762C145.666 220.455 144.986 222.107 144.195 223.708C145.347 223.609 146.295 222.703 146.783 221.66C147.208 220.586 147.443 219.446 147.477 218.292C147.519 217.931 147.529 217.568 147.507 217.205C147.477 216.869 147.261 215.584 146.705 215.812C146.256 216.002 146.545 217.192 146.537 217.533Z" fill="black"/>
<path opacity="0.1" d="M159.805 121.822C157.692 123.901 154.467 124.367 151.509 124.177C148.551 123.987 145.61 123.263 142.665 123.409C138.784 123.595 135.188 125.242 131.479 126.346C127.771 127.45 123.558 127.959 120.207 126.022C115.581 123.34 114.459 117.239 114.093 111.905C113.757 106.98 112.773 104.751 109.958 100.995C108.254 98.7227 101.183 96.4804 101.993 93.4275C101.759 93.7028 101.556 94.0037 101.39 94.3244C99.695 97.6102 107.396 99.9603 109.186 102.345C112.002 106.096 112.98 108.33 113.317 113.25C113.688 118.588 114.804 124.69 119.436 127.368C122.782 129.304 126.999 128.795 130.703 127.695C134.407 126.596 138.034 124.944 141.893 124.759C144.851 124.617 147.779 125.341 150.737 125.531C153.695 125.721 156.92 125.255 159.029 123.176C159.628 122.582 160.104 121.876 160.43 121.098C160.241 121.355 160.032 121.597 159.805 121.822Z" fill="black"/>
<path d="M96.6938 161.032L95.1113 164.482L100.143 163.477L96.6938 161.032Z" fill="#CC818C"/>
<path opacity="0.1" d="M96.6938 161.032L95.3915 164.482H95.1113L96.6938 161.032Z" fill="black"/>
<path opacity="0.1" d="M221.218 317.607C230.982 317.607 238.897 316.52 238.897 315.18C238.897 313.839 230.982 312.752 221.218 312.752C211.453 312.752 203.538 313.839 203.538 315.18C203.538 316.52 211.453 317.607 221.218 317.607Z" fill="#2244A3"/>
<path opacity="0.1" d="M288.939 324.472C298.703 324.472 306.618 323.385 306.618 322.044C306.618 320.704 298.703 319.617 288.939 319.617C279.175 319.617 271.259 320.704 271.259 322.044C271.259 323.385 279.175 324.472 288.939 324.472Z" fill="#2244A3"/>
<path opacity="0.1" d="M368.707 315.18C378.472 315.18 386.387 314.093 386.387 312.752C386.387 311.411 378.472 310.324 368.707 310.324C358.943 310.324 351.028 311.411 351.028 312.752C351.028 314.093 358.943 315.18 368.707 315.18Z" fill="#2244A3"/>
<path opacity="0.1" d="M261.833 343.32C268.773 343.32 274.398 342.548 274.398 341.595C274.398 340.643 268.773 339.871 261.833 339.871C254.893 339.871 249.268 340.643 249.268 341.595C249.268 342.548 254.893 343.32 261.833 343.32Z" fill="#2244A3"/>
<path opacity="0.1" d="M332.12 341.595C339.059 341.595 344.685 340.823 344.685 339.871C344.685 338.918 339.059 338.146 332.12 338.146C325.18 338.146 319.554 338.918 319.554 339.871C319.554 340.823 325.18 341.595 332.12 341.595Z" fill="#2244A3"/>
<path d="M289.322 321.501C289.322 321.501 264.528 240.219 293.203 207.663C314.651 183.308 339.002 186.223 349.907 189.233C352.729 189.984 355.353 191.34 357.599 193.207C359.845 195.074 361.657 197.406 362.912 200.043C366.724 208.271 366.038 221.604 339.127 237.2C294.066 263.288 291.263 299.078 291.263 299.078L289.322 321.501Z" fill="#2244A3"/>
<path d="M346.026 200.763C346.026 200.763 272.936 223.617 289.322 321.501" stroke="#565987" stroke-width="0.431207" stroke-miterlimit="10"/>
<path d="M303.337 208.956C303.337 208.956 313.397 215.739 310.201 225.929" stroke="#565987" stroke-width="0.431207" stroke-miterlimit="10"/>
<path d="M338.696 214.993C338.696 214.993 332.542 208.732 325.052 212.186" stroke="#565987" stroke-width="0.431207" stroke-miterlimit="10"/>
<path d="M309.805 246.471C309.805 246.471 298.999 240.986 296.204 247.856" stroke="#565987" stroke-width="0.431207" stroke-miterlimit="10"/>
<path d="M283.07 257.898C283.07 257.898 291.181 257.252 291.327 261.132" stroke="#565987" stroke-width="0.431207" stroke-miterlimit="10"/>
<path d="M288.339 322.148C288.339 322.148 317.377 263.073 325.354 264.366C329.144 264.979 330.891 268.709 331.68 272.452C332.654 277.297 332.093 282.325 330.076 286.837C325.958 296.284 314.888 314.235 288.339 322.148Z" fill="#2244A3"/>
<path d="M325.117 275.578C325.117 275.578 294.639 319.776 288.749 321.717" stroke="#565987" stroke-width="0.431207" stroke-miterlimit="10"/>
<path d="M327.92 282.477H320.805" stroke="#565987" stroke-width="0.431207" stroke-miterlimit="10"/>
<path d="M319.399 298.647L308.248 299.126" stroke="#565987" stroke-width="0.431207" stroke-miterlimit="10"/>
<path d="M312.612 285.711L313.824 291.519" stroke="#565987" stroke-width="0.431207" stroke-miterlimit="10"/>
<path d="M300.754 303.391L300.969 308.669" stroke="#565987" stroke-width="0.431207" stroke-miterlimit="10"/>
<path d="M289.202 322.148C289.202 322.148 260.164 263.073 252.187 264.366C248.396 264.979 246.65 268.709 245.861 272.452C244.873 277.292 245.419 282.32 247.422 286.837C251.54 296.284 262.609 314.235 289.202 322.148Z" fill="#2244A3"/>
<path d="M252.381 275.578C252.381 275.578 282.859 319.776 288.749 321.717" stroke="#565987" stroke-width="0.431207" stroke-miterlimit="10"/>
<path d="M249.574 282.477H256.689" stroke="#565987" stroke-width="0.431207" stroke-miterlimit="10"/>
<path d="M258.099 298.647L269.25 299.126" stroke="#565987" stroke-width="0.431207" stroke-miterlimit="10"/>
<path d="M264.882 285.711L263.674 291.519" stroke="#565987" stroke-width="0.431207" stroke-miterlimit="10"/>
<path d="M276.74 303.391L276.524 308.669" stroke="#565987" stroke-width="0.431207" stroke-miterlimit="10"/>
<path d="M339.04 335.942C339.833 335.299 340.411 334.43 340.696 333.45C340.907 332.458 340.485 331.272 339.541 330.91C338.48 330.505 337.346 331.238 336.488 331.979C335.63 332.721 334.642 333.571 333.517 333.411C334.095 332.886 334.527 332.221 334.771 331.48C335.015 330.738 335.063 329.946 334.909 329.181C334.863 328.863 334.728 328.564 334.521 328.318C333.935 327.689 332.865 327.961 332.158 328.456C329.916 330.035 329.291 333.079 329.282 335.821C329.054 334.83 329.243 333.799 329.239 332.803C329.235 331.807 328.954 330.647 328.101 330.121C327.573 329.829 326.979 329.68 326.376 329.69C325.367 329.655 324.246 329.754 323.556 330.492C322.693 331.406 322.922 332.945 323.668 333.941C324.414 334.937 325.544 335.58 326.583 336.279C327.421 336.774 328.135 337.453 328.67 338.266C328.733 338.379 328.785 338.497 328.825 338.62H335.142C336.556 337.907 337.868 337.006 339.04 335.942Z" fill="#2244A3"/>
<path d="M228.401 312.153C229.193 311.508 229.769 310.637 230.053 309.656C230.269 308.664 229.846 307.5 228.897 307.116C227.837 306.711 226.707 307.444 225.844 308.19C224.982 308.936 223.999 309.777 222.878 309.621C223.455 309.094 223.886 308.426 224.129 307.682C224.372 306.939 224.417 306.145 224.262 305.378C224.214 305.061 224.079 304.763 223.874 304.516C223.283 303.886 222.218 304.154 221.511 304.65C219.269 306.228 218.643 309.272 218.63 312.015C218.406 311.027 218.596 309.997 218.592 308.996C218.587 307.996 218.307 306.84 217.449 306.31C216.92 306.025 216.325 305.885 215.724 305.904C214.719 305.866 213.594 305.965 212.908 306.702C212.046 307.621 212.274 309.156 213.016 310.152C213.758 311.148 214.892 311.79 215.935 312.489C216.77 312.987 217.482 313.666 218.018 314.477C218.083 314.59 218.135 314.71 218.173 314.835H224.495C225.911 314.119 227.225 313.217 228.401 312.153Z" fill="#2244A3"/>
<path d="M265.265 335.942C266.058 335.299 266.636 334.43 266.921 333.45C267.132 332.458 266.71 331.272 265.766 330.91C264.705 330.505 263.571 331.238 262.713 331.979C261.855 332.721 260.867 333.571 259.742 333.411C260.32 332.887 260.753 332.222 260.998 331.48C261.243 330.739 261.291 329.947 261.139 329.181C261.092 328.863 260.958 328.564 260.751 328.318C260.164 327.689 259.095 327.961 258.388 328.456C256.145 330.035 255.52 333.079 255.511 335.821C255.283 334.83 255.473 333.799 255.468 332.803C255.464 331.807 255.184 330.647 254.33 330.121C253.803 329.829 253.208 329.68 252.605 329.69C251.596 329.655 250.475 329.754 249.785 330.492C248.923 331.406 249.151 332.945 249.897 333.941C250.643 334.937 251.773 335.58 252.812 336.279C253.65 336.774 254.364 337.453 254.899 338.266C254.963 338.379 255.015 338.497 255.054 338.62H261.372C262.784 337.907 264.094 337.006 265.265 335.942Z" fill="#2244A3"/>
<path d="M369.837 287.85C369.837 287.85 372.209 290.946 368.746 295.612C365.284 300.277 362.429 304.236 363.572 307.151C363.572 307.151 368.798 298.466 373.058 298.345C377.319 298.225 374.533 293.072 369.837 287.85Z" fill="#2244A3"/>
<path opacity="0.1" d="M369.837 287.85C370.045 288.148 370.207 288.475 370.32 288.82C374.473 293.693 376.68 298.242 372.692 298.358C368.979 298.462 364.525 305.107 363.455 306.784C363.491 306.913 363.532 307.039 363.58 307.164C363.58 307.164 368.807 298.479 373.067 298.358C377.327 298.238 374.533 293.072 369.837 287.85Z" fill="black"/>
<path d="M374.257 291.795C374.257 292.886 374.136 293.77 373.985 293.77C373.834 293.77 373.718 292.873 373.718 291.795C373.718 290.717 373.869 291.222 374.02 291.222C374.171 291.222 374.257 290.717 374.257 291.795Z" fill="#FFD037"/>
<path d="M375.771 293.098C374.813 293.619 373.977 293.934 373.908 293.805C373.839 293.675 374.55 293.141 375.508 292.619C376.465 292.097 376.09 292.477 376.159 292.619C376.228 292.761 376.737 292.576 375.771 293.098Z" fill="#FFD037"/>
<path d="M357.332 287.85C357.332 287.85 354.961 290.946 358.423 295.612C361.886 300.277 364.74 304.236 363.598 307.151C363.598 307.151 358.376 298.466 354.111 298.345C349.847 298.225 352.667 293.072 357.332 287.85Z" fill="#2244A3"/>
<path opacity="0.1" d="M357.332 287.85C357.124 288.148 356.96 288.475 356.845 288.82C352.697 293.693 350.489 298.242 354.473 298.358C358.19 298.462 362.666 305.107 363.714 306.784C363.679 306.913 363.636 307.04 363.585 307.164C363.585 307.164 358.363 298.479 354.098 298.358C349.834 298.238 352.667 293.072 357.332 287.85Z" fill="black"/>
<path d="M352.938 291.795C352.938 292.886 353.063 293.77 353.214 293.77C353.365 293.77 353.486 292.886 353.486 291.795C353.486 290.704 353.335 291.222 353.184 291.222C353.033 291.222 352.938 290.717 352.938 291.795Z" fill="#FFD037"/>
<path d="M351.429 293.098C352.386 293.619 353.219 293.934 353.292 293.805C353.365 293.675 352.649 293.141 351.692 292.619C350.735 292.097 351.11 292.477 351.037 292.619C350.963 292.761 350.472 292.576 351.429 293.098Z" fill="#FFD037"/>
<path d="M353.693 306.758C353.693 306.758 360.316 306.555 362.317 305.132C364.318 303.71 372.506 302.015 373.002 304.296C373.498 306.577 382.955 315.632 375.477 315.693C368 315.753 358.104 314.528 356.112 313.312C354.12 312.096 353.693 306.758 353.693 306.758Z" fill="#A8A8A8"/>
<path opacity="0.2" d="M375.607 314.899C368.13 314.96 358.229 313.735 356.237 312.519C354.723 311.596 354.115 308.28 353.917 306.75H353.693C353.693 306.75 354.124 312.092 356.108 313.304C358.091 314.516 367.996 315.744 375.473 315.684C377.629 315.684 378.375 314.899 378.336 313.761C378.03 314.455 377.211 314.886 375.607 314.899Z" fill="black"/>
</g>
<defs>
<linearGradient id="paint0_linear_2_1691" x1="158.779" y1="338.025" x2="158.779" y2="42.5708" gradientUnits="userSpaceOnUse">
<stop stop-color="#808080" stop-opacity="0.25"/>
<stop offset="0.54" stop-color="#808080" stop-opacity="0.12"/>
<stop offset="1" stop-color="#808080" stop-opacity="0.1"/>
</linearGradient>
<clipPath id="clip0_2_1691">
<rect width="443" height="344.487" fill="white" transform="translate(0 0.756836)"/>
</clipPath>
</defs>
</svg>
