<svg width="443" height="310" viewBox="0 0 443 310" fill="none" xmlns="http://www.w3.org/2000/svg">
<g clip-path="url(#clip0_377_16796)">
<path d="M88.2648 309.181C137.012 309.181 176.53 306.179 176.53 302.475C176.53 298.771 137.012 295.768 88.2648 295.768C39.5175 295.768 0 298.771 0 302.475C0 306.179 39.5175 309.181 88.2648 309.181Z" fill="#E6E6E6"/>
<path d="M67.4678 69.2389C82.8285 62.7024 101.961 66.8438 120.645 69.7182C120.819 66.2373 122.926 62.001 120.719 59.5725C118.037 56.6222 118.284 53.5223 119.898 50.4045C124.025 42.4318 118.112 33.9484 112.141 26.8945C110.796 25.3082 109.095 24.0618 107.177 23.2566C105.26 22.4514 103.179 22.11 101.105 22.2602L90.0455 23.0506C87.3543 23.2429 84.7859 24.2529 82.6841 25.9455C80.5823 27.6381 79.0473 29.9325 78.2845 32.5218C75.6437 36.115 74.2303 39.6984 75.1202 43.263C71.1647 45.9675 70.5001 49.232 72.2776 52.9121C73.7848 55.2293 73.7687 57.4848 72.209 59.6779C70.1606 62.474 68.5917 65.5917 67.5666 68.9032L67.4678 69.2389Z" fill="#2F2E41"/>
<path d="M432.503 267.393H119.432C116.648 267.393 113.978 266.287 112.009 264.317C110.041 262.348 108.935 259.676 108.935 256.891C222.423 243.695 333.778 243.695 443 256.891C443 259.676 441.894 262.348 439.926 264.317C437.957 266.287 435.287 267.393 432.503 267.393Z" fill="#2F2E41"/>
<path d="M443 257.509L108.935 256.891L147.652 191.714L147.837 191.406V47.7641C147.837 46.0206 148.18 44.2942 148.847 42.6834C149.514 41.0726 150.491 39.6089 151.723 38.3761C152.955 37.1433 154.418 36.1653 156.028 35.4982C157.639 34.8311 159.364 34.4878 161.107 34.4879H388.975C390.718 34.4878 392.444 34.8311 394.054 35.4982C395.664 36.1653 397.127 37.1433 398.359 38.3761C399.591 39.6089 400.569 41.0726 401.236 42.6834C401.902 44.2942 402.245 46.0206 402.245 47.7641V192.394L443 257.509Z" fill="#3F3D56"/>
<path d="M160.804 43.7548C159.658 43.756 158.559 44.2121 157.749 45.0228C156.939 45.8335 156.483 46.9327 156.481 48.0793V179.05C156.483 180.196 156.939 181.296 157.749 182.106C158.559 182.917 159.658 183.373 160.804 183.374H391.13C392.276 183.373 393.375 182.917 394.185 182.106C394.995 181.296 395.451 180.196 395.453 179.05V48.0793C395.451 46.9327 394.995 45.8336 394.185 45.0229C393.375 44.2121 392.276 43.7561 391.13 43.7548H160.804Z" fill="white"/>
<path d="M161.769 200.672C161.415 200.673 161.069 200.775 160.771 200.966C160.472 201.157 160.235 201.43 160.086 201.751L148.156 227.698C148.027 227.98 147.97 228.291 147.991 228.601C148.013 228.911 148.112 229.211 148.279 229.473C148.447 229.734 148.678 229.95 148.95 230.099C149.223 230.248 149.528 230.326 149.839 230.326H400.719C401.035 230.326 401.345 230.245 401.621 230.091C401.897 229.938 402.129 229.716 402.295 229.447C402.461 229.178 402.555 228.872 402.57 228.556C402.584 228.24 402.517 227.926 402.376 227.644L389.408 201.697C389.255 201.388 389.019 201.129 388.726 200.948C388.433 200.767 388.096 200.671 387.752 200.672H161.769Z" fill="#2F2E41"/>
<path d="M275.041 41.5924C276.576 41.5924 277.82 40.3478 277.82 38.8124C277.82 37.277 276.576 36.0323 275.041 36.0323C273.506 36.0323 272.262 37.277 272.262 38.8124C272.262 40.3478 273.506 41.5924 275.041 41.5924Z" fill="white"/>
<path d="M250.382 235.268C249.974 235.269 249.579 235.403 249.255 235.651C248.932 235.899 248.699 236.246 248.593 236.64L245.6 247.76C245.526 248.034 245.517 248.322 245.572 248.602C245.627 248.881 245.746 249.143 245.919 249.369C246.092 249.595 246.314 249.778 246.569 249.904C246.824 250.03 247.105 250.095 247.389 250.095H304.3C304.595 250.095 304.886 250.025 305.149 249.889C305.411 249.754 305.637 249.557 305.809 249.317C305.98 249.076 306.091 248.798 306.133 248.505C306.175 248.213 306.146 247.915 306.05 247.636L302.202 236.515C302.076 236.151 301.84 235.836 301.526 235.612C301.212 235.389 300.837 235.268 300.452 235.268H250.382Z" fill="#2F2E41"/>
<path d="M402.245 189.243V191.714H147.651L147.843 191.406V189.243H402.245Z" fill="#2F2E41"/>
<path d="M395.144 87.3086C419.017 87.3086 438.369 67.9472 438.369 44.0636C438.369 20.1801 419.017 0.818604 395.144 0.818604C371.272 0.818604 351.919 20.1801 351.919 44.0636C351.919 67.9472 371.272 87.3086 395.144 87.3086Z" fill="#EBB70C"/>
<path d="M413.051 62.9061H377.237C376.582 62.9055 375.954 62.6449 375.491 62.1816C375.028 61.7183 374.767 61.0902 374.767 60.435V38.8124C374.767 38.1573 375.028 37.5291 375.491 37.0659C375.954 36.6026 376.582 36.342 377.237 36.3413H413.051C413.706 36.342 414.334 36.6026 414.797 37.0659C415.26 37.5291 415.521 38.1573 415.521 38.8124V60.4349C415.521 61.0901 415.26 61.7183 414.797 62.1816C414.334 62.6449 413.706 62.9055 413.051 62.9061ZM377.237 38.8125V60.435H413.053L413.051 38.8124L377.237 38.8125Z" fill="white"/>
<path d="M406.259 38.8124H384.029V28.9279C384.029 21.7684 388.704 16.5721 395.144 16.5721C401.585 16.5721 406.259 21.7684 406.259 28.9279L406.259 38.8124ZM386.499 36.3413H403.789V28.9279C403.789 23.108 400.234 19.0433 395.144 19.0433C390.054 19.0433 386.499 23.1081 386.499 28.9279L386.499 36.3413Z" fill="white"/>
<path d="M395.144 51.4771C396.508 51.4771 397.614 50.3707 397.614 49.0059C397.614 47.6412 396.508 46.5348 395.144 46.5348C393.78 46.5348 392.674 47.6412 392.674 49.0059C392.674 50.3707 393.78 51.4771 395.144 51.4771Z" fill="white"/>
<path d="M364.969 138.951H186.965C186.091 138.95 185.253 138.602 184.635 137.983C184.017 137.365 183.669 136.527 183.668 135.653V91.4766C183.669 90.6023 184.017 89.764 184.635 89.1458C185.253 88.5275 186.091 88.1797 186.965 88.1787H364.969C365.843 88.1797 366.681 88.5275 367.299 89.1458C367.917 89.764 368.265 90.6023 368.266 91.4766V135.653C368.265 136.527 367.917 137.365 367.299 137.983C366.681 138.602 365.843 138.95 364.969 138.951ZM186.965 89.4979C186.44 89.4985 185.938 89.7071 185.567 90.0781C185.196 90.4491 184.988 90.952 184.987 91.4766V135.653C184.988 136.177 185.196 136.68 185.567 137.051C185.938 137.422 186.44 137.631 186.965 137.631H364.969C365.494 137.631 365.996 137.422 366.367 137.051C366.738 136.68 366.946 136.177 366.947 135.653V91.4766C366.946 90.952 366.738 90.449 366.367 90.0781C365.996 89.7071 365.494 89.4984 364.969 89.4979L186.965 89.4979Z" fill="#E6E6E6"/>
<path d="M214.623 125.303C222.039 125.303 228.051 119.289 228.051 111.87C228.051 104.45 222.039 98.4355 214.623 98.4355C207.208 98.4355 201.196 104.45 201.196 111.87C201.196 119.289 207.208 125.303 214.623 125.303Z" fill="#E6E6E6"/>
<path d="M245.635 102.914C245.341 102.913 245.049 102.971 244.778 103.083C244.506 103.195 244.258 103.36 244.05 103.568C243.842 103.776 243.677 104.023 243.564 104.295C243.452 104.567 243.394 104.858 243.394 105.153C243.394 105.447 243.452 105.738 243.564 106.01C243.677 106.282 243.842 106.529 244.05 106.737C244.258 106.945 244.506 107.11 244.778 107.222C245.049 107.334 245.341 107.392 245.635 107.392H351.138C351.732 107.392 352.301 107.156 352.721 106.736C353.14 106.316 353.376 105.746 353.376 105.153C353.376 104.559 353.14 103.989 352.721 103.569C352.301 103.149 351.732 102.914 351.138 102.914H245.635Z" fill="#E6E6E6"/>
<path d="M245.635 116.347C245.041 116.347 244.472 116.583 244.052 117.003C243.633 117.423 243.397 117.993 243.397 118.586C243.397 119.18 243.633 119.75 244.052 120.17C244.472 120.59 245.041 120.825 245.635 120.825H291.033C291.627 120.825 292.196 120.59 292.616 120.17C293.035 119.75 293.271 119.18 293.271 118.586C293.271 117.993 293.035 117.423 292.616 117.003C292.196 116.583 291.627 116.347 291.033 116.347H245.635Z" fill="#E6E6E6"/>
<path d="M147.214 117.253L114.308 134.756L113.892 120.17C124.632 118.377 134.85 115.253 144.298 110.169L147.739 101.662C148.114 100.736 148.724 99.9222 149.508 99.3021C150.292 98.682 151.224 98.2766 152.212 98.1257C153.2 97.9747 154.21 98.0834 155.144 98.4411C156.077 98.7988 156.902 99.3931 157.536 100.166C158.464 101.296 158.928 102.738 158.834 104.198C158.74 105.658 158.094 107.027 157.028 108.029L147.214 117.253Z" fill="#FFB8B8"/>
<path d="M66.8122 218.305C66.5721 217.424 66.5212 216.502 66.6626 215.601C66.8041 214.699 67.1348 213.837 67.633 213.072L74.8614 201.973C76.5711 199.348 79.1944 197.452 82.2225 196.653C85.2506 195.854 88.4675 196.208 91.249 197.648C88.2111 202.821 88.6346 207.36 92.2982 211.304C86.611 214.082 81.3546 217.667 76.692 221.948C75.8408 222.529 74.8633 222.897 73.8409 223.023C72.8184 223.149 71.7807 223.029 70.8141 222.673C69.8475 222.316 68.98 221.734 68.2839 220.974C67.5878 220.214 67.0832 219.299 66.8122 218.305Z" fill="#2F2E41"/>
<path d="M148.712 203.793C147.618 205.617 146.074 207.129 144.228 208.184C142.382 209.239 140.296 209.802 138.17 209.818L90.1495 210.182L88.0669 198.097L109.31 191.846L91.3991 178.094L110.976 155.175L146.533 188.331C148.611 190.269 149.962 192.862 150.358 195.676C150.755 198.491 150.174 201.356 148.712 203.793Z" fill="#2F2E41"/>
<path d="M82.6522 286.442H71.406C61.3086 217.195 51.0304 147.755 81.4027 121.837L117.224 127.671L112.642 158.092L92.6488 181.011L82.6522 286.442Z" fill="#2F2E41"/>
<path d="M92.538 302.128C91.6576 302.368 90.7364 302.419 89.8348 302.278C88.9333 302.137 88.0719 301.806 87.3074 301.307L75.0963 299.665C72.4724 297.955 70.5771 295.33 69.778 292.301C68.9789 289.272 69.3332 286.053 70.7719 283.27C75.9431 286.309 80.4794 285.885 84.4214 282.22C87.2068 287.846 91.796 287.503 96.1788 292.244C96.7592 293.095 97.1277 294.073 97.2538 295.096C97.3798 296.119 97.2598 297.157 96.9035 298.124C96.5473 299.091 95.9653 299.959 95.2059 300.656C94.4466 301.352 93.5319 301.857 92.538 302.128Z" fill="#2F2E41"/>
<path d="M109.31 75.5811L88.4834 70.5805C91.9423 63.497 92.2271 55.6152 90.566 47.2441L104.728 46.8274C105.172 57.2371 106.514 66.9624 109.31 75.5811Z" fill="#FFB8B8"/>
<path d="M115.033 140.218C99.8728 150.554 89.1606 140.572 80.986 125.171C82.1219 115.747 80.2827 104.469 76.8763 92.2145C75.3613 86.8095 75.9269 81.0327 78.4614 76.0245C80.9958 71.0163 85.315 67.1408 90.5661 65.1631L108.477 72.6641C123.685 85.0663 126.678 98.5003 120.972 112.669L115.033 140.218Z" fill="#003895"/>
<path d="M71.4059 85.9991L54.7449 94.7502L84.3182 112.252L88.4331 122.407C88.7078 123.085 88.8416 123.812 88.8264 124.543C88.8112 125.274 88.6473 125.995 88.3447 126.66C88.042 127.326 87.6071 127.923 87.0663 128.415C86.5255 128.908 85.8901 129.284 85.1991 129.523C84.4135 129.794 83.5758 129.879 82.7518 129.772C81.9277 129.665 81.1395 129.369 80.449 128.906C79.7585 128.444 79.1844 127.828 78.7717 127.106C78.3589 126.385 78.1188 125.577 78.07 124.747L77.6538 117.67L40.0665 105.26C38.8001 104.842 37.6454 104.141 36.6899 103.21C35.7343 102.28 35.003 101.144 34.5513 99.8884C33.8928 98.0585 33.8593 96.0619 34.456 94.211C35.0526 92.3601 36.2458 90.7593 37.8487 89.6591L68.0737 68.9136L71.4059 85.9991Z" fill="#FFB8B8"/>
<path d="M88.067 87.666C81.1184 84.6194 74.7998 87.9289 66.8243 90.5831L65.5747 68.4969C73.494 64.274 81.0446 63.1355 88.0671 66.4133L88.067 87.666Z" fill="#003895"/>
<path d="M96.3788 57.7675C103.722 57.7675 109.676 51.8115 109.676 44.4645C109.676 37.1175 103.722 31.1615 96.3788 31.1615C89.0352 31.1615 83.082 37.1175 83.082 44.4645C83.082 51.8115 89.0352 57.7675 96.3788 57.7675Z" fill="#FFB8B8"/>
<path d="M112.286 42.786C99.1211 44.076 89.0895 41.9219 82.6782 35.7885V30.8491H111.169L112.286 42.786Z" fill="#2F2E41"/>
</g>
<defs>
<clipPath id="clip0_377_16796">
<rect width="443" height="308.363" fill="white" transform="translate(0 0.818604)"/>
</clipPath>
</defs>
</svg>
