<svg width="461" height="308" viewBox="0 0 461 308" fill="none" xmlns="http://www.w3.org/2000/svg">
<g clip-path="url(#clip0_377_16847)">
<path d="M165.502 177.257C181.266 149.317 211.337 127.864 243.169 129.931C219.689 155.657 205.997 188.921 204.516 223.839C203.993 237.307 204.804 252.342 195.928 262.427C190.405 268.703 181.964 271.742 173.664 272.379C165.363 273.017 157.065 271.506 148.876 270.001L146.889 270.616C146.133 238.486 149.738 205.196 165.502 177.257Z" fill="#E5E9FF"/>
<path d="M243.217 130.604C219.677 142.021 199.605 161.089 187.284 184.343C184.62 189.371 182.352 194.705 181.363 200.344C180.373 205.986 181.064 211.357 182.977 216.715C184.726 221.614 187.077 226.421 187.613 231.663C188.179 237.188 186.161 242.354 182.529 246.455C178.085 251.471 172.117 254.58 166.176 257.415C159.579 260.564 152.678 263.729 148.006 269.605C147.44 270.317 146.376 269.39 146.941 268.679C155.07 258.456 168.985 256.534 178.634 248.299C183.136 244.456 186.516 239.223 186.303 233.091C186.116 227.729 183.695 222.77 181.882 217.825C179.979 212.633 179.029 207.412 179.712 201.877C180.41 196.214 182.476 190.78 185.001 185.706C190.694 174.262 198.486 163.756 207.412 154.674C217.671 144.235 229.626 135.641 242.762 129.263C243.575 128.869 244.025 130.212 243.217 130.604Z" fill="white"/>
<path d="M190.893 176.572C187.284 173.913 184.731 170.049 183.689 165.669C182.648 161.289 183.185 156.678 185.206 152.66C185.617 151.849 186.888 152.455 186.476 153.268C184.588 157.006 184.087 161.3 185.066 165.377C186.044 169.454 188.437 173.044 191.812 175.499C192.544 176.034 191.622 177.103 190.893 176.572Z" fill="white"/>
<path d="M181.766 214.349C190.808 213.018 199.021 208.302 204.765 201.141C205.334 200.431 206.397 201.358 205.829 202.067C199.838 209.507 191.282 214.397 181.869 215.762C180.971 215.891 180.873 214.478 181.766 214.349V214.349Z" fill="white"/>
<path d="M218.365 145.978C219.549 147.3 221.04 148.305 222.704 148.902C224.368 149.5 226.154 149.672 227.901 149.403C228.796 149.262 228.893 150.676 228.004 150.815C226.073 151.104 224.101 150.912 222.26 150.255C220.42 149.599 218.768 148.498 217.447 147.05C217.311 146.924 217.228 146.751 217.214 146.565C217.201 146.38 217.258 146.196 217.374 146.051C217.496 145.91 217.669 145.823 217.855 145.809C218.04 145.795 218.224 145.856 218.365 145.978Z" fill="white"/>
<path d="M306.506 218.07C305.95 218.174 305.393 218.278 304.832 218.393C297.357 219.829 290.011 221.875 282.865 224.51C282.309 224.705 281.749 224.911 281.2 225.122C264.052 231.655 248.257 241.34 234.617 253.683C229.194 258.6 224.15 263.925 219.529 269.613C213.148 277.468 206.849 286.497 198.51 291.618C197.646 292.163 196.75 292.652 195.826 293.085L147.788 273.01C147.701 272.909 147.61 272.819 147.523 272.718L145.568 272.005C145.786 271.694 146.019 271.378 146.237 271.067C146.363 270.887 146.499 270.711 146.625 270.531C146.712 270.412 146.8 270.293 146.872 270.181C146.901 270.141 146.93 270.102 146.954 270.073C147.026 269.961 147.105 269.864 147.172 269.763C148.468 267.988 149.779 266.219 151.104 264.456C151.109 264.445 151.109 264.445 151.124 264.438C161.255 251.032 172.586 238.36 185.466 227.824C185.854 227.507 186.246 227.179 186.655 226.871C192.487 222.154 198.692 217.925 205.207 214.227C208.782 212.213 212.455 210.383 216.213 208.744C225.931 204.527 236.246 201.876 246.782 200.889C267.785 198.924 289.177 203.749 305.286 217.042C305.697 217.382 306.099 217.718 306.506 218.07Z" fill="#E9ECF6"/>
<path d="M306.145 218.639C280.528 213.476 253.107 216.525 229.372 227.619C224.241 230.017 219.243 232.9 215.083 236.803C210.921 240.707 208.264 245.415 206.589 250.853C205.057 255.826 204.063 261.09 201.358 265.601C198.508 270.355 193.81 273.256 188.459 274.327C181.913 275.636 175.291 274.498 168.852 273.158C161.704 271.671 154.303 270.012 147.061 271.869C146.183 272.094 145.888 270.709 146.764 270.485C159.364 267.253 171.622 274.159 184.247 273.436C190.139 273.099 195.965 270.971 199.459 265.946C202.514 261.551 203.544 256.123 205.052 251.075C206.634 245.775 208.996 241.031 212.849 237.025C216.791 232.927 221.687 229.841 226.735 227.321C238.12 221.638 250.619 217.976 263.174 216.139C277.603 214.027 292.284 214.417 306.583 217.293C307.468 217.471 307.025 218.816 306.145 218.639V218.639Z" fill="white"/>
<path d="M236.898 223.603C235.606 219.291 235.876 214.657 237.662 210.528C239.448 206.398 242.632 203.043 246.646 201.061C247.46 200.663 248.112 201.918 247.298 202.317C243.556 204.156 240.59 207.281 238.935 211.13C237.28 214.978 237.045 219.296 238.273 223.304C238.538 224.175 237.163 224.469 236.898 223.603Z" fill="white"/>
<path d="M207.036 248.229C215.051 252.652 224.426 253.868 233.292 251.635C234.17 251.413 234.466 252.798 233.589 253.019C224.359 255.326 214.605 254.04 206.274 249.42C205.48 248.979 206.246 247.791 207.036 248.229Z" fill="white"/>
<path d="M277.116 215.84C277.271 217.613 277.861 219.32 278.832 220.807C279.804 222.294 281.127 223.514 282.682 224.358C283.481 224.789 282.714 225.977 281.92 225.549C280.206 224.608 278.746 223.258 277.669 221.618C276.592 219.977 275.93 218.096 275.741 216.139C275.708 215.956 275.745 215.767 275.845 215.611C275.946 215.454 276.101 215.342 276.28 215.297C276.462 215.258 276.652 215.294 276.809 215.395C276.965 215.497 277.075 215.657 277.116 215.84Z" fill="white"/>
<path d="M214.997 251.19C208.269 218.417 199.86 207.49 199.86 207.49L196.647 204.98L192.784 201.956L192.803 201.567L191.886 201.254L191.671 201.085L191.318 200.812L191.261 200.874L191.142 200.999L173.659 195.011L151.479 187.421L141.209 173.971C139.536 171.78 137.383 170.01 134.917 168.798C132.452 167.587 129.741 166.967 126.998 166.987L94.197 167.232C89.7619 167.265 85.4995 168.968 82.2478 172.007L60.6883 192.155L27.0944 208.32L27.0377 208.263L26.6849 208.517L21.4943 211.018L21.7085 212.141L18.4959 214.476C18.4959 214.476 10.0864 224.644 3.35878 255.139C1.64735 262.898 0.804926 279.544 0.500855 300.055C0.485581 301.092 0.675194 302.123 1.05866 303.086C1.44213 304.049 2.01181 304.926 2.73458 305.665C3.45734 306.404 4.31876 306.991 5.26877 307.392C6.21877 307.793 7.2384 308 8.26836 308H187.7V308H210.096C211.125 307.999 212.144 307.793 213.093 307.393C214.042 306.992 214.903 306.406 215.626 305.667C216.349 304.929 216.919 304.053 217.303 303.091C217.687 302.129 217.877 301.1 217.863 300.063C217.566 277.744 216.724 259.605 214.997 251.19Z" fill="#2244A3"/>
<path d="M238.019 28.5812C231.038 28.5812 224.343 31.3753 219.407 36.3486C214.47 41.322 211.697 48.0674 211.697 55.1008C211.697 62.1342 214.47 68.8796 219.407 73.853C224.343 78.8263 231.038 81.6204 238.019 81.6204H434.178C441.159 81.6204 447.854 78.8263 452.791 73.853C457.727 68.8796 460.5 62.1342 460.5 55.1008C460.5 48.0674 457.727 41.322 452.791 36.3486C447.854 31.3753 441.159 28.5812 434.178 28.5812H238.019Z" fill="#E5E5E5"/>
<path d="M238.019 33.9483C232.451 33.9483 227.111 36.1769 223.174 40.1437C219.236 44.1106 217.024 49.4908 217.024 55.1008C217.024 60.7108 219.236 66.091 223.174 70.0579C227.111 74.0248 232.451 76.2533 238.019 76.2533H434.178C439.747 76.2533 445.087 74.0248 449.024 70.0579C452.961 66.091 455.173 60.7108 455.173 55.1008C455.173 49.4908 452.961 44.1106 449.024 40.1437C445.087 36.1769 439.747 33.9483 434.178 33.9483H238.019Z" fill="white"/>
<path d="M115.749 154.572C139.482 154.572 158.721 135.188 158.721 111.276C158.721 87.365 139.482 67.981 115.749 67.981C92.0158 67.981 72.7764 87.365 72.7764 111.276C72.7764 135.188 92.0158 154.572 115.749 154.572Z" fill="#9E616A"/>
<path d="M104.755 152.452C104.572 152.045 104.389 151.636 104.206 151.226C104.276 151.228 104.346 151.238 104.416 151.24L104.755 152.452Z" fill="#2F2E41"/>
<path d="M71.5813 69.9498C73.7547 68.203 76.2949 66.5958 79.0737 66.6861C81.8525 66.7763 84.6703 69.3049 84.0946 72.0454C89.1987 62.9402 97.3228 55.9374 107.041 52.2659C116.759 48.5945 127.45 48.4891 137.238 51.9682C144.144 54.4232 150.917 59.3346 152.504 66.538C152.911 68.3872 152.998 70.4148 154.144 71.9163C155.589 73.8095 158.354 74.2378 160.63 73.5718C160.653 73.5651 160.676 73.5584 160.698 73.5516C161.083 73.4193 161.498 73.4063 161.89 73.5142C162.282 73.6222 162.633 73.8462 162.897 74.1572C163.161 74.4682 163.327 74.852 163.372 75.2588C163.417 75.6657 163.341 76.0769 163.152 76.4393L161.197 80.1112C163.661 80.6644 166.22 80.6096 168.658 79.9513C169.063 79.8443 169.491 79.8662 169.883 80.0139C170.275 80.1616 170.612 80.4279 170.848 80.7763C171.084 81.1247 171.208 81.5382 171.201 81.9599C171.195 82.3817 171.059 82.7911 170.812 83.132C164.369 92.0452 153.604 97.8009 142.618 97.7332C134.81 97.6853 126.922 94.9741 119.323 96.7831C116.383 97.4829 113.636 98.837 111.284 100.746C108.931 102.655 107.033 105.07 105.728 107.815C104.422 110.559 103.744 113.564 103.741 116.607C103.739 119.65 104.412 122.656 105.713 125.402C103.379 122.83 98.8661 123.439 96.4782 125.961C94.0904 128.483 93.4722 132.248 93.7128 135.725C94.0807 141.044 96.1489 146.055 98.3292 150.933C80.0492 150.353 62.7593 137.433 56.9396 119.959C51.0954 102.412 57.2203 81.4922 71.5813 69.9498Z" fill="#2F2E41"/>
<path opacity="0.2" d="M42.7959 241.296L54.8487 307.366L62.0807 308L42.7959 241.296Z" fill="black"/>
<path opacity="0.2" d="M175.56 236.313L163.507 307.318L156.275 308L175.56 236.313Z" fill="black"/>
<path d="M81.8614 47.7142C79.5504 48.6864 77.139 47.6209 76.1277 45.1808C75.101 42.7034 76.06 40.1886 78.4079 39.2008C80.7562 38.2129 83.1246 39.281 84.1679 41.7983C85.1956 44.2779 84.247 46.7105 81.8614 47.7142ZM77.4346 34.3245L75.5971 35.0975C75.1381 35.2883 74.6247 35.2986 74.1585 35.1263C73.6923 34.9541 73.3072 34.6118 73.0795 34.1672L72.9886 33.9881C71.0115 30.3956 70.7851 26.0295 72.3194 21.0179C73.7406 16.5222 74.3309 13.3604 73.1438 10.496C71.7712 7.18416 68.8402 6.14673 65.1026 7.64957C63.6529 8.25943 63.1917 8.24971 62.0509 9.3899C61.8027 9.64093 61.5069 9.83905 61.1811 9.97243C60.8554 10.1058 60.5062 10.1717 60.1546 10.1663C59.8147 10.1622 59.4791 10.0893 59.1678 9.95173C58.8565 9.8142 58.5758 9.61491 58.3426 9.36575C57.8933 8.88558 57.6415 8.25152 57.6382 7.5916C57.6349 6.93168 57.8803 6.29508 58.3248 5.81037C60.2423 3.78805 62.555 2.18814 65.117 1.11159C73.1476 -2.26691 77.1903 2.72096 79.0402 7.18464C80.8497 11.5506 79.8319 15.6015 78.1964 20.8479C76.8258 25.2072 76.9057 28.4375 78.4625 31.6493C78.5749 31.8922 78.6375 32.1554 78.6464 32.4231C78.6553 32.6909 78.6104 32.9577 78.5144 33.2076C78.4184 33.4575 78.2732 33.6852 78.0877 33.8771C77.9021 34.069 77.68 34.2212 77.4346 34.3245L77.4346 34.3245Z" fill="#EBB70C"/>
<path d="M281.348 67.7488H242.32C242.196 67.7497 242.073 67.7258 241.958 67.6786C241.843 67.6314 241.739 67.5617 241.651 67.4737C241.563 67.3857 241.493 67.281 241.445 67.1657C241.398 67.0503 241.373 66.9266 241.373 66.8017C241.373 66.6768 241.398 66.5531 241.445 66.4378C241.493 66.3224 241.563 66.2177 241.651 66.1297C241.739 66.0417 241.843 65.972 241.958 65.9248C242.073 65.8776 242.196 65.8537 242.32 65.8546H281.348C281.596 65.8563 281.834 65.9568 282.009 66.1342C282.183 66.3117 282.282 66.5516 282.282 66.8017C282.282 67.0518 282.183 67.2917 282.009 67.4691C281.834 67.6466 281.596 67.7471 281.348 67.7488Z" fill="#6C63FF"/>
<path d="M330.858 68.0645H291.829C291.705 68.0654 291.582 68.0415 291.468 67.9943C291.353 67.9471 291.248 67.8774 291.16 67.7894C291.072 67.7014 291.003 67.5967 290.955 67.4813C290.907 67.366 290.883 67.2423 290.883 67.1174C290.883 66.9925 290.907 66.8688 290.955 66.7534C291.003 66.6381 291.072 66.5334 291.16 66.4454C291.248 66.3573 291.353 66.2877 291.468 66.2405C291.582 66.1933 291.705 66.1694 291.829 66.1702H330.858C330.982 66.1694 331.105 66.1933 331.219 66.2405C331.334 66.2877 331.439 66.3573 331.527 66.4454C331.615 66.5334 331.684 66.6381 331.732 66.7534C331.78 66.8688 331.804 66.9925 331.804 67.1174C331.804 67.2423 331.78 67.366 331.732 67.4813C331.684 67.5967 331.615 67.7014 331.527 67.7894C331.439 67.8774 331.334 67.9471 331.219 67.9943C331.105 68.0415 330.982 68.0654 330.858 68.0645Z" fill="#6C63FF"/>
<path d="M380.368 68.3802H341.339C341.091 68.3785 340.854 68.278 340.679 68.1006C340.504 67.9231 340.406 67.6832 340.406 67.4331C340.406 67.183 340.504 66.9431 340.679 66.7656C340.854 66.5882 341.091 66.4877 341.339 66.486H380.368C380.492 66.4851 380.615 66.509 380.73 66.5562C380.844 66.6034 380.949 66.6731 381.037 66.7611C381.125 66.8491 381.195 66.9538 381.242 67.0692C381.29 67.1845 381.314 67.3082 381.314 67.4331C381.314 67.558 381.29 67.6817 381.242 67.7971C381.195 67.9124 381.125 68.0171 381.037 68.1051C380.949 68.1932 380.844 68.2628 380.73 68.31C380.615 68.3572 380.492 68.3811 380.368 68.3802H380.368Z" fill="#6C63FF"/>
<path d="M429.878 68.6959H390.849C390.601 68.6942 390.364 68.5936 390.189 68.4162C390.014 68.2388 389.916 67.9988 389.916 67.7488C389.916 67.4987 390.014 67.2587 390.189 67.0813C390.364 66.9039 390.601 66.8033 390.849 66.8016H429.878C430.126 66.8033 430.363 66.9039 430.538 67.0813C430.713 67.2587 430.811 67.4987 430.811 67.7488C430.811 67.9988 430.713 68.2388 430.538 68.4162C430.363 68.5936 430.126 68.6942 429.878 68.6959Z" fill="#6C63FF"/>
<path d="M261.748 59.0323C265.754 59.0323 269.002 55.7603 269.002 51.724C269.002 47.6878 265.754 44.4158 261.748 44.4158C257.742 44.4158 254.494 47.6878 254.494 51.724C254.494 55.7603 257.742 59.0323 261.748 59.0323Z" fill="#6C63FF"/>
<path d="M311.557 59.0323C315.563 59.0323 318.811 55.7603 318.811 51.724C318.811 47.6878 315.563 44.4158 311.557 44.4158C307.551 44.4158 304.303 47.6878 304.303 51.724C304.303 55.7603 307.551 59.0323 311.557 59.0323Z" fill="#6C63FF"/>
<path d="M361.366 59.0323C365.372 59.0323 368.619 55.7603 368.619 51.724C368.619 47.6878 365.372 44.4158 361.366 44.4158C357.359 44.4158 354.112 47.6878 354.112 51.724C354.112 55.7603 357.359 59.0323 361.366 59.0323Z" fill="#6C63FF"/>
<path d="M411.175 59.0323C415.181 59.0323 418.428 55.7603 418.428 51.724C418.428 47.6878 415.181 44.4158 411.175 44.4158C407.169 44.4158 403.921 47.6878 403.921 51.724C403.921 55.7603 407.169 59.0323 411.175 59.0323Z" fill="#6C63FF"/>
</g>
<defs>
<clipPath id="clip0_377_16847">
<rect width="460" height="308" fill="white" transform="translate(0.5)"/>
</clipPath>
</defs>
</svg>
