<svg width="93" height="106" viewBox="0 0 93 106" fill="none" xmlns="http://www.w3.org/2000/svg">
<path d="M94.4966 81.2079C91.346 75.5713 87.1308 70.6019 82.0858 66.5764C77.0532 62.5363 71.2872 59.5101 65.1062 57.6649C65.0504 57.6443 64.9961 57.637 64.9403 57.6164C72.5119 50.7452 76.7859 40.4488 75.5689 29.5034C73.5529 11.3714 57.2494 -1.68841 39.143 0.324723C21.0366 2.33786 7.99986 18.6598 10.0158 36.7918C11.2328 47.7372 17.664 56.8433 26.5615 61.8969C26.5115 61.9292 26.4601 61.9483 26.4102 61.9807C20.7674 65.1404 15.8532 69.3178 11.8027 74.4041C7.76978 79.4424 4.74954 85.2154 2.90882 91.4043C1.09826 97.4642 0.464608 103.816 1.04216 110.115C1.05434 110.257 1.09471 110.395 1.16088 110.521C1.22706 110.646 1.31771 110.758 1.42749 110.848C1.53727 110.938 1.66395 111.005 1.80008 111.046C1.93622 111.086 2.07904 111.099 2.22013 111.083L10.1499 110.201C10.7315 110.137 11.1425 109.622 11.0925 109.052C10.2208 98.8047 13.2539 88.7803 19.6901 80.7222C26.3494 72.3848 35.8422 67.149 46.4417 65.9705C57.0412 64.792 67.4523 67.8148 75.7803 74.4859C83.8292 80.9335 88.9902 90.0469 90.3906 100.235C90.4685 100.816 90.9811 101.214 91.5626 101.15L99.4924 100.268C99.6336 100.252 99.7701 100.209 99.894 100.139C100.018 100.07 100.127 99.9765 100.214 99.8644C100.301 99.7523 100.365 99.6239 100.402 99.4866C100.439 99.3494 100.448 99.2061 100.429 99.0652C99.5935 92.7536 97.6009 86.7447 94.4966 81.2079V81.2079ZM45.3234 55.9119C39.2571 56.5863 33.2842 54.8521 28.5107 51.0282C23.7371 47.2044 20.7357 41.7499 20.0603 35.675C19.3848 29.6002 21.1149 23.6196 24.9319 18.8406C28.749 14.0617 34.1951 11.0578 40.2614 10.3833C46.3277 9.70887 52.3005 11.4431 57.0741 15.267C61.8476 19.0908 64.8491 24.5453 65.5245 30.6202C66.1999 36.695 64.4699 42.6756 60.6528 47.4546C56.8357 52.2335 51.3897 55.2374 45.3234 55.9119Z" fill="white" fill-opacity="0.35"/>
</svg>
