<svg width="114" height="97" viewBox="0 0 114 97" fill="none" xmlns="http://www.w3.org/2000/svg">
<path d="M45.3049 -25.0403L38.7437 10.2164M102.045 -14.4812L95.4839 20.7756M31.9169 27.1849L53.1945 31.1446M95.7496 39.0639L74.472 35.1042M27.9802 48.3389L49.2578 52.2986M70.5353 56.2583L91.8129 60.218M27.8393 -10.0517L112.949 5.78699C114.831 6.13704 116.496 7.21567 117.58 8.78558C118.664 10.3555 119.078 12.2881 118.73 14.1582L105.607 84.6718C105.259 86.5419 104.178 88.1964 102.602 89.2712C101.026 90.3461 99.0838 90.7533 97.2027 90.4032L12.0925 74.5645C10.2114 74.2144 8.54569 73.1358 7.46168 71.5659C6.37766 69.996 5.96419 68.0634 6.31221 66.1933L19.4345 -4.32027C19.7826 -6.1904 20.8636 -7.84488 22.4398 -8.91974C24.016 -9.9946 25.9582 -10.4018 27.8393 -10.0517V-10.0517Z" stroke="white" stroke-opacity="0.35" stroke-width="11"/>
</svg>
