<svg width="104" height="113" viewBox="0 0 104 113" fill="none" xmlns="http://www.w3.org/2000/svg">
<path d="M4 1V34.5172C4 38.4681 5.55604 42.2571 8.32581 45.0507C11.0956 47.8443 14.8522 49.4138 18.7692 49.4138C22.6863 49.4138 26.4429 47.8443 29.2127 45.0507C31.9824 42.2571 33.5385 38.4681 33.5385 34.5172V12.1724C33.5385 10.197 32.7604 8.30251 31.3756 6.90569C29.9907 5.50886 28.1124 4.72414 26.1538 4.72414C24.1953 4.72414 22.317 5.50886 20.9321 6.90569C19.5473 8.30251 18.7692 10.197 18.7692 12.1724V38.2414M44.6154 4.72414H92.6154C94.5739 4.72414 96.4522 5.50886 97.8371 6.90569C99.222 8.30251 100 10.197 100 12.1724V101.552C100 103.527 99.222 105.422 97.8371 106.818C96.4522 108.215 94.5739 109 92.6154 109H18.7692C16.8107 109 14.9324 108.215 13.5475 106.818C12.1626 105.422 11.3846 103.527 11.3846 101.552V60.5862M81.5385 34.5172H52M81.5385 56.8621H52M81.5385 79.2069H29.8462" stroke="white" stroke-opacity="0.35" stroke-width="8"/>
</svg>
