<svg width="146" height="138" viewBox="0 0 146 138" fill="none" xmlns="http://www.w3.org/2000/svg">
<path d="M93.1139 18.1326C94.8048 16.9176 96.7308 16.069 98.7685 15.6412C100.806 15.2134 102.911 15.2159 104.948 15.6484C106.984 16.0809 108.908 16.9339 110.597 18.1529C112.285 19.3718 113.7 20.9298 114.751 22.7272L120.472 32.504C121.583 34.4019 123.099 36.0315 124.912 37.2766C126.724 38.5218 128.789 39.3518 130.96 39.7076L142.136 41.5456C144.19 41.8817 146.151 42.6428 147.894 43.7802C149.637 44.9176 151.123 46.4063 152.258 48.1512C153.393 49.896 154.151 51.8584 154.484 53.913C154.817 55.9675 154.717 58.069 154.192 60.0828L151.321 71.047C150.764 73.1745 150.683 75.3987 151.084 77.561C151.485 79.7233 152.358 81.7705 153.641 83.5569L160.249 92.7575C161.464 94.4484 162.312 96.3744 162.74 98.4122C163.168 100.45 163.166 102.555 162.733 104.591C162.301 106.628 161.448 108.552 160.229 110.24C159.01 111.928 157.452 113.343 155.654 114.394L145.877 120.116C143.979 121.227 142.35 122.743 141.105 124.555C139.86 126.368 139.03 128.433 138.674 130.603L136.836 141.779C136.5 143.833 135.739 145.795 134.601 147.538C133.464 149.281 131.975 150.767 130.23 151.902C128.485 153.037 126.523 153.795 124.468 154.128C122.414 154.461 120.312 154.361 118.299 153.835L107.334 150.964C105.207 150.407 102.983 150.327 100.82 150.728C98.6582 151.129 96.6109 152.002 94.8245 153.284L85.6239 159.892C83.933 161.108 82.007 161.956 79.9692 162.384C77.9315 162.812 75.8269 162.809 73.7901 162.377C71.7533 161.944 69.8293 161.091 68.1412 159.872C66.4532 158.653 65.0382 157.095 63.987 155.298L58.2657 145.521C57.1547 143.623 55.6389 141.994 53.8261 140.748C52.0134 139.503 49.9483 138.673 47.7781 138.317L36.6023 136.479C34.5482 136.143 32.5869 135.382 30.8438 134.245C29.1008 133.107 27.6143 131.619 26.4795 129.874C25.3448 128.129 24.5867 126.167 24.2538 124.112C23.9209 122.058 24.0205 119.956 24.5462 117.942L27.4172 106.978C27.9741 104.851 28.0548 102.626 27.6538 100.464C27.2528 98.3018 26.3798 96.2546 25.0971 94.4682L18.4889 85.2676C17.2739 83.5767 16.4253 81.6507 15.9975 79.6129C15.5698 77.5752 15.5722 75.4705 16.0047 73.4338C16.4372 71.397 17.2902 69.473 18.5092 67.7849C19.7282 66.0968 21.2862 64.6819 23.0835 63.6307L32.8603 57.9093C34.7583 56.7984 36.3879 55.2825 37.633 53.4698C38.8781 51.657 39.7081 49.592 40.0639 47.4218L41.902 36.2459C42.238 34.1919 42.9991 32.2306 44.1365 30.4875C45.274 28.7444 46.7627 27.258 48.5075 26.1232C50.2523 24.9884 52.2147 24.2303 54.2693 23.8974C56.3239 23.5645 58.4253 23.6641 60.4392 24.1899L71.4033 27.0609C73.5308 27.6177 75.755 27.6985 77.9173 27.2975C80.0796 26.8964 82.1269 26.0235 83.9132 24.7407L93.1139 18.1326V18.1326Z" stroke="white" stroke-opacity="0.3" stroke-width="12"/>
<path d="M67.4247 84.3532L78.9476 102.089L114.419 79.0434" stroke="white" stroke-opacity="0.3" stroke-width="12" stroke-linecap="round" stroke-linejoin="round"/>
</svg>
