<svg width="94" height="105" viewBox="0 0 94 105" fill="none" xmlns="http://www.w3.org/2000/svg">
<path d="M99.7077 75.3069C96.2035 71.7999 92.109 68.9376 87.6118 66.8511C93.9538 61.7133 97.9997 53.8735 97.9997 45.0818C97.9997 29.5702 85.0638 16.8446 69.5519 17.0826C54.278 17.3206 41.9721 29.7662 41.9721 45.0818C41.9721 53.8735 46.0321 61.7133 52.36 66.8511C47.8619 68.9361 43.7672 71.7986 40.2641 75.3069C32.6201 82.9647 28.2802 93.0724 28.0002 103.852C27.9964 104.001 28.0226 104.15 28.0773 104.289C28.1319 104.428 28.2138 104.555 28.3181 104.662C28.4225 104.769 28.5473 104.854 28.685 104.912C28.8227 104.97 28.9707 105 29.1202 105H36.9601C37.5621 105 38.0661 104.524 38.0801 103.922C38.3461 95.8023 41.6361 88.2005 47.4181 82.4327C50.3768 79.4583 53.8961 77.1002 57.7723 75.495C61.6484 73.8898 65.8045 73.0693 69.9999 73.0809C78.5259 73.0809 86.5478 76.3988 92.5818 82.4327C98.3497 88.2005 101.64 95.8023 101.92 103.922C101.934 104.524 102.438 105 103.04 105H110.88C111.029 105 111.177 104.97 111.315 104.912C111.453 104.854 111.577 104.769 111.682 104.662C111.786 104.555 111.868 104.428 111.923 104.289C111.977 104.15 112.003 104.001 112 103.852C111.72 93.0724 107.38 82.9647 99.7077 75.3069ZM69.9999 63.0012C65.2119 63.0012 60.704 61.1393 57.33 57.7514C55.6367 56.0715 54.2992 54.0678 53.3972 51.8598C52.4952 49.6518 52.0473 47.2847 52.08 44.8998C52.122 40.3079 53.956 35.87 57.162 32.5801C60.522 29.1362 65.0159 27.2183 69.8179 27.1623C74.5639 27.1203 79.1699 28.9682 82.5578 32.2861C86.0298 35.688 87.9338 40.2379 87.9338 45.0818C87.9338 49.8696 86.0718 54.3635 82.6838 57.7514C81.0217 59.4215 79.0448 60.7454 76.8676 61.6465C74.6905 62.5476 72.3562 63.0081 69.9999 63.0012ZM34.9301 48.7777C34.8041 47.5597 34.7341 46.3277 34.7341 45.0818C34.7341 42.8558 34.9441 40.6859 35.3361 38.572C35.4341 38.068 35.1681 37.55 34.7061 37.34C32.8021 36.486 31.0522 35.31 29.5402 33.8261C27.7585 32.0986 26.3566 30.0188 25.4237 27.7192C24.4908 25.4197 24.0476 22.9509 24.1222 20.4705C24.2482 15.9766 26.0542 11.7067 29.2042 8.48683C32.6621 4.94494 37.3101 3.01299 42.2521 3.06899C46.7181 3.11099 51.03 4.83294 54.292 7.88485C55.398 8.92082 56.35 10.0688 57.148 11.3007C57.428 11.7347 57.974 11.9167 58.45 11.7487C60.914 10.8948 63.5179 10.2928 66.1919 10.0128C66.9759 9.92879 67.4239 9.08881 67.0739 8.38883C62.524 -0.612904 53.228 -6.82872 42.4761 -6.99672C26.9502 -7.23471 14.0143 5.49092 14.0143 20.9885C14.0143 29.7802 18.0602 37.62 24.4022 42.7578C19.9502 44.8158 15.8483 47.6577 12.2923 51.2136C4.62032 58.8714 0.280348 68.9791 0.000350082 79.7727C-0.00338657 79.9222 0.0228217 80.0708 0.0774312 80.2099C0.132041 80.3491 0.213946 80.4759 0.318322 80.5828C0.422697 80.6898 0.547432 80.7748 0.685173 80.8329C0.822915 80.8909 0.970877 80.9208 1.12034 80.9207H8.97429C9.57629 80.9207 10.0803 80.4447 10.0943 79.8427C10.3603 71.723 13.6503 64.1212 19.4322 58.3534C23.5482 54.2375 28.5882 51.3816 34.0901 49.9956C34.6361 49.8556 35.0001 49.3376 34.9301 48.7777V48.7777Z" fill="white" fill-opacity="0.35"/>
</svg>
