<svg width="31" height="32" viewBox="0 0 31 32" fill="none" xmlns="http://www.w3.org/2000/svg">
<path d="M15.508 17.5877C16.4546 17.5877 17.3799 17.3059 18.167 16.778C18.954 16.2502 19.5675 15.4999 19.9297 14.622C20.292 13.7442 20.3867 12.7783 20.2021 11.8464C20.0174 10.9145 19.5616 10.0585 18.8922 9.38661C18.2229 8.71475 17.3701 8.2572 16.4417 8.07184C15.5133 7.88647 14.551 7.98161 13.6764 8.34522C12.8019 8.70883 12.0544 9.32457 11.5285 10.1146C11.0026 10.9046 10.7219 11.8334 10.7219 12.7836C10.7219 14.0577 11.2262 15.2796 12.1237 16.1806C13.0213 17.0815 14.2386 17.5877 15.508 17.5877ZM15.508 11.1822C15.8235 11.1822 16.132 11.2762 16.3943 11.4521C16.6567 11.6281 16.8611 11.8782 16.9819 12.1708C17.1026 12.4634 17.1342 12.7854 17.0727 13.096C17.0111 13.4066 16.8592 13.692 16.6361 13.9159C16.4129 14.1399 16.1287 14.2924 15.8192 14.3542C15.5097 14.416 15.189 14.3843 14.8975 14.2631C14.6059 14.1419 14.3568 13.9366 14.1815 13.6733C14.0062 13.4099 13.9126 13.1003 13.9126 12.7836C13.9126 12.3589 14.0807 11.9516 14.3799 11.6513C14.6791 11.351 15.0849 11.1822 15.508 11.1822ZM30.8074 25.8507C30.0284 23.2573 28.6067 20.9047 26.6754 19.0129C27.7505 17.0625 28.3 14.8644 28.2696 12.6356C28.2392 10.4069 27.6301 8.22462 26.5023 6.30452C25.3745 4.38442 23.7671 2.79291 21.8389 1.68724C19.9108 0.581567 17.7286 0 15.508 0C13.2874 0 11.1052 0.581567 9.17703 1.68724C7.24888 2.79291 5.64149 4.38442 4.5137 6.30452C3.3859 8.22462 2.77672 10.4069 2.74634 12.6356C2.71597 14.8644 3.26545 17.0625 4.3405 19.0129C2.39786 20.8984 0.969682 23.2527 0.192583 25.8507C-0.015084 26.5631 -0.0554541 27.3141 0.0746415 28.0448C0.204737 28.7756 0.501759 29.4661 0.942399 30.0622C1.39135 30.6684 1.97635 31.1597 2.64992 31.4964C3.3235 31.833 4.06667 32.0055 4.81911 31.9999H26.1968C26.9466 32.003 27.6866 31.8293 28.3572 31.4927C29.0278 31.1562 29.6103 30.6662 30.0576 30.0622C30.4982 29.4661 30.7953 28.7756 30.9254 28.0448C31.0555 27.3141 31.0151 26.5631 30.8074 25.8507ZM15.508 3.17546C17.4012 3.17546 19.2518 3.73897 20.826 4.79472C22.4001 5.85048 23.627 7.35107 24.3515 9.10672C25.076 10.8624 25.2655 12.7943 24.8962 14.658C24.5268 16.5218 23.6152 18.2339 22.2765 19.5776C20.9378 20.9213 19.2322 21.8364 17.3754 22.2071C15.5186 22.5778 13.594 22.3876 11.8449 21.6604C10.0958 20.9331 8.60085 19.7016 7.54905 18.1216C6.49725 16.5415 5.93586 14.6839 5.93586 12.7836C5.93586 10.2354 6.94434 7.79149 8.73947 5.98962C10.5346 4.18774 12.9693 3.17546 15.508 3.17546ZM27.505 28.1406C27.3549 28.3468 27.1579 28.514 26.9303 28.6282C26.7027 28.7424 26.4513 28.8004 26.1968 28.7972H4.81911C4.5647 28.8004 4.31321 28.7424 4.08564 28.6282C3.85807 28.514 3.66101 28.3468 3.51092 28.1406C3.36747 27.9422 3.2713 27.7135 3.22981 27.4719C3.18832 27.2304 3.20262 26.9825 3.27162 26.7474C3.84429 24.8118 4.87306 23.0431 6.27088 21.5911C7.46277 22.8458 8.89599 23.8447 10.4838 24.5272C12.0715 25.2097 13.7808 25.5616 15.508 25.5616C17.2352 25.5616 18.9444 25.2097 20.5322 24.5272C22.12 23.8447 23.5532 22.8458 24.7451 21.5911C26.1429 23.0431 27.1717 24.8118 27.7443 26.7474C27.8133 26.9825 27.8276 27.2304 27.7861 27.4719C27.7447 27.7135 27.6485 27.9422 27.505 28.1406Z" fill="#27AE60"/>
</svg>
