<svg width="309" height="301" viewBox="0 0 309 301" fill="none" xmlns="http://www.w3.org/2000/svg">
<g clip-path="url(#clip0_377_9881)">
<path d="M196.031 67.694H113.038C111.147 67.6963 109.334 68.4495 107.997 69.7884C106.659 71.1273 105.907 72.9425 105.905 74.836V259.505L104.953 259.795L84.594 266.038C83.6291 266.332 82.587 266.231 81.6962 265.757C80.8055 265.283 80.1391 264.475 79.8432 263.509L19.2832 65.4609C18.9885 64.4949 19.0889 63.4512 19.5625 62.5593C20.036 61.6674 20.8439 61.0002 21.8085 60.7043L53.1824 51.0864L144.136 23.2135L175.51 13.5955C175.987 13.4484 176.489 13.397 176.986 13.4443C177.484 13.4915 177.967 13.6365 178.408 13.8709C178.849 14.1052 179.24 14.4245 179.558 14.8102C179.876 15.196 180.115 15.6408 180.261 16.1191L195.741 66.7417L196.031 67.694Z" fill="#F2F2F2"/>
<path d="M214.141 66.7417L195.484 5.72976C195.174 4.71318 194.667 3.76781 193.991 2.94766C193.316 2.1275 192.485 1.44865 191.548 0.949874C190.61 0.451103 189.583 0.142189 188.526 0.0407963C187.47 -0.0605961 186.403 0.0475201 185.388 0.358956L141.278 13.8764L50.3293 41.7541L6.21965 55.2764C4.17055 55.9063 2.45481 57.3245 1.44903 59.2196C0.443256 61.1148 0.229615 63.332 0.855013 65.3847L64.6202 273.898C65.1283 275.555 66.1534 277.006 67.5451 278.037C68.9369 279.068 70.622 279.625 72.3532 279.626C73.1545 279.627 73.9512 279.506 74.7167 279.269L104.954 270.004L105.905 269.708V268.713L104.954 269.004L74.4362 278.36C72.6275 278.912 70.6739 278.723 69.0041 277.835C67.3342 276.947 66.0843 275.432 65.5286 273.622L1.76831 65.1038C1.493 64.2072 1.39704 63.265 1.48594 62.3312C1.57484 61.3974 1.84683 60.4904 2.28637 59.662C2.72591 58.8336 3.32435 58.1002 4.04741 57.5037C4.77048 56.9072 5.60396 56.4593 6.50015 56.1858L50.6098 42.6635L141.559 14.7906L185.669 1.26838C186.348 1.06069 187.055 0.954795 187.766 0.954132C189.291 0.95756 190.775 1.44986 192.001 2.35893C193.226 3.268 194.129 4.54606 194.576 6.00592L213.147 66.7417L213.442 67.694H214.431L214.141 66.7417Z" fill="#3F3D56"/>
<path d="M58.8441 60.8599C57.9275 60.8592 57.0352 60.5645 56.2981 60.0189C55.5611 59.4733 55.0181 58.7057 54.7488 57.8285L48.6232 37.7966C48.4586 37.2585 48.4014 36.6933 48.4551 36.1331C48.5087 35.5729 48.672 35.0287 48.9357 34.5318C49.1994 34.0348 49.5584 33.5947 49.992 33.2366C50.4256 32.8785 50.9254 32.6094 51.4629 32.4448L135.135 6.79834C136.221 6.46672 137.393 6.57982 138.395 7.11281C139.398 7.64579 140.148 8.55511 140.481 9.6412L146.607 29.6733C146.938 30.76 146.825 31.9338 146.292 32.9372C145.76 33.9405 144.852 34.6915 143.767 35.0254L60.0946 60.6718C59.6894 60.7963 59.2679 60.8597 58.8441 60.8599Z" fill="#003895"/>
<path d="M90.9324 21.4045C96.1855 21.4045 100.444 17.1411 100.444 11.8818C100.444 6.62259 96.1855 2.35913 90.9324 2.35913C85.6793 2.35913 81.4209 6.62259 81.4209 11.8818C81.4209 17.1411 85.6793 21.4045 90.9324 21.4045Z" fill="#003895"/>
<path d="M90.9322 17.9119C94.2586 17.9119 96.9551 15.2122 96.9551 11.8819C96.9551 8.55156 94.2586 5.85181 90.9322 5.85181C87.6058 5.85181 84.9092 8.55156 84.9092 11.8819C84.9092 15.2122 87.6058 17.9119 90.9322 17.9119Z" fill="white"/>
<path d="M287.099 277.193H126.355C125.283 277.192 124.256 276.765 123.498 276.007C122.74 275.248 122.314 274.219 122.312 273.146V80.3116C122.314 79.2385 122.74 78.2098 123.498 77.4511C124.256 76.6924 125.283 76.2656 126.355 76.2644H287.099C288.171 76.2656 289.199 76.6924 289.956 77.4512C290.714 78.2099 291.141 79.2386 291.142 80.3116V273.146C291.141 274.219 290.714 275.248 289.956 276.007C289.199 276.765 288.171 277.192 287.099 277.193Z" fill="#E6E6E6"/>
<path d="M213.148 66.7417H113.039C110.896 66.7447 108.841 67.5985 107.325 69.1158C105.81 70.6331 104.957 72.6902 104.954 74.836V269.004L105.905 268.713V74.836C105.908 72.9425 106.66 71.1273 107.997 69.7884C109.335 68.4495 111.148 67.6963 113.039 67.694H213.442L213.148 66.7417ZM300.416 66.7417H113.039C110.896 66.7447 108.841 67.5985 107.325 69.1158C105.81 70.6331 104.957 72.6902 104.954 74.836V292.906C104.957 295.052 105.81 297.109 107.325 298.626C108.841 300.143 110.896 300.997 113.039 301H300.416C302.559 300.997 304.614 300.143 306.129 298.626C307.645 297.109 308.497 295.052 308.5 292.906V74.836C308.497 72.6902 307.645 70.6331 306.129 69.1158C304.614 67.5985 302.559 66.7447 300.416 66.7417ZM307.549 292.906C307.547 294.799 306.795 296.615 305.457 297.953C304.12 299.292 302.307 300.046 300.416 300.048H113.039C111.148 300.046 109.335 299.292 107.997 297.953C106.66 296.615 105.908 294.799 105.905 292.906V74.836C105.908 72.9425 106.66 71.1273 107.997 69.7884C109.335 68.4495 111.148 67.6963 113.039 67.694H300.416C302.307 67.6963 304.12 68.4495 305.457 69.7884C306.795 71.1273 307.547 72.9425 307.549 74.836V292.906Z" fill="#3F3D56"/>
<path d="M250.479 87.6915H162.974C161.839 87.6902 160.751 87.2383 159.948 86.435C159.146 85.6316 158.695 84.5424 158.693 83.4063V62.4564C158.695 61.3202 159.146 60.231 159.948 59.4277C160.751 58.6243 161.839 58.1724 162.974 58.1711H250.479C251.614 58.1724 252.702 58.6243 253.505 59.4277C254.307 60.231 254.758 61.3202 254.76 62.4564V83.4063C254.758 84.5424 254.307 85.6316 253.505 86.435C252.702 87.2383 251.614 87.6902 250.479 87.6915Z" fill="#003895"/>
<path d="M206.726 59.5996C211.979 59.5996 216.238 55.3361 216.238 50.0769C216.238 44.8177 211.979 40.5542 206.726 40.5542C201.473 40.5542 197.215 44.8177 197.215 50.0769C197.215 55.3361 201.473 59.5996 206.726 59.5996Z" fill="#003895"/>
<path d="M206.727 55.877C209.927 55.877 212.52 53.2802 212.52 50.0768C212.52 46.8735 209.927 44.2766 206.727 44.2766C203.527 44.2766 200.934 46.8735 200.934 50.0768C200.934 53.2802 203.527 55.877 206.727 55.877Z" fill="white"/>
</g>
<defs>
<clipPath id="clip0_377_9881">
<rect width="308" height="301" fill="white" transform="translate(0.5)"/>
</clipPath>
</defs>
</svg>
