<?xml version="1.0" encoding="UTF-8"?> <!-- Generator: Adobe Illustrator 24.0.2, SVG Export Plug-In . SVG Version: 6.00 Build 0) --> <svg xmlns="http://www.w3.org/2000/svg" xmlns:xlink="http://www.w3.org/1999/xlink" version="1.1" id="Modo_de_isolamento" x="0px" y="0px" viewBox="0 0 1031.6 818.9" style="enable-background:new 0 0 1031.6 818.9;" xml:space="preserve"> <style type="text/css"> .st0{fill:#F4F4F4;} .st1{fill:#E5E4E4;} .st2{fill:#00A1DA;} .st3{fill:#007BB3;} .st4{fill:#003E53;} .st5{fill:#FFFFFF;} .st6{fill-rule:evenodd;clip-rule:evenodd;fill:#005B80;} .st7{fill-rule:evenodd;clip-rule:evenodd;fill:#003E53;} .st8{fill-rule:evenodd;clip-rule:evenodd;fill:#00A1DA;} .st9{fill-rule:evenodd;clip-rule:evenodd;fill:#007BB3;} .st10{opacity:0.78;fill-rule:evenodd;clip-rule:evenodd;fill:#F4F4F4;} .st11{fill:#E3745B;} .st12{fill:#BB5E4A;} .st13{fill-rule:evenodd;clip-rule:evenodd;fill:none;stroke:#003E53;stroke-width:2;stroke-miterlimit:10;} .st14{fill-rule:evenodd;clip-rule:evenodd;fill:#FFFFFF;} .st15{fill-rule:evenodd;clip-rule:evenodd;fill:none;stroke:#1F3B78;stroke-width:2.546;stroke-linecap:round;stroke-miterlimit:10;} .st16{fill:#506BB1;} .st17{fill:#5A76B9;} .st18{fill:none;stroke:#1F3B78;stroke-width:2.546;stroke-linecap:round;stroke-miterlimit:10;} .st19{fill:#5772B6;} .st20{fill:none;stroke:#AC4B36;stroke-width:2;stroke-linecap:round;stroke-linejoin:round;stroke-miterlimit:10;} .st21{fill-rule:evenodd;clip-rule:evenodd;fill:none;stroke:#8196CD;stroke-width:1.6974;stroke-linecap:round;stroke-miterlimit:10;} .st22{fill:none;stroke:#003E53;stroke-width:2;stroke-miterlimit:10;} .st23{fill:none;stroke:#8196CD;stroke-width:1.6974;stroke-linecap:round;stroke-miterlimit:10;} .st24{fill-rule:evenodd;clip-rule:evenodd;fill:none;stroke:#AC4B36;stroke-width:2;stroke-linecap:round;stroke-linejoin:round;stroke-miterlimit:10;} .st25{fill-rule:evenodd;clip-rule:evenodd;fill:none;stroke:#FFFFFF;stroke-width:2.1289;stroke-linecap:round;stroke-linejoin:round;stroke-miterlimit:10;} .st26{fill:#005B80;} </style> <path class="st0" d="M899.3,730.8H147.4C50.8,589.3,17.1,428.9,52.3,395.4c48.1-45.8,181.8,132,228.8,100.6 c134.4-90-121.1-368.2-32.5-402.2c81.6-31.2,143.5,223.7,213.6,152.1c48.6-49.7,4.3-130.5,13.2-193.2 C489.5-47,611.3,4.1,718.3,253.2c45.1,105,106.9-91.1,157.2-114.2c46.8-21.4,123.5,112.8,122.1,293 C996.9,524.6,967.5,630.8,899.3,730.8z"></path> <g> <path class="st1" d="M1011.6,380.7l-0.8-1.3c2-1.3,3.1-2,3.1-2.1l0.9,1.2C1014.7,378.6,1013.6,379.4,1011.6,380.7z"></path> <path class="st1" d="M940.5,403.5l0-1.5c2.4,0,4.9-0.1,7.4-0.3l0.1,1.5C945.6,403.4,943,403.5,940.5,403.5z M933,403.2 c-2.5-0.2-5.1-0.5-7.5-1l0.3-1.5c2.4,0.4,4.9,0.7,7.4,0.9L933,403.2z M955.6,402.3l-0.2-1.5c2.4-0.4,4.9-0.8,7.3-1.4l0.3,1.5 C960.5,401.4,958,401.9,955.6,402.3z M918.1,400.5c-2.4-0.7-4.9-1.5-7.2-2.4l0.6-1.4c2.3,0.9,4.7,1.7,7,2.3L918.1,400.5z M970.4,399.1l-0.4-1.5c2.3-0.7,4.7-1.4,7.1-2.2l0.5,1.4C975.2,397.7,972.7,398.4,970.4,399.1z M904,395.1c-2.3-1.1-4.6-2.1-6.8-3 l0.6-1.4c2.3,1,4.6,2,6.9,3.1L904,395.1z M984.6,394.2l-0.6-1.4c2.3-0.9,4.6-1.9,6.9-2.9l0.6,1.4 C989.3,392.3,987,393.3,984.6,394.2z M890.2,389.3c-2.4-0.9-4.7-1.7-7.1-2.4l0.4-1.4c2.4,0.7,4.8,1.5,7.2,2.4L890.2,389.3z M998.4,388.1l-0.7-1.4c2.2-1.1,4.5-2.3,6.6-3.5l0.7,1.3C1002.9,385.7,1000.7,386.9,998.4,388.1z M875.9,385 c-2.4-0.6-4.9-1.1-7.3-1.6l0.3-1.5c2.4,0.4,4.9,1,7.4,1.6L875.9,385z M824.3,384.6l-0.4-1.5c2.4-0.7,4.9-1.2,7.4-1.7l0.3,1.5 C829.1,383.5,826.7,384,824.3,384.6z M861.3,382.3c-2.5-0.3-5-0.5-7.4-0.6l0.1-1.5c2.5,0.1,5,0.3,7.5,0.6L861.3,382.3z M839,382 l-0.1-1.5c2.5-0.2,5-0.4,7.6-0.4l0,1.5C843.9,381.6,841.4,381.7,839,382z"></path> <path class="st1" d="M813.9,388.5l-0.7-1.3c0,0,1.2-0.7,3.5-1.6l0.6,1.4C815.1,387.9,813.9,388.5,813.9,388.5z"></path> </g> <g> <g> <path class="st2" d="M1023.8,361.7l-17.6,36.5l-12.3-9.6l29.2-26.6c0,0,0-0.1,0-0.1l-39,19l-9.6-7.5l49.1-12 C1023.7,361.4,1023.8,361.6,1023.8,361.7z"></path> <path class="st2" d="M1006.5,399.4l-13.8-10.7l26.2-23.8l-34.9,17l-11.2-8.7l50.6-12.4c0.3-0.1,0.7,0,0.9,0.3 c0.2,0.3,0.3,0.6,0.1,1L1006.5,399.4z M995.1,388.6l10.9,8.5l15.7-32.6L995.1,388.6z M976.2,373.9l8,6.2l33.6-16.4L976.2,373.9z"></path> </g> <g> <path class="st3" d="M1023.2,362l-29.2,26.6l-8.1,7.3c-0.6,0.6-1.7,0.1-1.7-0.7l0-14.2v0L1023.2,362 C1023.2,361.9,1023.2,362,1023.2,362z"></path> <path class="st3" d="M985.2,397c-0.2,0-0.5-0.1-0.7-0.2c-0.6-0.3-1-0.9-1.1-1.6l0-14.7l0.4-0.2l39.6-19.3l0.8,1.1l-0.5,0.5 l-37.3,33.9C986,396.8,985.6,397,985.2,397z M984.9,381.5l0,13.7c0,0.1,0.1,0.2,0.1,0.2c0.1,0,0.2,0,0.3,0l33.6-30.5L984.9,381.5z "></path> </g> </g> <path class="st0" d="M715.4,103.9c0.8-7,2.8-11.8,7.7-14.4c14.4-7.8,50.5,4.9,65.5,24.4c20.9,27.2,1.8,69.1-18.5,71.8 C746.4,188.8,711.4,140.1,715.4,103.9z"></path> <g> <g> <g> <path class="st2" d="M29.7,328.2C25.1,349.6,17,370,11.4,391.1c-2.7,10.2-5,20.6-5.5,31.2c-0.5,9.4,0.5,18.9,2.9,28 c2.3,8.7,5.9,17,10.7,24.7c5,8.1,11.4,14.8,18.2,21.5c6.5,6.4,12.9,13.4,14.4,22.8c0.7,4.4,0.2,9.1-2.2,12.9 c-2.1,3.2-5.2,5.4-8.7,6.8c-7,2.8-14.6,3.3-21.6,6c-6.7,2.6-11.9,7.4-14.8,14c-5.1,11.6-2.6,25.3,4.5,35.5 c5.9,8.5,13.6,16,21.9,22.2c11.1,8.4,23.9,14.8,37.6,17.8c15.3,3.3,31.8,2.5,46.4-3.2c14.1-5.5,28.1-14.9,36.6-27.6 c3.7-5.6,6.3-12,6.2-18.8c-0.1-8.1-2.9-16-6.3-23.2c-6.7-14.3-17.2-28.5-17.1-45c0.2-19.6,15.3-34.4,25.1-49.9 c5-8,9.4-17,10.1-26.5c0.6-7.9-1.7-15.6-6.4-21.9c-8.6-11.6-22.3-18.1-33.4-26.9c-6.1-4.9-11.5-10.6-15-17.6 c-4.2-8.4-5.9-17.7-6.7-27c-1.7-18.9,0.8-39.2-7-57c-3.4-7.8-9.5-14.9-17.8-17.5c-8.3-2.6-17.2-0.5-24.4,4.1 c-10.2,6.6-17,17.3-21.7,28.2C33.8,312.1,31.5,320.1,29.7,328.2c-0.2,1,2.7,0.5,2.9-0.4c3.2-14.5,8.2-29.4,17.6-41.1 c5.6-7,13.5-13.5,22.9-14.1c8-0.5,15.4,3.6,20.3,9.8c3.3,4.2,5.5,9.1,7,14.2c2.9,9.7,3.5,19.8,3.9,29.8 c0.6,18.1,0.3,37.8,10.8,53.4c8.2,12.1,21.7,18.9,33.1,27.5c5.3,4,10.5,8.6,14,14.3c4.5,7.2,5.6,15.7,3.9,24 c-4,19.1-19.1,32.7-28.1,49.3c-4,7.5-6.8,15.7-6.4,24.4c0.4,7.9,3.2,15.5,6.6,22.6c6.6,13.8,16.7,27.7,16.8,43.7 c0.1,14.9-12.2,27.4-23.7,35.3c-6.3,4.3-13.1,7.9-20.4,10.3c-7.6,2.6-15.7,3.6-23.7,3.5c-26.8-0.2-52-14.3-69.5-34.1 c-2.6-3-5.1-6.1-7.3-9.5c-3.4-5.4-5.3-11.7-5.5-18c-0.3-7,1.4-14.3,5.7-19.9c4.7-6.1,11.7-8.2,18.9-9.8 c6.8-1.6,14.4-2.9,19.8-7.8c6.1-5.5,7-13.9,4.6-21.4c-2.7-8.6-9.4-14.9-15.7-21.1c-6.7-6.5-12.8-13.5-17.5-21.7 c-9.2-16-13.4-34.6-11.9-53c0.9-10.6,3.3-21,6.2-31.2c2.8-10.1,5.9-20.1,9.1-30c3.1-9.8,6.2-19.6,8.4-29.6 C32.8,326.8,29.9,327.3,29.7,328.2z"></path> </g> </g> <rect x="83.9" y="415" class="st2" width="2.4" height="262.2"></rect> <path class="st2" d="M86.3,490.7l-2.4-0.4c3.9-23.7,30.9-38.5,32-39.1l1.1,2.1C116.8,453.5,90,468.2,86.3,490.7z"></path> <path class="st2" d="M83.9,594c-2.6-16-21.7-26.5-21.9-26.6l1.1-2.1c0.8,0.4,20.3,11.1,23.2,28.3L83.9,594z"></path> <path class="st3" d="M84.9,723L84.9,723c-24,0-43.4-19.5-43.4-43.4v-11.5h86.9v11.5C128.3,703.6,108.9,723,84.9,723z"></path> <path class="st4" d="M56.8,720.7c-10.3-5.4-16.6-15.9-16.6-27.5v-9.2h2.4v9.2c0,10.7,5.9,20.4,15.3,25.4L56.8,720.7z"></path> <rect x="41.4" y="675.9" class="st5" width="86.9" height="2.4"></rect> <rect x="73" y="666.9" class="st4" width="55.3" height="2.4"></rect> <g> <path class="st4" d="M85.9,724.2h55.7H85.9z"></path> <rect x="85.9" y="723" class="st4" width="55.7" height="2.4"></rect> </g> </g> <g> <g> <rect x="888.1" y="222.8" class="st1" width="1.8" height="5.1"></rect> <rect x="888.1" y="253.4" class="st1" width="1.8" height="5.1"></rect> </g> <g> <rect x="880.4" y="224.8" transform="matrix(0.866 -0.5 0.5 0.866 4.3633 471.077)" class="st1" width="1.8" height="5.1"></rect> <rect x="895.7" y="251.4" transform="matrix(0.866 -0.5 0.5 0.866 -6.8511 482.2909)" class="st1" width="1.8" height="5.1"></rect> </g> <g> <rect x="874.8" y="230.4" transform="matrix(0.5 -0.866 0.866 0.5 236.0517 874.8675)" class="st1" width="1.8" height="5.1"></rect> <rect x="901.3" y="245.8" transform="matrix(0.5 -0.866 0.866 0.5 236.0411 905.4966)" class="st1" width="1.8" height="5.1"></rect> </g> <g> <rect x="871.1" y="239.8" class="st1" width="5.1" height="1.8"></rect> <rect x="901.7" y="239.8" class="st1" width="5.1" height="1.8"></rect> </g> <g> <rect x="873.1" y="247.4" transform="matrix(0.8661 -0.4999 0.4999 0.8661 -6.8655 471.0184)" class="st1" width="5.1" height="1.8"></rect> <rect x="899.7" y="232.1" transform="matrix(0.8661 -0.4999 0.4999 0.8661 4.3528 482.254)" class="st1" width="5.1" height="1.8"></rect> </g> <g> <rect x="878.8" y="253" transform="matrix(0.4999 -0.8661 0.8661 0.4999 220.7992 890.2573)" class="st1" width="5.1" height="1.8"></rect> <rect x="894.1" y="226.5" transform="matrix(0.4999 -0.8661 0.8661 0.4999 251.4397 890.2537)" class="st1" width="5.1" height="1.8"></rect> </g> </g> <path class="st3" d="M269.2,283.5v1.5c0,2.4,2,4.4,4.4,4.4h0c2.4,0,4.4-2,4.4-4.4v-1.5c0-1.9,1.2-3.5,2.9-4.1 c0.7-0.3,1.4-0.6,2.1-0.9c1.7-0.8,3.7-0.5,5,0.8l1.3,1.3c1.7,1.7,4.5,1.7,6.2,0l0,0c1.7-1.7,1.7-4.5,0-6.2l-1.3-1.3 c-1.3-1.3-1.7-3.4-0.8-5c0.3-0.7,0.6-1.4,0.9-2.1c0.6-1.8,2.3-2.9,4.1-2.9h1.5c2.4,0,4.4-2,4.4-4.4v0c0-2.4-2-4.4-4.4-4.4h-1.5 c-1.9,0-3.5-1.2-4.1-2.9c-0.3-0.7-0.6-1.4-0.9-2.1c-0.8-1.7-0.5-3.7,0.8-5l1.3-1.3c1.7-1.7,1.7-4.5,0-6.2l0,0 c-1.7-1.7-4.5-1.7-6.2,0l-1.3,1.3c-1.3,1.3-3.4,1.7-5,0.8c-0.7-0.3-1.4-0.6-2.1-0.9c-1.8-0.6-2.9-2.3-2.9-4.1V232 c0-2.4-2-4.4-4.4-4.4h0c-2.4,0-4.4,2-4.4,4.4v1.5c0,1.9-1.2,3.5-2.9,4.1c-0.7,0.3-1.4,0.6-2.1,0.9c-1.7,0.8-3.7,0.5-5-0.8l-1.3-1.3 c-1.7-1.7-4.5-1.7-6.2,0l0,0c-1.7,1.7-1.7,4.5,0,6.2l1.3,1.3c1.3,1.3,1.7,3.4,0.8,5c-0.3,0.7-0.6,1.4-0.9,2.1 c-0.6,1.8-2.3,2.9-4.1,2.9h-1.5c-2.4,0-4.4,2-4.4,4.4v0c0,2.4,2,4.4,4.4,4.4h1.5c1.9,0,3.5,1.2,4.1,2.9c0.3,0.7,0.6,1.4,0.9,2.1 c0.8,1.7,0.5,3.7-0.8,5l-1.3,1.3c-1.7,1.7-1.7,4.5,0,6.2v0c1.7,1.7,4.5,1.7,6.2,0l1.3-1.3c1.3-1.3,3.4-1.7,5-0.8 c0.7,0.3,1.4,0.6,2.1,0.9C268,280,269.2,281.6,269.2,283.5z M271.9,245.4c8.7-1.1,16,6.2,14.9,14.9c-0.8,5.9-5.5,10.7-11.4,11.4 c-8.6,1.1-16-6.2-14.9-14.9C261.3,250.9,266,246.2,271.9,245.4z"></path> <g> <path class="st6" d="M754.1,129.9c-3.3,3.7-5.3,9.2-4.7,16.8c0.5,6.2,3.6,11.8,7,14.7c1.9-1.2,35.5-34.6,37.3-37.6 c8.4-13.8,0.8-29.3-6.4-32.4C789.4,99.5,760.4,122.6,754.1,129.9"></path> <path class="st7" d="M759,95.7c4.3,5.4,9.2,10.5,15.1,14.9c2.7-2.5,14.7-12.3,15.5-17.6c-2.6-3-8.3-4.6-13.5-4.7 C769.2,88.2,763.7,90.7,759,95.7"></path> <path class="st8" d="M771.9,79.2c3.3-3.7,5.3-9.2,4.7-16.8c-0.5-6.2-3.6-11.8-7-14.7c-1.9,1.2-35.5,34.6-37.3,37.6 c-8.4,13.8-0.8,29.3,6.4,32.4C736.7,109.6,765.6,86.6,771.9,79.2"></path> <path class="st9" d="M767,113.4c-4.3-5.4-9.2-10.5-15.1-14.9c-2.7,2.5-14.7,12.3-15.5,17.6c2.6,3,8.3,4.6,13.5,4.7 C756.8,120.9,762.3,118.4,767,113.4"></path> </g> <g> <ellipse class="st4" cx="580.5" cy="407.3" rx="19" ry="21.3"></ellipse> <path class="st10" d="M528.8,600.6c0,0,40.4-209.7,224.2-192.2c117.5,11.2,197.4,334.4-29.6,341.5 C270.5,763.9,444.8,742.7,528.8,600.6z"></path> <path class="st11" d="M538.7,692.1L538.7,692.1c-13.4-3.1-21.8-16.7-18.6-30.1l30.5-130.3c3.1-13.4,16.7-21.8,30.1-18.6h0 c13.4,3.1,21.8,16.7,18.6,30.1l-30.5,130.3C565.6,686.8,552.1,695.2,538.7,692.1z"></path> <polygon class="st12" points="534.4,600.8 575.9,643 585.9,603.3 "></polygon> <path class="st11" d="M399.4,708.3l127.4-59.8l41.5,27.1c0,0-6.9,37.9-144.5,57.5L399.4,708.3z"></path> <path class="st7" d="M591.3,689.6c-19,19.1-60.8,39.9-60.8,59.4l172.1,4.6c0,0,11.9,2.6,28.4,0c15.9-2.5-15.3-81.9-15.3-81.9 L591.3,689.6z"></path> <path class="st9" d="M502.2,467.5h-114c-13.8,0-25-11.2-25-25v-37.4c0-13.8,11.2-25,25-25h114c13.8,0,25,11.2,25,25v37.4 C527.2,456.3,516,467.5,502.2,467.5z"></path> <path class="st13" d="M467.2,489.4L467.2,489.4c0.9-2.6,1.4-5.4,1.4-8.3v-37.2c0-13.9-11.3-25.1-25.1-25.1H329.7 c-13.9,0-25.1,11.3-25.1,25.1v37.2c0,13.9,11.3,25.1,25.1,25.1h113.8l22.3,12.2c3.4,1.8,7.3-1.1,6.5-4.9L467.2,489.4z"></path> <circle class="st8" cx="342.4" cy="461.7" r="20.8"></circle> <line class="st13" x1="371.2" y1="450.7" x2="453.3" y2="450.7"></line> <line class="st13" x1="371.2" y1="473.3" x2="428.6" y2="473.3"></line> <g> <path class="st14" d="M702.7,753.5H480v-14.1h213.9c4.8,0,8.7,3.9,8.7,8.7V753.5z"></path> <path class="st14" d="M536.7,753.5H281.1l-85-167.5l5.5-7.5c2.2-3,5.8-4.8,9.5-4.8h238.5c3.6,0,6.8,2.2,8.4,5.6L536.7,753.5z"></path> <path class="st8" d="M525.6,753.5H270l-73.6-163.9c-1.7-3.7,1.1-7.9,5.1-7.9h243.2c2.2,0,4.2,1.3,5.1,3.3L525.6,753.5z"></path> <ellipse transform="matrix(0.3645 -0.9312 0.9312 0.3645 -407.0304 748.396)" class="st14" cx="344.8" cy="672.4" rx="18.3" ry="25.5"></ellipse> <path class="st15" d="M539.3,747.2c0,1.9-1.6,3.5-3.5,3.5c-1.9,0-3.5-1.6-3.5-3.5c0-1.9,1.6-3.5,3.5-3.5 C537.7,743.7,539.3,745.3,539.3,747.2z"></path> <line class="st15" x1="645.3" y1="746.5" x2="664.1" y2="746.5"></line> <line class="st15" x1="673.6" y1="746.5" x2="692.4" y2="746.5"></line> </g> <path class="st16" d="M708.8,492.5c-36.7,10.8-72.8,9.1-108.4-4.9c0,0-46.2,26-41.7,83c1.4,17.4,15.5,27.4,23.5,35.2 c4.3,31.8,5,64.3-2.5,86.3c-14.3,55.3,60.2,32.1,131.4,8.4c0,0,27.6-106.9,31.1-121C755.6,525.2,708.8,492.5,708.8,492.5z"></path> <path class="st4" d="M656.5,360.2c0,0,24.6,26.8,15,46.9c-9.7,20.1-13.3,40.2-26.4,32.5c-13.1-7.7-18.2-94.9-18.2-94.9L656.5,360.2 z"></path> <path class="st11" d="M653.4,508.7l-3.3,0.8c-10.2,2.3-34.5-1.8-37-13c18.5-9.6,6.7-46.5-4.2-82c-2.5-11.1,3.7-22.1,13.9-24.5 l3.3-0.8c10.2-2.3,25.3,7.8,27.8,18.9c8.3,33.2,9.4,62.5,29.7,69.4C686.3,488.7,663.6,506.4,653.4,508.7z"></path> <path class="st11" d="M706.3,553.5L557,539.8c0-20.9,7.5-62.2,56.2-63.4l63.5-0.5l39.3,9.1C735.2,485,725.5,553.6,706.3,553.5z"></path> <path class="st12" d="M618.5,447.5c0,0,4.5-0.9,5.9-1.5c1.4-0.6,19.6-10.7,19.6-10.7s-6.8,25.1-22.2,28.5 C621.8,463.8,619.4,451,618.5,447.5z"></path> <path class="st7" d="M644.6,332.5c0,0,20-20.9,41.9-11.8c21.9,9.1,11,28,36.9,38c43,16.6,30.8,57.4,15.3,66.6 c-27.6,16.3-44.1,1.4-47.9-14.9c-3.8-16.3,1.2-56.7-20.6-52.2C648.4,362.6,642,360,644.6,332.5z"></path> <path class="st11" d="M603.8,455.6c-10.6-5.9-20.1-21.7-22-39L577,387c-2.4-22.2,11.7-42.1,31.2-44.2l2-0.2 c19.6-2.1,37.5,14.4,39.9,36.6l3.9,36c1.9,17.4-20.7,29.2-28.8,38C621.1,457.6,606.8,457.3,603.8,455.6z"></path> <path class="st4" d="M562.9,375.4c-2.3,10.6,10.6,17.6,18.4,10c3.7-3.6,8.1-5.9,11.8-8.6c21.5-15.5,46.7-5.3,44.6-13.2l-23.2-26.3 c0,0-20-12-38.2,9.6C569,355.8,565,365.9,562.9,375.4z"></path> <path class="st7" d="M604.3,334.2c0,0,25.3-20.5,55.7-0.1c30.4,20.4,13.1,68.5,13.1,68.5s-39.4-9.9-42-30.1 c-2.6-20.1-30.6-27.8-30.6-27.8L604.3,334.2z"></path> <path class="st17" d="M664,405c-1.2,6.7-5.5,11-9.6,9.7c-4.2-1.3-6.6-7.8-5.5-14.5s5.5-11,9.6-9.7C662.7,391.8,665.2,398.3,664,405 z"></path> <path class="st4" d="M585.5,398.9c2.3-0.5,4.5-0.7,6.8-0.5c1,0.1,1.8-0.8,1.7-1.7l0,0c0-0.8-0.6-1.5-1.4-1.6 c-2.7-0.3-5.3-0.1-7.8,0.6c-0.8,0.2-1.3,1-1.2,1.9l0,0C583.6,398.4,584.5,399.1,585.5,398.9z"></path> <path class="st4" d="M615.4,396.2c3.1-0.5,6-0.8,9-0.7c1.3,0,2.3-0.8,2.4-1.8l0,0c0-0.8-0.8-1.5-1.9-1.6c-3.5-0.3-7,0-10.4,0.8 c-1.1,0.2-1.8,1.1-1.7,1.9l0,0C613,395.8,614.2,396.4,615.4,396.2z"></path> <path class="st4" d="M622.2,405c0.3,1.9-0.6,3.5-1.8,3.7c-1.3,0.2-2.5-1.2-2.8-3c-0.3-1.9,0.6-3.5,1.8-3.7 C620.7,401.8,622,403.1,622.2,405z"></path> <path class="st4" d="M592.5,408.4c0.3,1.9-0.6,3.5-1.8,3.7c-1.3,0.2-2.5-1.2-2.8-3c-0.3-1.8,0.6-3.5,1.8-3.7 C591,405.2,592.2,406.5,592.5,408.4z"></path> <path class="st15" d="M654.1,402.6c0,0,0.6-6.9,4.5-5.8"></path> <path class="st3" d="M622.6,471c0,0-9.7-4.6-14.2,2.9l-25.3,7.4c-13.4,3.9-24,14.2-28.3,27.5L530.6,599c17.4,6.9,34.4,7.3,50.8,0 L622.6,471z"></path> <path class="st3" d="M622.6,471c0,0-1.3,36.8,22.7,36.8c24,0,25.6-40.4,25.6-40.4l30.4,28.2l12.2,70.2l15.4,65.7v83.2H579.2v-90.9 c0,0-32.1-21-20.8-61.6C569.7,521.7,622.6,471,622.6,471z"></path> <path class="st11" d="M754.9,698.4L754.9,698.4c-15.4,1.3-29.1-10.2-30.4-25.6l-11-127.2c-1.3-15.4,10.2-29.1,25.6-30.4h0 c15.4-1.3,29.1,10.2,30.4,25.6l11,127.2C781.8,683.4,770.3,697.1,754.9,698.4z"></path> <path class="st18" d="M626.8,515.3c0,0,14.5,22.6,36.1,0"></path> <path class="st18" d="M558.9,585.3c0,0-3.8-17.8,16.9-37.5c4.5-4.3,6.9-22.6,6.9-22.6"></path> <ellipse class="st19" cx="583.5" cy="632.1" rx="8.5" ry="11.7"></ellipse> <ellipse class="st19" cx="586.7" cy="705.8" rx="15.5" ry="13.5"></ellipse> <path class="st11" d="M551.5,739.4c-1.4,0,4.5-26.7,46.4-26.7c38.2,0,34.8,26.7,34.8,26.7H551.5z"></path> <path class="st18" d="M579.2,623.8c0,0-9.7,9,0,20v46.3c0,0-10.3,8.6-8,15.6"></path> <path class="st18" d="M606.3,474.9c0,0-0.6,5.7,2.9,9.2"></path> <polygon class="st12" points="718.7,603.5 776.9,627.6 773.9,593 "></polygon> <path class="st3" d="M670.9,467.4c0,0,12.5-3.1,18.5,8.2l30.2,6.3c22.9,5.1,41.6,21.6,49.4,43.7l11.5,65.5 c-23.9,7.4-46.2,18.1-63.5,11.5l-28.3-112.5L670.9,467.4z"></path> <line class="st18" x1="712.1" y1="558.2" x2="717.1" y2="602.6"></line> <path class="st18" d="M689.6,474.7c0,0-0.5,4.9-2.2,8.2"></path> <path class="st18" d="M199.3,581.7c0,0,3.5-8,11.8-8c8.4,0,238.5,0,238.5,0"></path> <path class="st20" d="M602.5,406.1c0,0-2,8.8-3.5,13.8c-1.6,5.4,2.6,6.8,7.1,6.5"></path> <path class="st21" d="M646.1,327.3c0,0,21.5,1.8,30.2,30.8"></path> <path class="st22" d="M576.8,383.8c0.5,0,50.5-2.3,55.9-27"></path> <path class="st18" d="M701.4,341.2c0,0,10.7,11.7,27.5,9.6c16.8-2.1,37.2,25.7,20.7,44"></path> <path class="st20" d="M556,738.4l6.8-7.3c5.5-7.3,17.7-8.8,17.7-8.8"></path> <path class="st20" d="M565,738.4l9.7-7c4.9-3.5,10.7-5.6,16.7-6l0,0"></path> <path class="st20" d="M521.5,651.3c0,0,7.9-3.2,14.1,0"></path> <path class="st23" d="M606.1,336.6c0,0-23.2-2.7-37,35.6"></path> <path class="st23" d="M635.7,361.4c0,0,3.7,21.4,19.8,26.4"></path> <path class="st18" d="M606.3,474.4l-25.3,7.4c-13.4,3.9-24,14.2-28.3,27.5l-24.2,90.2"></path> <path class="st4" d="M580.5,491.8c0,1.3-1,2.3-2.3,2.3c-1.3,0-2.3-1-2.3-2.3c0-1.3,1-2.3,2.3-2.3 C579.5,489.5,580.5,490.5,580.5,491.8z"></path> <path class="st4" d="M610.5,491.8c0,1.3-1,2.3-2.3,2.3s-2.3-1-2.3-2.3c0-1.3,1-2.3,2.3-2.3S610.5,490.5,610.5,491.8z"></path> <path class="st4" d="M671,491.8c0,1.3-1,2.3-2.3,2.3c-1.3,0-2.3-1-2.3-2.3c0-1.3,1-2.3,2.3-2.3C669.9,489.5,671,490.5,671,491.8z"></path> <path class="st4" d="M701,491.8c0,1.3-1,2.3-2.3,2.3c-1.3,0-2.3-1-2.3-2.3c0-1.3,1-2.3,2.3-2.3C700,489.5,701,490.5,701,491.8z"></path> <path class="st4" d="M731.1,491.8c0,1.3-1,2.3-2.3,2.3c-1.3,0-2.3-1-2.3-2.3c0-1.3,1-2.3,2.3-2.3 C730.1,489.5,731.1,490.5,731.1,491.8z"></path> <path class="st4" d="M682.5,475.9c0,1.3-1,2.3-2.3,2.3s-2.3-1-2.3-2.3s1-2.3,2.3-2.3S682.5,474.7,682.5,475.9z"></path> <path class="st4" d="M620,478.2c0,1.3-1,2.3-2.3,2.3s-2.3-1-2.3-2.3c0-1.3,1-2.3,2.3-2.3S620,477,620,478.2z"></path> <path class="st4" d="M580.5,521.7c0,1.3-1,2.3-2.3,2.3c-1.3,0-2.3-1-2.3-2.3c0-1.3,1-2.3,2.3-2.3 C579.5,519.4,580.5,520.4,580.5,521.7z"></path> <path class="st4" d="M610.5,521.7c0,1.3-1,2.3-2.3,2.3s-2.3-1-2.3-2.3c0-1.3,1-2.3,2.3-2.3S610.5,520.4,610.5,521.7z"></path> <path class="st4" d="M671,521.7c0,1.3-1,2.3-2.3,2.3c-1.3,0-2.3-1-2.3-2.3c0-1.3,1-2.3,2.3-2.3C669.9,519.4,671,520.4,671,521.7z"></path> <path class="st4" d="M701,521.7c0,1.3-1,2.3-2.3,2.3c-1.3,0-2.3-1-2.3-2.3c0-1.3,1-2.3,2.3-2.3C700,519.4,701,520.4,701,521.7z"></path> <path class="st4" d="M731.1,521.7c0,1.3-1,2.3-2.3,2.3c-1.3,0-2.3-1-2.3-2.3c0-1.3,1-2.3,2.3-2.3 C730.1,519.4,731.1,520.4,731.1,521.7z"></path> <path class="st4" d="M761.3,521.7c0,1.3-1,2.3-2.3,2.3s-2.3-1-2.3-2.3c0-1.3,1-2.3,2.3-2.3S761.3,520.4,761.3,521.7z"></path> <path class="st4" d="M565.5,507.1c0,1.3-1,2.3-2.3,2.3c-1.3,0-2.3-1-2.3-2.3c0-1.3,1-2.3,2.3-2.3 C564.4,504.8,565.5,505.8,565.5,507.1z"></path> <path class="st4" d="M595.5,507.1c0,1.3-1,2.3-2.3,2.3s-2.3-1-2.3-2.3c0-1.3,1-2.3,2.3-2.3S595.5,505.8,595.5,507.1z"></path> <path class="st4" d="M655.9,508.7c0,1.3-1,2.3-2.3,2.3s-2.3-1-2.3-2.3c0-1.3,1-2.3,2.3-2.3S655.9,507.4,655.9,508.7z"></path> <path class="st4" d="M625.7,507.1c0,1.3-1,2.3-2.3,2.3s-2.3-1-2.3-2.3c0-1.3,1-2.3,2.3-2.3S625.7,505.8,625.7,507.1z"></path> <path class="st4" d="M686,507.1c0,1.3-1,2.3-2.3,2.3c-1.3,0-2.3-1-2.3-2.3c0-1.3,1-2.3,2.3-2.3C685,504.8,686,505.8,686,507.1z"></path> <path class="st4" d="M716,507.1c0,1.3-1,2.3-2.3,2.3c-1.3,0-2.3-1-2.3-2.3c0-1.3,1-2.3,2.3-2.3C715,504.8,716,505.8,716,507.1z"></path> <path class="st4" d="M746.3,507.1c0,1.3-1,2.3-2.3,2.3c-1.3,0-2.3-1-2.3-2.3c0-1.3,1-2.3,2.3-2.3 C745.2,504.8,746.3,505.8,746.3,507.1z"></path> <path class="st4" d="M565.5,537c0,1.3-1,2.3-2.3,2.3c-1.3,0-2.3-1-2.3-2.3s1-2.3,2.3-2.3C564.4,534.7,565.5,535.7,565.5,537z"></path> <path class="st4" d="M595.5,537c0,1.3-1,2.3-2.3,2.3s-2.3-1-2.3-2.3s1-2.3,2.3-2.3S595.5,535.7,595.5,537z"></path> <path class="st4" d="M655.9,537c0,1.3-1,2.3-2.3,2.3s-2.3-1-2.3-2.3s1-2.3,2.3-2.3S655.9,535.7,655.9,537z"></path> <path class="st4" d="M625.7,537c0,1.3-1,2.3-2.3,2.3s-2.3-1-2.3-2.3s1-2.3,2.3-2.3S625.7,535.7,625.7,537z"></path> <path class="st4" d="M686,537c0,1.3-1,2.3-2.3,2.3c-1.3,0-2.3-1-2.3-2.3s1-2.3,2.3-2.3C685,534.7,686,535.7,686,537z"></path> <path class="st4" d="M716,537c0,1.3-1,2.3-2.3,2.3c-1.3,0-2.3-1-2.3-2.3s1-2.3,2.3-2.3C715,534.7,716,535.7,716,537z"></path> <path class="st4" d="M746.3,537c0,1.3-1,2.3-2.3,2.3c-1.3,0-2.3-1-2.3-2.3s1-2.3,2.3-2.3C745.2,534.7,746.3,535.7,746.3,537z"></path> <path class="st4" d="M565.5,567.1c0,1.3-1,2.3-2.3,2.3c-1.3,0-2.3-1-2.3-2.3s1-2.3,2.3-2.3C564.4,564.8,565.5,565.8,565.5,567.1z"></path> <path class="st4" d="M595.5,567.1c0,1.3-1,2.3-2.3,2.3s-2.3-1-2.3-2.3s1-2.3,2.3-2.3S595.5,565.8,595.5,567.1z"></path> <path class="st4" d="M655.9,567.1c0,1.3-1,2.3-2.3,2.3s-2.3-1-2.3-2.3s1-2.3,2.3-2.3S655.9,565.8,655.9,567.1z"></path> <path class="st4" d="M625.7,567.1c0,1.3-1,2.3-2.3,2.3s-2.3-1-2.3-2.3s1-2.3,2.3-2.3S625.7,565.8,625.7,567.1z"></path> <path class="st4" d="M686,567.1c0,1.3-1,2.3-2.3,2.3c-1.3,0-2.3-1-2.3-2.3s1-2.3,2.3-2.3C685,564.8,686,565.8,686,567.1z"></path> <path class="st4" d="M746.3,567.1c0,1.3-1,2.3-2.3,2.3c-1.3,0-2.3-1-2.3-2.3s1-2.3,2.3-2.3C745.2,564.8,746.3,565.8,746.3,567.1z"></path> <path class="st4" d="M776.5,567.1c0,1.3-1,2.3-2.3,2.3s-2.3-1-2.3-2.3s1-2.3,2.3-2.3S776.5,565.8,776.5,567.1z"></path> <path class="st4" d="M565.5,597.2c0,1.3-1,2.3-2.3,2.3c-1.3,0-2.3-1-2.3-2.3c0-1.3,1-2.3,2.3-2.3 C564.4,594.8,565.5,595.9,565.5,597.2z"></path> <path class="st4" d="M595.5,597.2c0,1.3-1,2.3-2.3,2.3s-2.3-1-2.3-2.3c0-1.3,1-2.3,2.3-2.3S595.5,595.9,595.5,597.2z"></path> <path class="st4" d="M655.9,597.2c0,1.3-1,2.3-2.3,2.3s-2.3-1-2.3-2.3c0-1.3,1-2.3,2.3-2.3S655.9,595.9,655.9,597.2z"></path> <path class="st4" d="M625.7,597.2c0,1.3-1,2.3-2.3,2.3s-2.3-1-2.3-2.3c0-1.3,1-2.3,2.3-2.3S625.7,595.9,625.7,597.2z"></path> <path class="st4" d="M686,597.2c0,1.3-1,2.3-2.3,2.3c-1.3,0-2.3-1-2.3-2.3c0-1.3,1-2.3,2.3-2.3C685,594.8,686,595.9,686,597.2z"></path> <path class="st4" d="M746.3,597.2c0,1.3-1,2.3-2.3,2.3c-1.3,0-2.3-1-2.3-2.3c0-1.3,1-2.3,2.3-2.3 C745.2,594.8,746.3,595.9,746.3,597.2z"></path> <path class="st4" d="M595.5,627.4c0,1.3-1,2.3-2.3,2.3s-2.3-1-2.3-2.3s1-2.3,2.3-2.3S595.5,626.1,595.5,627.4z"></path> <path class="st4" d="M655.9,627.4c0,1.3-1,2.3-2.3,2.3s-2.3-1-2.3-2.3s1-2.3,2.3-2.3S655.9,626.1,655.9,627.4z"></path> <path class="st4" d="M625.7,627.4c0,1.3-1,2.3-2.3,2.3s-2.3-1-2.3-2.3s1-2.3,2.3-2.3S625.7,626.1,625.7,627.4z"></path> <path class="st4" d="M686,627.4c0,1.3-1,2.3-2.3,2.3c-1.3,0-2.3-1-2.3-2.3s1-2.3,2.3-2.3C685,625.1,686,626.1,686,627.4z"></path> <path class="st4" d="M716,627.4c0,1.3-1,2.3-2.3,2.3c-1.3,0-2.3-1-2.3-2.3s1-2.3,2.3-2.3C715,625.1,716,626.1,716,627.4z"></path> <path class="st4" d="M595.5,657.5c0,1.3-1,2.3-2.3,2.3s-2.3-1-2.3-2.3c0-1.3,1-2.3,2.3-2.3S595.5,656.3,595.5,657.5z"></path> <path class="st4" d="M655.9,657.5c0,1.3-1,2.3-2.3,2.3s-2.3-1-2.3-2.3c0-1.3,1-2.3,2.3-2.3S655.9,656.3,655.9,657.5z"></path> <path class="st4" d="M625.7,657.5c0,1.3-1,2.3-2.3,2.3s-2.3-1-2.3-2.3c0-1.3,1-2.3,2.3-2.3S625.7,656.3,625.7,657.5z"></path> <path class="st4" d="M686,657.5c0,1.3-1,2.3-2.3,2.3c-1.3,0-2.3-1-2.3-2.3c0-1.3,1-2.3,2.3-2.3C685,655.2,686,656.3,686,657.5z"></path> <path class="st4" d="M716,657.5c0,1.3-1,2.3-2.3,2.3c-1.3,0-2.3-1-2.3-2.3c0-1.3,1-2.3,2.3-2.3C715,655.2,716,656.3,716,657.5z"></path> <path class="st4" d="M595.5,687.6c0,1.3-1,2.3-2.3,2.3s-2.3-1-2.3-2.3s1-2.3,2.3-2.3S595.5,686.3,595.5,687.6z"></path> <path class="st4" d="M655.9,687.6c0,1.3-1,2.3-2.3,2.3s-2.3-1-2.3-2.3s1-2.3,2.3-2.3S655.9,686.3,655.9,687.6z"></path> <circle class="st4" cx="623.4" cy="687.6" r="2.3"></circle> <path class="st4" d="M580.5,551.6c0,1.3-1,2.3-2.3,2.3c-1.3,0-2.3-1-2.3-2.3c0-1.3,1-2.3,2.3-2.3 C579.5,549.3,580.5,550.3,580.5,551.6z"></path> <path class="st4" d="M550.2,551.6c0,1.3-1,2.3-2.3,2.3s-2.3-1-2.3-2.3c0-1.3,1-2.3,2.3-2.3S550.2,550.3,550.2,551.6z"></path> <path class="st4" d="M610.5,551.6c0,1.3-1,2.3-2.3,2.3s-2.3-1-2.3-2.3c0-1.3,1-2.3,2.3-2.3S610.5,550.3,610.5,551.6z"></path> <path class="st4" d="M671,551.6c0,1.3-1,2.3-2.3,2.3c-1.3,0-2.3-1-2.3-2.3c0-1.3,1-2.3,2.3-2.3C669.9,549.3,671,550.3,671,551.6z"></path> <path class="st4" d="M701,551.6c0,1.3-1,2.3-2.3,2.3c-1.3,0-2.3-1-2.3-2.3c0-1.3,1-2.3,2.3-2.3C700,549.3,701,550.3,701,551.6z"></path> <path class="st4" d="M640.7,551.6c0,1.3-1,2.3-2.3,2.3c-1.3,0-2.3-1-2.3-2.3c0-1.3,1-2.3,2.3-2.3 C639.7,549.3,640.7,550.3,640.7,551.6z"></path> <path class="st4" d="M731.1,551.6c0,1.3-1,2.3-2.3,2.3c-1.3,0-2.3-1-2.3-2.3c0-1.3,1-2.3,2.3-2.3 C730.1,549.3,731.1,550.3,731.1,551.6z"></path> <path class="st4" d="M761.3,551.6c0,1.3-1,2.3-2.3,2.3s-2.3-1-2.3-2.3c0-1.3,1-2.3,2.3-2.3S761.3,550.3,761.3,551.6z"></path> <path class="st4" d="M580.5,581.5c0,1.3-1,2.3-2.3,2.3c-1.3,0-2.3-1-2.3-2.3c0-1.3,1-2.3,2.3-2.3 C579.5,579.2,580.5,580.2,580.5,581.5z"></path> <path class="st4" d="M610.5,581.5c0,1.3-1,2.3-2.3,2.3s-2.3-1-2.3-2.3c0-1.3,1-2.3,2.3-2.3S610.5,580.2,610.5,581.5z"></path> <path class="st4" d="M671,581.5c0,1.3-1,2.3-2.3,2.3c-1.3,0-2.3-1-2.3-2.3c0-1.3,1-2.3,2.3-2.3C669.9,579.2,671,580.2,671,581.5z"></path> <path class="st4" d="M640.7,581.5c0,1.3-1,2.3-2.3,2.3c-1.3,0-2.3-1-2.3-2.3c0-1.3,1-2.3,2.3-2.3 C639.7,579.2,640.7,580.2,640.7,581.5z"></path> <path class="st4" d="M550.2,581.5c0,1.3-1,2.3-2.3,2.3s-2.3-1-2.3-2.3c0-1.3,1-2.3,2.3-2.3S550.2,580.2,550.2,581.5z"></path> <path class="st4" d="M701,581.5c0,1.3-1,2.3-2.3,2.3c-1.3,0-2.3-1-2.3-2.3c0-1.3,1-2.3,2.3-2.3C700,579.2,701,580.2,701,581.5z"></path> <path class="st4" d="M731.1,581.5c0,1.3-1,2.3-2.3,2.3c-1.3,0-2.3-1-2.3-2.3c0-1.3,1-2.3,2.3-2.3 C730.1,579.2,731.1,580.2,731.1,581.5z"></path> <path class="st4" d="M761.3,581.5c0,1.3-1,2.3-2.3,2.3s-2.3-1-2.3-2.3c0-1.3,1-2.3,2.3-2.3S761.3,580.2,761.3,581.5z"></path> <path class="st4" d="M580.5,612.8c0,1.3-1,2.3-2.3,2.3c-1.3,0-2.3-1-2.3-2.3s1-2.3,2.3-2.3C579.5,610.5,580.5,611.5,580.5,612.8z"></path> <path class="st4" d="M610.5,612.8c0,1.3-1,2.3-2.3,2.3s-2.3-1-2.3-2.3s1-2.3,2.3-2.3S610.5,611.5,610.5,612.8z"></path> <path class="st4" d="M671,612.8c0,1.3-1,2.3-2.3,2.3c-1.3,0-2.3-1-2.3-2.3s1-2.3,2.3-2.3C669.9,610.5,671,611.5,671,612.8z"></path> <path class="st4" d="M640.7,612.8c0,1.3-1,2.3-2.3,2.3c-1.3,0-2.3-1-2.3-2.3s1-2.3,2.3-2.3C639.7,610.5,640.7,611.5,640.7,612.8z"></path> <path class="st4" d="M701,612.8c0,1.3-1,2.3-2.3,2.3c-1.3,0-2.3-1-2.3-2.3s1-2.3,2.3-2.3C700,610.5,701,611.5,701,612.8z"></path> <path class="st4" d="M580.5,642c0,1.3-1,2.3-2.3,2.3c-1.3,0-2.3-1-2.3-2.3c0-1.3,1-2.3,2.3-2.3C579.5,639.7,580.5,640.7,580.5,642z "></path> <path class="st4" d="M610.5,642c0,1.3-1,2.3-2.3,2.3s-2.3-1-2.3-2.3c0-1.3,1-2.3,2.3-2.3S610.5,640.7,610.5,642z"></path> <path class="st4" d="M671,642c0,1.3-1,2.3-2.3,2.3c-1.3,0-2.3-1-2.3-2.3c0-1.3,1-2.3,2.3-2.3C669.9,639.7,671,640.7,671,642z"></path> <path class="st4" d="M640.7,642c0,1.3-1,2.3-2.3,2.3c-1.3,0-2.3-1-2.3-2.3c0-1.3,1-2.3,2.3-2.3C639.7,639.7,640.7,640.7,640.7,642z "></path> <path class="st4" d="M701,642c0,1.3-1,2.3-2.3,2.3c-1.3,0-2.3-1-2.3-2.3c0-1.3,1-2.3,2.3-2.3C700,639.7,701,640.7,701,642z"></path> <path class="st4" d="M610.5,673.1c0,1.3-1,2.3-2.3,2.3s-2.3-1-2.3-2.3s1-2.3,2.3-2.3S610.5,671.8,610.5,673.1z"></path> <path class="st4" d="M671,673.1c0,1.3-1,2.3-2.3,2.3c-1.3,0-2.3-1-2.3-2.3s1-2.3,2.3-2.3C669.9,670.8,671,671.8,671,673.1z"></path> <path class="st4" d="M640.7,673.1c0,1.3-1,2.3-2.3,2.3c-1.3,0-2.3-1-2.3-2.3s1-2.3,2.3-2.3C639.7,670.8,640.7,671.8,640.7,673.1z"></path> <path class="st4" d="M701,673.1c0,1.3-1,2.3-2.3,2.3c-1.3,0-2.3-1-2.3-2.3s1-2.3,2.3-2.3C700,670.8,701,671.8,701,673.1z"></path> <path class="st4" d="M580.5,702.2c0,1.3-1,2.3-2.3,2.3c-1.3,0-2.3-1-2.3-2.3s1-2.3,2.3-2.3C579.5,699.8,580.5,700.9,580.5,702.2z"></path> <path class="st4" d="M610.5,702.2c0,1.3-1,2.3-2.3,2.3s-2.3-1-2.3-2.3s1-2.3,2.3-2.3S610.5,700.9,610.5,702.2z"></path> <path class="st4" d="M640.7,702.2c0,1.3-1,2.3-2.3,2.3c-1.3,0-2.3-1-2.3-2.3s1-2.3,2.3-2.3C639.7,699.8,640.7,700.9,640.7,702.2z"></path> <path class="st11" d="M615.6,716.3l120.2-61.5l41.5,28.9c0,0-6.9,36.1-144.5,55.7L615.6,716.3z"></path> <path class="st24" d="M723.4,660.6c0,0,8.6-5.3,17.6-2.1"></path> <circle class="st13" cx="839.6" cy="483" r="13.4"></circle> <circle class="st15" cx="534.1" cy="802.6" r="8.1"></circle> <ellipse transform="matrix(0.1606 -0.987 0.987 0.1606 -330.751 640.5733)" class="st15" cx="211.2" cy="514.7" rx="8.1" ry="8.1"></ellipse> <ellipse class="st5" cx="664.3" cy="404.4" rx="19" ry="21.3"></ellipse> <path class="st14" d="M655.6,387.8c0,0-7.8-60.2-59.1-53.7l20.8-9c0,0,43.9,0.5,51.3,67L655.6,387.8z"></path> <path class="st14" d="M661.4,408.4c0,0-11.6,27.1-24.6,27.1l4.8,7c0,0,21.4-9.2,26.4-34.1H661.4z"></path> <path class="st25" d="M239.4,685.3L197.1,591c0,0-3.7-6.7,4.5-9.3"></path> <path class="st14" d="M600.5,433.2l18-1.6c0,0-1.4,12.8-9,12.6C601.9,444,600.5,433.2,600.5,433.2z"></path> <ellipse transform="matrix(0.9964 -8.425532e-02 8.425532e-02 0.9964 -31.5461 57.6712)" class="st7" cx="667.5" cy="402.6" rx="10.5" ry="12.4"></ellipse> <path class="st15" d="M653.5,421.9c0,0,3.7,4.1,9,3.8"></path> <ellipse transform="matrix(0.9845 -0.1752 0.1752 0.9845 -67.3467 118.0433)" class="st7" cx="634.9" cy="440.4" rx="10.8" ry="8.3"></ellipse> <line class="st15" x1="237.8" y1="753.6" x2="803.6" y2="753.6"></line> <g> <path class="st2" d="M782.5,385.2c-0.3-5.2,3.3-9.2,8.2-9.4c4.8-0.2,8.7,3.4,9,8.5c0.3,5.2-3.2,9.2-8,9.4 C786.8,394,782.8,390.4,782.5,385.2z M781.9,328.8l-1-13.1l13.3-0.7l0.2,13.1l0.2,39.3l-8.8,0.5L781.9,328.8z"></path> </g> <g> <path class="st26" d="M843.3,339.9c1.4-5.3-1-9.8-6.7-11.2c-4.6-1.2-8.8,0.1-13,2.8l-5.4-8.4c6.4-4.4,14.3-6.6,22.7-4.5 c11.6,3,18.3,11.5,15.2,23.7c-3.7,14.1-22.3,14.7-24.5,29.4l-11.3-2.9C822.2,351.9,840.7,349.9,843.3,339.9z M813.4,384.7 c1.3-5,5.8-7.8,10.5-6.6s7.4,5.8,6.1,10.9c-1.3,5-5.9,7.7-10.6,6.5S812.2,389.7,813.4,384.7z"></path> </g> </g> <g> <path class="st8" d="M582.8,191.4H418.3c-12.6,0-22.9-10.2-22.9-22.9v-11.3c0-12.6,10.2-22.9,22.9-22.9h164.4 c12.6,0,22.9,10.2,22.9,22.9v11.3C605.6,181.1,595.4,191.4,582.8,191.4z"></path> <path class="st5" d="M435.5,149.4l1.8,3.7c0.5,0.9,1.4,1.6,2.4,1.8l4.1,0.6c2.6,0.4,3.7,3.6,1.8,5.5l-2.9,2.9 c-0.8,0.7-1.1,1.8-0.9,2.8l0.7,4c0.4,2.6-2.3,4.6-4.6,3.4l-3.6-1.9c-0.9-0.5-2-0.5-3,0l-3.6,1.9c-2.3,1.2-5.1-0.8-4.6-3.4l0.7-4 c0.2-1-0.2-2.1-0.9-2.8l-2.9-2.9c-1.9-1.9-0.9-5.1,1.8-5.5l4.1-0.6c1-0.2,1.9-0.8,2.4-1.8l1.8-3.7C431,147,434.4,147,435.5,149.4z"></path> <path class="st5" d="M469.5,149.4l1.8,3.7c0.5,0.9,1.4,1.6,2.4,1.8l4.1,0.6c2.6,0.4,3.7,3.6,1.8,5.5l-2.9,2.9 c-0.8,0.7-1.1,1.8-0.9,2.8l0.7,4c0.4,2.6-2.3,4.6-4.6,3.4l-3.6-1.9c-0.9-0.5-2-0.5-3,0l-3.6,1.9c-2.3,1.2-5.1-0.8-4.6-3.4l0.7-4 c0.2-1-0.2-2.1-0.9-2.8l-2.9-2.9c-1.9-1.9-0.9-5.1,1.8-5.5l4.1-0.6c1-0.2,1.9-0.8,2.4-1.8l1.8-3.7C464.9,147,468.3,147,469.5,149.4 z"></path> <path class="st5" d="M503.4,149.4l1.8,3.7c0.5,0.9,1.4,1.6,2.4,1.8l4.1,0.6c2.6,0.4,3.7,3.6,1.8,5.5l-2.9,2.9 c-0.8,0.7-1.1,1.8-0.9,2.8l0.7,4c0.4,2.6-2.3,4.6-4.6,3.4l-3.6-1.9c-0.9-0.5-2-0.5-3,0l-3.6,1.9c-2.3,1.2-5.1-0.8-4.6-3.4l0.7-4 c0.2-1-0.2-2.1-0.9-2.8l-2.9-2.9c-1.9-1.9-0.9-5.1,1.8-5.5l4.1-0.6c1-0.2,1.9-0.8,2.4-1.8l1.8-3.7C498.8,147,502.2,147,503.4,149.4 z"></path> <path class="st5" d="M537.4,149.4l1.8,3.7c0.5,0.9,1.4,1.6,2.4,1.8l4.1,0.6c2.6,0.4,3.7,3.6,1.8,5.5l-2.9,2.9 c-0.8,0.7-1.1,1.8-0.9,2.8l0.7,4c0.4,2.6-2.3,4.6-4.6,3.4l-3.6-1.9c-0.9-0.5-2-0.5-3,0l-3.6,1.9c-2.3,1.2-5.1-0.8-4.6-3.4l0.7-4 c0.2-1-0.2-2.1-0.9-2.8l-2.9-2.9c-1.9-1.9-0.9-5.1,1.8-5.5l4.1-0.6c1-0.2,1.9-0.8,2.4-1.8l1.8-3.7C532.8,147,536.2,147,537.4,149.4 z"></path> <path class="st5" d="M571.3,149.4l1.8,3.7c0.5,0.9,1.4,1.6,2.4,1.8l4.1,0.6c2.6,0.4,3.7,3.6,1.8,5.5l-2.9,2.9 c-0.8,0.7-1.1,1.8-0.9,2.8l0.7,4c0.4,2.6-2.3,4.6-4.6,3.4l-3.6-1.9c-0.9-0.5-2-0.5-3,0l-3.6,1.9c-2.3,1.2-5.1-0.8-4.6-3.4l0.7-4 c0.2-1-0.2-2.1-0.9-2.8l-2.9-2.9c-1.9-1.9-0.9-5.1,1.8-5.5l4.1-0.6c1-0.2,1.9-0.8,2.4-1.8l1.8-3.7C566.7,147,570.1,147,571.3,149.4 z"></path> </g> </svg> 