<?xml version="1.0" encoding="UTF-8"?><svg id="b" xmlns="http://www.w3.org/2000/svg" xmlns:xlink="http://www.w3.org/1999/xlink" viewBox="0 0 837 372"><defs><filter id="d" filterUnits="userSpaceOnUse"><feOffset dx="5" dy="5"/><feGaussianBlur result="e" stdDeviation="10"/><feFlood flood-color="#000" flood-opacity=".2"/><feComposite in2="e" operator="in"/><feComposite in="SourceGraphic"/></filter></defs><g id="c"><path d="m44.99,25h732.11c13.74,0,24.9,11.16,24.9,24.9v269.1c0,9.93-8.07,18-18,18H43c-9.93,0-18-8.07-18-18V44.99c0-11.04,8.96-19.99,19.99-19.99Z" style="fill:#fff; filter:url(#d);"/><path d="m802,124H25V43.86c0-10.41,8.44-18.86,18.86-18.86h733.24c13.75,0,24.9,11.15,24.9,24.9v74.1Z" style="fill:#0554f2;"/><g><path d="m111.38,164.86c3.96,0,7.92.9,11.89,2.68,3.96,1.79,8.13,4.88,12.5,9.28,4.37,4.4,6.56,11.2,6.56,20.42v10.52c0,10.45-4.1,17.88-12.3,22.28,8.2,4.78,12.3,12.37,12.3,22.75v15.99c0,9.57-3.07,17.49-9.22,23.77-6.15,6.29-14.07,9.43-23.78,9.43h-30.13v-137.12h32.18Zm11.48,40.82v-8.49c0-4.28-1.21-7.67-3.63-10.15-2.42-2.49-5.65-3.73-9.67-3.73h-10.88v38.12h11.49c4.43,0,7.66-1.42,9.68-4.25,2.01-2.83,3.02-6.66,3.02-11.5Zm0,63.09v-15.99c0-4.37-1.18-7.82-3.53-10.35-2.35-2.53-5.61-3.79-9.77-3.79h-10.88v43.86h11.08c3.89,0,7.05-1.3,9.47-3.89,2.42-2.59,3.63-5.87,3.63-9.84Z"/><path d="m220.83,287.4c-2.87,4.65-6.7,8.41-11.48,11.29-4.79,2.87-9.98,4.31-15.58,4.31s-11.17-1.47-16.29-4.41c-5.12-2.94-8.71-6.29-10.76-10.06-2.05-3.76-3.38-7.05-4-9.85-.61-2.8-.92-5.85-.92-9.14v-104.68h19.47v104.71c0,1.78.13,3.32.41,4.62.27,1.3,1.33,3.18,3.18,5.65,1.84,2.47,4.88,3.69,9.12,3.69,3.96,0,6.93-1.43,8.92-4.31,1.98-2.88,2.97-6.09,2.97-9.65v-104.71h19.47v104.68c0,3.29-.34,6.4-1.02,9.34-.69,2.94-1.84,5.78-3.48,8.52Z"/><path d="m260.59,267.75c0,2.6.1,4.55.31,5.84.21,1.3,1.24,3.28,3.1,5.95,1.86,2.66,5.27,3.99,10.22,3.99,2.75,0,5.3-.58,7.64-1.74,2.34-1.16,4.06-2.67,5.16-4.51,1.1-1.85,1.68-3.76,1.75-5.74.07-1.98.1-3.31.1-4v-9.63c0-2.73-.1-4.78-.31-6.15-.21-1.36-1.02-2.83-2.46-4.41-1.43-1.57-3.48-3-6.15-4.3-2.66-1.3-7.31-3.18-13.94-5.64-6.63-2.46-12.2-6.32-16.7-11.58-4.51-5.26-6.76-12.47-6.76-21.63v-6.15c0-9.29,3.11-17.32,9.33-24.08,6.22-6.76,13.97-10.15,23.26-10.15s17.32,3.31,23.67,9.94c6.35,6.63,9.53,14.73,9.53,24.29v6.15h-19.47v-6.15c0-1.91-.14-3.55-.41-4.92-.28-1.36-1.37-3.35-3.28-5.94-1.92-2.59-5.12-3.89-9.63-3.89-3.96,0-7.21,1.4-9.74,4.2-2.53,2.8-3.79,6.32-3.79,10.56v6.15c0,2.6.1,4.48.31,5.64.2,1.16.92,2.49,2.15,4s3,2.8,5.33,3.89c2.32,1.1,6.8,2.84,13.42,5.23,6.63,2.39,12.47,6.29,17.52,11.68,5.05,5.4,7.58,12.74,7.58,22.03v11.07c0,4.51-.44,8.47-1.33,11.89-.89,3.42-3.66,8.17-8.3,14.24-4.65,6.08-12.64,9.12-23.98,9.12s-20.29-3.86-25.62-11.58c-5.33-7.72-7.99-15.61-7.99-23.67v-4.92h19.47v4.92Z"/><path d="m387.66,267.34c0,4.37-.24,8.1-.72,11.17-.48,3.07-1.84,6.46-4.1,10.14-2.25,3.69-5.81,7.01-10.66,9.94-4.85,2.94-9.8,4.41-14.86,4.41-6.01,0-11.51-1.3-16.5-3.89-4.99-2.6-8.64-5.87-10.97-9.84-2.33-3.96-3.79-7.62-4.41-10.97-.62-3.35-.92-7-.92-10.96v-70.51c0-3.82.38-7.24,1.13-10.25.75-3.01,2.36-6.28,4.82-9.84,2.46-3.55,5.91-6.59,10.35-9.12,4.44-2.53,9.12-3.79,14.04-3.79,9.43,0,17.25,3.11,23.47,9.33,6.22,6.22,9.33,14.11,9.33,23.67v7.38h-19.47v-7.45c0-3.86-1.04-7.07-3.13-9.62-2.08-2.55-5.14-3.83-9.17-3.83-3.76,0-6.69,1.27-8.77,3.8-2.08,2.53-3.12,5.72-3.12,9.55v70.65c0,1.78.03,3.56.1,5.34.07,1.78.97,4.04,2.72,6.78,1.75,2.74,4.84,4.11,9.27,4.11,4.7,0,7.76-1.19,9.17-3.59,1.41-2.39,2.25-4.17,2.52-5.33.27-1.16.4-2.77.4-4.82v-6.97h19.47v4.51Z"/><path d="m394.22,301.98l28.58-137.12h18.97l30.54,137.12h-21l-5.51-29.51h-25.29l-5.51,29.51h-20.79Zm29.52-47.76h18.45l-9.22-48.75-9.22,48.75Z"/><path d="m532.57,267.75c0,2.6.1,4.55.31,5.84.21,1.3,1.24,3.28,3.1,5.95,1.86,2.66,5.27,3.99,10.22,3.99,2.75,0,5.3-.58,7.64-1.74,2.34-1.16,4.06-2.67,5.16-4.51,1.1-1.85,1.68-3.76,1.75-5.74.07-1.98.1-3.31.1-4v-9.63c0-2.73-.1-4.78-.31-6.15-.21-1.36-1.02-2.83-2.46-4.41-1.43-1.57-3.48-3-6.15-4.3-2.66-1.3-7.31-3.18-13.94-5.64-6.63-2.46-12.2-6.32-16.7-11.58-4.51-5.26-6.76-12.47-6.76-21.63v-6.15c0-9.29,3.11-17.32,9.33-24.08,6.22-6.76,13.97-10.15,23.26-10.15s17.32,3.31,23.67,9.94c6.35,6.63,9.53,14.73,9.53,24.29v6.15h-19.47v-6.15c0-1.91-.14-3.55-.41-4.92-.28-1.36-1.37-3.35-3.28-5.94-1.92-2.59-5.12-3.89-9.63-3.89-3.96,0-7.21,1.4-9.74,4.2-2.53,2.8-3.79,6.32-3.79,10.56v6.15c0,2.6.1,4.48.31,5.64.2,1.16.92,2.49,2.15,4s3,2.8,5.33,3.89c2.32,1.1,6.8,2.84,13.42,5.23,6.63,2.39,12.47,6.29,17.52,11.68,5.05,5.4,7.58,12.74,7.58,22.03v11.07c0,4.51-.44,8.47-1.33,11.89-.89,3.42-3.66,8.17-8.3,14.24-4.65,6.08-12.64,9.12-23.98,9.12s-20.29-3.86-25.62-11.58c-5.33-7.72-7.99-15.61-7.99-23.67v-4.92h19.47v4.92Z"/><path d="m597.75,301.98v-137.12h19.47v137.12h-19.47Z"/><path d="m706.78,301.98v-82.8l-19.47,57.8h-9.84l-19.47-57.8v82.8h-19.47v-137.12h18.24l26.03,72.97,25.42-72.97h18.04v137.12h-19.47Z"/></g><g><path d="m354.21,51.85c1.31,0,2.62.3,3.93.89,1.31.59,2.69,1.61,4.13,3.07,1.44,1.45,2.17,3.7,2.17,6.75v3.47c0,3.45-1.35,5.91-4.06,7.36,2.71,1.58,4.06,4.09,4.06,7.52v5.28c0,3.16-1.02,5.78-3.05,7.85-2.03,2.08-4.65,3.12-7.86,3.12h-9.95v-45.3h10.63Zm3.79,13.49v-2.81c0-1.41-.4-2.53-1.2-3.35-.8-.82-1.87-1.23-3.2-1.23h-3.6v12.6h3.8c1.46,0,2.53-.47,3.2-1.4.67-.94,1-2.2,1-3.8Zm0,20.85v-5.28c0-1.44-.39-2.58-1.17-3.42-.78-.83-1.85-1.25-3.23-1.25h-3.6v14.49h3.66c1.29,0,2.33-.43,3.13-1.29.8-.86,1.2-1.94,1.2-3.25Z" style="fill:#fff;"/><path d="m370.81,97.15v-45.3h11.31c2.98,0,5.49,1.04,7.52,3.12,2.03,2.08,3.05,4.62,3.05,7.61v4.21c0,4.16-1.76,7.36-5.27,9.57l6.83,20.79h-6.81l-6.12-19.44h-4.06v19.44h-6.43Zm14.36-26.55c.41-.5.69-1.07.85-1.7.16-.63.24-1.34.24-2.11v-4.22c0-1.41-.38-2.54-1.15-3.4-.77-.86-1.85-1.29-3.25-1.29h-4.6v14.15h4.54c1.35,0,2.48-.48,3.39-1.43Z" style="fill:#fff;"/><path d="m395.32,97.15l9.44-45.3h6.27l10.09,45.3h-6.94l-1.82-9.75h-8.36l-1.82,9.75h-6.87Zm9.75-15.78h6.09l-3.05-16.11-3.05,16.11Z" style="fill:#fff;"/><path d="m429.11,85.84c0,.86.03,1.5.1,1.93.07.43.41,1.08,1.02,1.96.61.88,1.74,1.32,3.38,1.32.91,0,1.75-.19,2.52-.57.77-.38,1.34-.88,1.71-1.49.36-.61.56-1.24.58-1.9.02-.65.03-1.09.03-1.32v-3.18c0-.9-.03-1.58-.1-2.03-.07-.45-.34-.94-.81-1.46-.47-.52-1.15-.99-2.03-1.42-.88-.43-2.42-1.05-4.6-1.86-2.19-.81-4.03-2.09-5.52-3.83-1.49-1.74-2.23-4.12-2.23-7.14v-2.03c0-3.07,1.03-5.72,3.08-7.96,2.05-2.23,4.62-3.35,7.69-3.35s5.72,1.09,7.82,3.28c2.1,2.19,3.15,4.87,3.15,8.02v2.03h-6.43v-2.03c0-.63-.05-1.17-.14-1.63-.09-.45-.45-1.11-1.08-1.96-.63-.86-1.69-1.29-3.18-1.29-1.31,0-2.38.46-3.22,1.39-.84.93-1.25,2.09-1.25,3.49v2.03c0,.86.03,1.48.1,1.86.07.38.3.82.71,1.32s.99.93,1.76,1.29c.77.36,2.25.94,4.44,1.73,2.19.79,4.12,2.08,5.79,3.86,1.67,1.78,2.51,4.21,2.51,7.28v3.66c0,1.49-.15,2.8-.44,3.93-.29,1.13-1.21,2.7-2.74,4.71-1.54,2.01-4.18,3.01-7.92,3.01s-6.7-1.27-8.46-3.83c-1.76-2.55-2.64-5.16-2.64-7.82v-1.62h6.43v1.62Z" style="fill:#fff;"/><path d="m450.64,97.15v-45.3h6.43v45.3h-6.43Z" style="fill:#fff;"/><path d="m483.42,97.15h-19.23v-45.3h6.43v38.87h12.8v6.43Z" style="fill:#fff;"/></g><g><path d="m690.36,81.87l.13.49-.43-.27-.43.27.13-.49-.39-.32.51-.03.19-.47.19.47.51.03-.39.32Z" style="fill:#fff; fill-rule:evenodd;"/><path d="m686.28,77.92l.13.49-.43-.27-.43.27.13-.49-.39-.32.51-.03.19-.47.19.47.51.03-.39.32Z" style="fill:#fff; fill-rule:evenodd;"/><path d="m685.2,72.48l.13.49-.43-.27-.43.27.13-.49-.39-.32.51-.03.19-.47.19.47.51.03-.39.32Z" style="fill:#fff; fill-rule:evenodd;"/><path d="m733,52.49v44.02c0,2.32-1.88,4.2-4.2,4.2h-66.49c-2.32,0-4.2-1.88-4.2-4.2v-43.86c0-2.41,1.95-4.36,4.36-4.36h66.33c2.32,0,4.2,1.88,4.2,4.2Z" style="fill:#009c37; fill-rule:evenodd;"/><path d="m726.63,74.5l-31.08,19.85-31.08-19.85,31.08-19.85,31.08,19.85Z" style="fill:#fee000;"/><path d="m695.56,61.39c7.24,0,13.11,5.87,13.11,13.11s-5.87,13.11-13.11,13.11-13.11-5.87-13.11-13.11,5.87-13.11,13.11-13.11h0Z" style="fill:#027;"/><path d="m699.87,70.05l.13.49-.43-.27-.43.27.13-.49-.39-.32.51-.03.19-.47.19.47.51.03-.39.32Z" style="fill:#fff; fill-rule:evenodd;"/><path d="m698.85,73.79l.09.35-.31-.2-.31.2.09-.35-.28-.23.36-.02.14-.34.13.34.36.02-.28.23Z" style="fill:#fff; fill-rule:evenodd;"/><path d="m685.2,72.48l.13.49-.43-.27-.43.27.13-.49-.39-.32.51-.03.19-.47.19.47.51.03-.39.32Z" style="fill:#fff; fill-rule:evenodd;"/><path d="m690.7,75.14l.11.42-.36-.23-.36.23.11-.42-.33-.27.43-.03.16-.4.16.4.43.03-.33.27Z" style="fill:#fff; fill-rule:evenodd;"/><path d="m687.34,77.01l.07.26-.23-.15-.23.15.07-.26-.21-.17.27-.02.1-.25.1.25.27.02-.21.17Z" style="fill:#fff; fill-rule:evenodd;"/><path d="m686.28,77.92l.13.49-.43-.27-.43.27.13-.49-.39-.32.51-.03.19-.47.19.47.51.03-.39.32Z" style="fill:#fff; fill-rule:evenodd;"/><path d="m684.86,79.04l.11.42-.36-.23-.36.23.11-.42-.33-.27.43-.03.16-.4.16.4.43.03-.33.27Z" style="fill:#fff; fill-rule:evenodd;"/><path d="m688.88,79.14l.11.42-.36-.23-.36.23.11-.42-.33-.27.43-.03.16-.4.16.4.43.03-.33.27Z" style="fill:#fff; fill-rule:evenodd;"/><path d="m688.37,80.5l.09.35-.31-.2-.31.2.09-.35-.28-.23.36-.02.13-.34.13.34.36.02-.28.23Z" style="fill:#fff; fill-rule:evenodd;"/><path d="m690.36,81.87l.13.49-.43-.27-.43.27.13-.49-.39-.32.51-.03.19-.47.19.47.51.03-.39.32Z" style="fill:#fff; fill-rule:evenodd;"/><path d="m695.74,84.96l.05.19-.17-.1-.16.1.05-.19-.15-.12h.19s.07-.19.07-.19l.07.18h.19s-.15.14-.15.14Z" style="fill:#fff; fill-rule:evenodd;"/><path d="m695.91,76.9l.11.42-.36-.23-.36.23.11-.42-.33-.27.43-.03.16-.4.16.4.43.03-.33.27Z" style="fill:#fff; fill-rule:evenodd;"/><path d="m697.11,78.02l.11.42-.36-.23-.36.23.11-.42-.33-.27.43-.03.16-.4.16.4.43.03-.33.27Z" style="fill:#fff; fill-rule:evenodd;"/><path d="m694.96,78.83l.07.26-.23-.15-.23.15.07-.26-.21-.17.27-.02.1-.25.1.25.27.02-.21.17Z" style="fill:#fff; fill-rule:evenodd;"/><path d="m694.06,78.16l.09.35-.31-.2-.31.2.09-.35-.28-.23.36-.02.13-.34.13.34.36.02-.28.23Z" style="fill:#fff; fill-rule:evenodd;"/><path d="m695.88,80.74l.13.49-.43-.27-.43.27.13-.49-.39-.32.51-.03.19-.47.19.47.51.03-.39.32Z" style="fill:#fff; fill-rule:evenodd;"/><path d="m698.5,82.04l.09.35-.31-.2-.31.2.09-.35-.28-.23.36-.02.14-.34.13.34.36.02-.28.23Z" style="fill:#fff; fill-rule:evenodd;"/><path d="m699.61,83.67l.11.42-.36-.23-.36.23.11-.42-.33-.27.43-.03.16-.4.16.4.43.03-.33.27Z" style="fill:#fff; fill-rule:evenodd;"/><path d="m700.77,82.37l.09.35-.31-.2-.31.2.09-.35-.28-.23.36-.02.14-.34.13.34.36.02-.28.23Z" style="fill:#fff; fill-rule:evenodd;"/><path d="m702.33,84.72l.09.35-.31-.2-.31.2.09-.35-.28-.23.36-.02.13-.34.13.34.37.02-.28.23Z" style="fill:#fff; fill-rule:evenodd;"/><path d="m702.39,83.35l.11.42-.36-.23-.36.23.11-.42-.33-.27.43-.03.16-.4.16.4.43.03-.33.27Z" style="fill:#fff; fill-rule:evenodd;"/><path d="m702.31,82.07l.09.35-.31-.2-.31.2.09-.35-.28-.23.36-.02.13-.34.14.34.36.02-.28.23Z" style="fill:#fff; fill-rule:evenodd;"/><path d="m703.61,82.08l.09.35-.31-.2-.31.2.09-.35-.28-.23.36-.02.14-.34.13.34.36.02-.28.23Z" style="fill:#fff; fill-rule:evenodd;"/><path d="m704.87,81.54l.11.42-.36-.23-.36.23.11-.42-.33-.27.43-.03.16-.4.16.4.43.03-.33.27Z" style="fill:#fff; fill-rule:evenodd;"/><path d="m705.49,80.5l.11.42-.36-.23-.36.23.11-.42-.33-.27.43-.03.16-.4.16.4.43.03-.33.27Z" style="fill:#fff; fill-rule:evenodd;"/><path d="m705.02,79.23l.13.49-.43-.27-.43.27.13-.49-.39-.32.51-.03.19-.47.19.47.51.03-.39.32Z" style="fill:#fff; fill-rule:evenodd;"/><path d="m706.85,79.31l.09.35-.31-.2-.31.2.09-.35-.28-.23.36-.02.14-.34.13.34.36.02-.28.23Z" style="fill:#fff; fill-rule:evenodd;"/><path d="m687.73,70.46c-1.61,0-3.2.12-4.75.36.19-.65.43-1.27.71-1.88,1.32-.16,2.67-.25,4.04-.25,7.88,0,15.13,2.77,20.83,7.39-.08.67-.22,1.33-.4,1.96-5.5-4.72-12.64-7.58-20.43-7.58h0Z" style="fill:#fff; fill-rule:evenodd;"/><path d="m684.35,69.78c.01.13.05.22.11.29.06.07.15.09.25.09.1,0,.18-.05.23-.13.05-.08.07-.18.06-.31-.01-.13-.05-.22-.11-.29-.06-.07-.15-.09-.25-.09-.1,0-.18.05-.23.13-.05.08-.07.18-.06.31Zm-.24.02c-.02-.19.02-.34.12-.46.09-.12.23-.19.4-.2.17-.01.32.03.43.13.11.1.18.25.19.43.02.19-.02.34-.12.46-.09.12-.23.19-.4.2-.17.01-.32-.03-.43-.13-.11-.1-.18-.25-.19-.43h0Zm1.9-.22h.28c.06-.01.11-.03.13-.05.03-.03.04-.07.04-.12,0-.05-.02-.09-.05-.11-.03-.03-.07-.04-.13-.04h-.29s.01.32.01.32h0Zm-.22.66l-.04-1.17.57-.02c.13,0,.22.02.29.07.06.05.1.13.1.25,0,.07-.01.13-.04.18-.03.05-.07.08-.13.1.05.02.09.04.11.08.02.04.04.09.04.17v.14s0,0,0,0c0,.07.02.11.05.12v.04s-.26,0-.26,0c0-.02-.02-.04-.02-.06,0-.02,0-.05-.01-.09v-.12c-.01-.07-.03-.12-.05-.14-.03-.02-.07-.04-.13-.03h-.25s.02.46.02.46h-.24s0,0,0,0Zm1.72-.26h.19c.11,0,.19-.02.24-.08.05-.06.08-.15.08-.28,0-.13-.02-.23-.06-.29-.05-.06-.12-.09-.22-.1h-.22s-.01.75-.01.75h0Zm-.24.21l.02-1.17h.46c.18.01.31.06.4.16.09.1.13.25.12.44,0,.11-.02.2-.05.28-.03.08-.08.15-.15.19-.05.04-.1.06-.16.08-.06.01-.14.02-.25.02h-.39s0,0,0,0Zm1.48.03l.06-1.17.85.05v.2s-.62-.03-.62-.03v.25s.54.03.54.03v.2s-.57-.03-.57-.03l-.02.3.64.03v.22s-.89-.05-.89-.05h0Zm1.37.08l.12-1.16.35.04.14.91.32-.86.35.04-.12,1.16-.22-.02.1-.94-.34.91-.24-.03-.14-.96-.1.94-.22-.02h0Zm3.09.4l.24-1.14.83.18-.04.2-.6-.13-.05.24.55.12-.04.2-.55-.12-.06.29.63.13-.05.21-.86-.18h0Zm3.09.07l.22.06c.06.02.11.02.14,0,.03-.02.06-.06.07-.11.01-.05.01-.1,0-.13-.02-.03-.06-.06-.11-.07l-.24-.06-.09.33h0Zm-.06.2l-.11.4-.23-.06.3-1.13.5.14c.12.03.2.09.24.16.04.08.05.18.02.3-.03.12-.09.2-.16.24-.08.05-.17.06-.28.03l-.28-.08h0Zm1.4.18l.27.08c.06.02.11.02.14,0,.03-.02.06-.05.08-.1.01-.05.01-.09,0-.12-.02-.03-.06-.06-.11-.07l-.28-.09-.09.3h0Zm-.42.56l.34-1.12.54.17c.12.04.2.09.25.16.04.07.05.16.01.27-.02.07-.05.12-.1.16-.04.04-.09.06-.15.06.04.03.07.07.08.11,0,.04,0,.1-.02.18l-.04.13s0,0,0,0c-.02.07-.02.11,0,.13v.03s-.26-.08-.26-.08c0-.02,0-.04,0-.06,0-.02,0-.05.02-.08l.03-.12c.02-.07.02-.12,0-.15-.02-.03-.05-.06-.12-.08l-.24-.07-.13.43-.23-.07h0Zm1.78,0c-.04.12-.05.22-.02.31.03.09.09.15.19.18.1.04.19.03.26-.02s.14-.13.18-.25c.04-.12.05-.22.02-.31-.03-.09-.09-.15-.19-.18-.1-.04-.18-.03-.26.02-.08.05-.14.13-.18.25h0Zm-.23-.08c.06-.18.16-.3.3-.37.13-.07.28-.07.45-.01.16.06.27.16.33.3.06.14.06.3,0,.47-.06.18-.16.3-.3.37-.14.07-.28.07-.45.01-.16-.06-.28-.16-.33-.3-.06-.14-.06-.3,0-.47h0Zm2.16,1.37c-.06.04-.13.06-.19.06-.06,0-.13,0-.2-.04-.15-.06-.25-.17-.3-.31-.05-.14-.04-.3.04-.47.07-.17.18-.29.31-.35.14-.06.28-.06.44,0,.13.06.23.14.29.24.06.1.07.21.04.33l-.23-.1c.01-.06,0-.12-.03-.16-.03-.05-.08-.09-.15-.11-.09-.04-.17-.04-.25,0-.08.04-.14.12-.19.24-.05.12-.06.22-.04.31.03.09.08.15.18.19.07.03.14.03.2.01.06-.02.12-.07.16-.13l-.24-.1.08-.18.44.19-.25.58-.15-.06.03-.14h0Zm1.11-.03l.25.12c.05.03.1.04.14.03.04,0,.07-.04.09-.09.02-.05.03-.09.01-.12-.01-.04-.05-.07-.1-.09l-.26-.13-.14.28h0Zm-.5.48l.51-1.05.51.25c.11.06.19.12.22.2.03.08.02.16-.03.26-.03.06-.07.11-.12.14-.05.03-.1.04-.16.03.04.04.06.08.06.12,0,.04-.01.1-.04.17l-.06.13s0,0,0,0c-.03.06-.03.11-.02.13l-.02.03-.24-.12s0-.04,0-.06c0-.02.02-.05.03-.08l.05-.11c.03-.07.04-.12.03-.15-.01-.03-.05-.06-.1-.09l-.23-.11-.2.41-.22-.11h0Zm1.3.67l.57-1.02.74.41-.1.18-.53-.3-.12.22.49.27-.1.17-.49-.27-.15.26.56.31-.1.19-.77-.43h0Zm1.32.36l.2.12c-.03.06-.03.11,0,.16.02.05.07.09.14.14.06.04.11.05.15.05.04,0,.08-.03.1-.07.04-.06-.02-.16-.17-.31,0,0,0,0,0,0,0,0,0,0-.02-.02-.08-.08-.13-.14-.16-.19-.02-.04-.03-.09-.03-.14,0-.05.02-.1.05-.15.06-.1.14-.15.23-.16.1-.01.21.02.33.09.12.07.19.15.22.25.03.09.02.19-.04.3l-.2-.12c.03-.05.03-.1.01-.14-.02-.05-.06-.09-.12-.12-.05-.03-.1-.05-.14-.04-.04,0-.07.02-.1.06-.03.05,0,.13.1.22.03.03.05.05.06.06.06.06.1.11.13.14.02.03.04.06.06.08.03.05.04.1.04.15,0,.05-.02.1-.05.15-.06.1-.15.16-.25.18-.1.01-.22-.02-.35-.09-.13-.08-.21-.16-.24-.27-.04-.1-.02-.21.03-.32h0Zm1.23.77l.2.13c-.03.06-.03.11-.01.16.02.05.06.1.13.14.06.04.11.06.15.06.04,0,.08-.02.11-.06.04-.06-.01-.16-.15-.32,0,0,0,0,0,0,0,0,0,0-.02-.02-.08-.08-.13-.15-.15-.2-.02-.05-.03-.09-.02-.14,0-.05.03-.1.06-.15.06-.09.14-.14.24-.15.1,0,.21.03.33.11.11.08.18.16.21.26.03.1.01.19-.05.29l-.19-.13s.03-.1.02-.14c-.02-.05-.05-.09-.11-.13-.05-.04-.1-.05-.14-.05-.04,0-.08.02-.1.06-.04.05,0,.13.09.23.02.03.04.05.06.06.06.07.1.11.12.14.02.03.04.06.05.09.02.05.03.1.03.15,0,.05-.02.1-.06.15-.07.1-.15.16-.26.16-.11,0-.22-.03-.34-.11-.12-.08-.2-.17-.23-.28-.03-.1-.01-.21.05-.32h0Zm1.48.79c-.08.1-.11.2-.11.29,0,.09.04.17.13.23.08.06.17.08.26.06.09-.02.17-.08.25-.19.08-.1.11-.2.11-.29,0-.09-.05-.17-.13-.23-.08-.06-.17-.08-.25-.06-.09.02-.17.08-.25.19h0Zm-.2-.15c.11-.15.24-.24.39-.26.15-.03.29.01.43.12.14.11.22.23.23.38.02.15-.03.3-.15.45-.11.15-.25.24-.39.26-.15.03-.29-.01-.43-.12-.14-.11-.22-.23-.23-.38s.03-.3.15-.45h0Z" style="fill:#009c37; fill-rule:evenodd;"/></g><g><g id="f"><path d="m80.81,87.94l-.28-.74c11.6-4.34,23.62-7.21,35.74-8.52,11.56-1.25,23.58-1.14,35.73.35l-.1.78c-25.04-3.06-48.3-.41-71.1,8.13Z" style="fill:#fff;"/></g><polygon id="g" points="119.1 58.02 121.19 57.3 121.91 55.21 122.64 57.3 124.73 58.02 122.64 58.75 121.91 60.84 121.19 58.75 119.1 58.02" style="fill:#fff;"/><polygon id="h" points="110.77 53.31 112.86 52.58 113.58 50.49 114.31 52.58 116.4 53.31 114.31 54.04 113.58 56.13 112.85 54.04 110.77 53.31" style="fill:#fff;"/><polygon id="i" points="104.03 60.84 106.12 60.11 106.85 58.02 107.57 60.11 109.66 60.84 107.57 61.56 106.85 63.65 106.12 61.56 104.03 60.84" style="fill:#fff;"/><polygon id="j" points="113.6 74.32 115.7 73.6 116.45 71.51 117.15 73.6 119.24 74.32 117.14 75.05 116.39 77.14 115.68 75.05 113.6 74.32" style="fill:#fff;"/><path id="k" d="m122.21,89.68c1.17,0,2.15.42,2.93,1.26.78.84,1.17,1.9,1.17,3.17s-.39,2.32-1.18,3.15c-.79.83-1.78,1.25-2.98,1.25s-2.1-.42-2.86-1.25c-.76-.83-1.14-1.88-1.14-3.13s.38-2.35,1.15-3.19c.77-.84,1.74-1.26,2.91-1.26h0Zm.04,1.17c-.87,0-1.58.31-2.14.93-.56.62-.84,1.4-.84,2.36s.28,1.7.84,2.32c.56.62,1.26.93,2.11.93s1.55-.32,2.12-.94c.57-.63.85-1.41.85-2.35s-.28-1.68-.85-2.3c-.57-.62-1.26-.93-2.09-.93h0Z" style="fill:#fff;"/><polygon id="l" points="90.49 89.82 91.49 89.82 91.49 98.41 90.41 98.41 90.41 91.72 88.09 95.04 87.89 95.04 85.55 91.72 85.55 98.41 84.47 98.41 84.47 89.82 85.49 89.82 87.99 93.35 90.49 89.82" style="fill:#fff;"/><path id="m" d="m140.01,89.82h1.08v4.87c0,.66-.04,1.16-.13,1.49-.08.34-.19.62-.31.84-.12.22-.28.42-.46.6-.6.59-1.38.88-2.34.88s-1.77-.29-2.36-.87c-.18-.18-.33-.38-.46-.61-.12-.22-.23-.5-.31-.82-.08-.32-.12-.83-.12-1.52v-4.86h1.08v4.87c0,.81.08,1.37.24,1.68.16.32.41.57.74.76.33.19.72.29,1.17.29.64,0,1.16-.19,1.56-.57.21-.21.36-.45.46-.73.09-.28.14-.76.14-1.43v-4.87h0Z" style="fill:#fff;"/><path id="n" d="m130.5,94.8l-.82-.56c-.52-.36-.88-.71-1.1-1.06-.22-.35-.33-.74-.33-1.2,0-.68.21-1.23.62-1.65.41-.42.95-.63,1.6-.63s1.21.2,1.73.6v1.4c-.54-.6-1.13-.89-1.75-.89-.35,0-.64.09-.87.28-.23.19-.34.43-.34.72,0,.26.08.5.25.73.17.23.43.46.8.71l.83.55c.92.62,1.38,1.42,1.38,2.38,0,.69-.2,1.25-.61,1.68-.4.43-.93.65-1.58.65-.74,0-1.42-.26-2.03-.78v-1.56c.58.84,1.26,1.26,2.02,1.26.34,0,.62-.11.84-.32.22-.21.34-.48.34-.81,0-.52-.33-1.02-.99-1.49h0Z" style="fill:#fff;"/><path id="o" d="m116.13,96.42v1.35c-.79.49-1.7.74-2.74.74-.84,0-1.55-.19-2.14-.58-.59-.38-1.05-.91-1.39-1.59-.34-.68-.51-1.41-.51-2.19,0-1.25.39-2.3,1.17-3.15.78-.85,1.75-1.28,2.89-1.28.79,0,1.67.24,2.64.71v1.32c-.88-.57-1.74-.86-2.58-.86s-1.58.31-2.15.93c-.57.62-.86,1.4-.86,2.33s.28,1.72.84,2.32c.56.61,1.28.91,2.15.91s1.81-.32,2.68-.96h0Z" style="fill:#fff;"/><path id="p" d="m101.92,98.5v-8.59h1.89c.76,0,1.37.22,1.81.65.45.43.67,1.01.67,1.75,0,.5-.11.93-.33,1.3-.22.37-.53.64-.94.82.24.18.48.43.71.74.23.31.55.85.97,1.63.26.49.47.85.63,1.1l.4.61h-1.28l-.33-.57s-.03-.05-.06-.1l-.21-.34-.33-.63-.36-.67c-.22-.35-.43-.63-.61-.84-.18-.21-.35-.36-.5-.45-.15-.09-.4-.14-.75-.14h-.28v3.74h-1.08Zm1.4-7.54h-.32v2.71h.41c.55,0,.92-.05,1.12-.16.2-.11.36-.27.47-.48.11-.21.17-.46.17-.73s-.06-.52-.19-.73c-.13-.22-.3-.37-.53-.46-.23-.09-.61-.14-1.14-.14h0Z" style="fill:#fff;"/><polygon id="q" points="99.01 89.93 99.01 91.02 95.82 91.02 95.82 93.64 98.9 93.64 98.9 94.74 95.82 94.74 95.82 97.41 99.11 97.41 99.11 98.5 94.74 98.5 94.74 89.93 94.74 89.93 99.01 89.93" style="fill:#fff;"/><path id="r" d="m143.69,89.92v8.59h4.41v-1.08h-3.33v-7.51h-1.08Z" style="fill:#fff;"/></g></g></svg>