<?xml version="1.0" encoding="utf-8" standalone="no"?>
<svg xmlns:dc="http://purl.org/dc/elements/1.1/" xmlns:cc="http://creativecommons.org/ns#" xmlns:rdf="http://www.w3.org/1999/02/22-rdf-syntax-ns#" xmlns:svg="http://www.w3.org/2000/svg" xmlns="http://www.w3.org/2000/svg" viewBox="665.6 259.2 1228.8 921.60004" height="921.60004" width="1228.8" xml:space="preserve" id="svg2" version="1.1">
  <metadata id="metadata8">
    <rdf:RDF>
      <cc:Work rdf:about="">
        <dc:format>image/svg+xml</dc:format>
        <dc:type rdf:resource="http://purl.org/dc/dcmitype/StillImage" />
      </cc:Work>
    </rdf:RDF>
  </metadata>
  <defs id="defs6">
    <clipPath id="clipPath18" clipPathUnits="userSpaceOnUse">
      <path id="path16" d="M 0,1080 H 1920 V 0 H 0 Z" />
    </clipPath>
  </defs>
  <g transform="matrix(1.3333333,0,0,-1.3333333,0,1440)" id="g10">
    <g id="g12">
      <g clip-path="url(#clipPath18)" id="g14">
        <g transform="translate(998.8379,270.8047)" id="g20">
          <path id="path22" style="fill:#003895;fill-opacity:1;fill-rule:nonzero;stroke:none" d="m 0,0 c -9.977,-29.029 -3.97,-59.338 14.953,-67.731 9.583,-4.25 20.363,-2.335 30.182,4.083 10.733,7.014 19.544,20.018 24.49,34.716 l 0.262,0.779 c 1.504,4.466 3.125,8.858 4.842,13.183 24.937,62.638 71.098,106.631 117.142,115.605 5.063,1.011 10.114,1.567 15.134,1.676 41.375,6.735 83.044,30.832 119.291,67.864 35.59,36.396 65.948,85.262 85.694,142.542 11.448,33.209 2.594,65.679 -20.791,69.935 -19.233,3.501 -41.306,-14.643 -50.719,-42.592 -23.478,-69.725 -73.19,-119.118 -122.442,-127.751 -0.096,-0.003 -0.191,-0.006 -0.298,-0.041 -3.443,-0.569 -6.907,-0.99 -10.36,-1.167 C 165.26,204.897 122.729,180.633 85.819,142.906 50.159,106.457 19.742,57.45 0,0" />
        </g>
        <g transform="translate(921.1626,270.8047)" id="g24">
          <path id="path26" style="fill:#003895;fill-opacity:1;fill-rule:nonzero;stroke:none" d="m 0,0 c 9.976,-29.029 3.969,-59.338 -14.954,-67.731 -9.583,-4.25 -20.363,-2.335 -30.182,4.083 -10.733,7.014 -19.543,20.018 -24.489,34.716 l -0.262,0.779 c -1.504,4.466 -3.125,8.858 -4.842,13.183 -24.938,62.638 -71.099,106.631 -117.143,115.605 -5.062,1.011 -10.114,1.567 -15.134,1.676 -41.375,6.735 -83.043,30.832 -119.29,67.864 -35.59,36.396 -65.949,85.262 -85.695,142.542 -11.448,33.209 -2.593,65.679 20.792,69.935 19.233,3.501 41.306,-14.643 50.718,-42.592 23.479,-69.725 73.191,-119.118 122.442,-127.751 0.096,-0.003 0.192,-0.006 0.299,-0.041 3.442,-0.569 6.906,-0.99 10.359,-1.167 42.121,-6.204 84.652,-30.468 121.561,-68.195 C -50.159,106.457 -19.743,57.45 0,0" />
        </g>
        <g transform="translate(960.0122,563.8696)" id="g28">
          <path id="path30" style="fill:#003895;fill-opacity:1;fill-rule:nonzero;stroke:none" d="m 0,0 c 74.708,1.604 151.925,76.571 204.87,97.013 23.964,9.252 43.585,-20.634 25.42,-38.799 L 16.887,-155.188 c -9.252,-9.253 -24.253,-9.253 -33.505,0 L -230.313,58.507 c -18.171,18.17 1.465,48.064 25.431,38.792 C -146.141,74.574 -85.151,-1.829 0,0" />
        </g>
        <g transform="translate(1072.6543,766.5425)" id="g32">
          <path id="path34" style="fill:#003895;fill-opacity:1;fill-rule:nonzero;stroke:none" d="m 0,0 c 0,-62.217 -50.437,-112.654 -112.654,-112.654 -62.218,0 -112.655,50.437 -112.655,112.654 0,62.218 50.437,112.655 112.655,112.655 C -50.437,112.655 0,62.218 0,0" />
        </g>
      </g>
    </g>
  </g>
</svg>