<?xml version="1.0" encoding="UTF-8" standalone="no"?>
<svg
   xmlns:dc="http://purl.org/dc/elements/1.1/"
   xmlns:cc="http://creativecommons.org/ns#"
   xmlns:rdf="http://www.w3.org/1999/02/22-rdf-syntax-ns#"
   xmlns:svg="http://www.w3.org/2000/svg"
   xmlns="http://www.w3.org/2000/svg"
   viewBox="0 0 2560 1440"
   height="1440"
   width="2560"
   xml:space="preserve"
   id="svg2"
   version="1.1"><metadata
     id="metadata8"><rdf:RDF><cc:Work
         rdf:about=""><dc:format>image/svg+xml</dc:format><dc:type
           rdf:resource="http://purl.org/dc/dcmitype/StillImage" /></cc:Work></rdf:RDF></metadata><defs
     id="defs6"><clipPath
       id="clipPath18"
       clipPathUnits="userSpaceOnUse"><path
         id="path16"
         d="M 0,1080 H 1920 V 0 H 0 Z" /></clipPath></defs><g
     transform="matrix(1.3333333,0,0,-1.3333333,0,1440)"
     id="g10"><g
       id="g12"><g
         clip-path="url(#clipPath18)"
         id="g14"><g
           transform="translate(553.0366,362.9775)"
           id="g20"><path
             id="path22"
             style="fill:#003895;fill-opacity:1;fill-rule:nonzero;stroke:none"
             d="m 0,0 h 12.683 c 0.948,0 1.639,0.307 2.066,0.926 0.428,0.617 0.403,1.353 -0.071,2.209 -0.951,2.373 -2.091,5.152 -3.42,8.337 C 9.926,14.653 8.693,17.621 7.553,20.378 7.172,21.232 6.745,21.66 6.27,21.66 5.793,21.66 5.366,21.232 4.988,20.378 L -2.138,3.135 C -2.519,2.279 -2.519,1.543 -2.138,0.926 -1.759,0.307 -1.046,0 0,0 m -8.408,61.989 c 0.379,0.856 1.02,1.59 1.924,2.209 0.902,0.617 1.875,0.926 2.921,0.926 h 19.951 c 0.948,0 1.875,-0.309 2.779,-0.926 0.902,-0.619 1.543,-1.353 1.924,-2.209 l 41.611,-96.903 c 0.379,-0.856 0.308,-1.759 -0.214,-2.708 -0.523,-0.95 -1.545,-1.425 -3.063,-1.425 H 35.056 c -1.046,0 -2.019,0.308 -2.921,0.927 -0.904,0.616 -1.592,1.353 -2.067,2.208 l -3.847,8.551 c -0.476,0.854 -1.165,1.59 -2.066,2.209 -0.905,0.616 -1.831,0.925 -2.78,0.925 H -8.693 c -1.046,0 -2.019,-0.309 -2.921,-0.925 -0.904,-0.619 -1.546,-1.355 -1.924,-2.209 l -3.99,-8.551 c -0.381,-0.855 -1.022,-1.592 -1.924,-2.208 -0.904,-0.619 -1.83,-0.927 -2.779,-0.927 h -24.511 c -0.474,0 -0.973,0.094 -1.496,0.285 -0.521,0.19 -0.949,0.475 -1.283,0.855 -0.332,0.379 -0.545,0.855 -0.641,1.426 -0.093,0.569 0.049,1.233 0.428,1.995 z" /></g><g
           transform="translate(684.9351,402.0234)"
           id="g24"><path
             id="path26"
             style="fill:#003895;fill-opacity:1;fill-rule:nonzero;stroke:none"
             d="m 0,0 h -13.46 c -0.957,0 -1.768,-0.332 -2.436,-0.993 -0.668,-0.661 -1.002,-1.463 -1.002,-2.407 v -16.713 c 0,-0.945 0.334,-1.748 1.002,-2.409 0.668,-0.662 1.479,-0.992 2.436,-0.992 H 1.861 c 3.627,0 6.277,1.157 7.947,3.47 1.67,2.314 2.507,4.934 2.507,7.862 0,1.51 -0.262,2.997 -0.788,4.462 -0.526,1.463 -1.311,2.761 -2.362,3.895 C 8.114,-2.692 6.827,-1.771 5.299,-1.062 3.772,-0.354 2.004,0 0,0 m -1.04,-50.02 h -12.429 c -0.953,0 -1.763,-0.334 -2.429,-0.997 -0.668,-0.666 -1,-1.474 -1,-2.422 v -21.234 c 0,-0.95 -0.332,-1.759 -0.993,-2.423 -0.662,-0.665 -1.465,-0.997 -2.409,-0.997 h -21.412 c -0.946,0 -1.75,0.332 -2.412,0.997 -0.661,0.664 -0.99,1.473 -0.99,2.423 v 97.474 c 0,0.948 0.332,1.757 0.997,2.423 0.664,0.663 1.472,0.997 2.423,0.997 H 1.913 c 5.319,0 10.331,-0.997 15.034,-2.992 4.702,-1.996 8.786,-4.752 12.255,-8.266 3.467,-3.516 6.221,-7.602 8.266,-12.255 2.041,-4.656 3.063,-9.644 3.063,-14.963 0,-5.322 -0.857,-10.285 -2.572,-14.892 -1.714,-4.609 -4.31,-8.599 -7.786,-11.97 -3.476,-3.374 -7.809,-6.034 -12.999,-7.981 C 11.981,-49.046 5.912,-50.02 -1.04,-50.02" /></g><g
           transform="translate(762.6597,359.6992)"
           id="g28"><path
             id="path30"
             style="fill:#003895;fill-opacity:1;fill-rule:nonzero;stroke:none"
             d="m 0,0 c 5.13,-3.326 10.211,-5.938 15.248,-7.838 5.034,-1.901 9.737,-2.85 14.108,-2.85 4.179,0 7.361,0.592 9.548,1.782 2.184,1.186 3.277,2.968 3.277,5.343 0,1.234 -0.476,2.209 -1.425,2.922 C 39.806,0.071 38.547,0.664 36.98,1.141 35.412,1.614 33.582,1.995 31.494,2.28 29.403,2.565 27.265,2.944 25.081,3.42 22.99,3.799 20.543,4.251 17.742,4.774 14.938,5.295 12.064,6.057 9.12,7.055 6.174,8.052 3.253,9.31 0.356,10.831 c -2.899,1.519 -5.486,3.467 -7.767,5.843 -2.279,2.373 -4.11,5.201 -5.486,8.478 -1.378,3.278 -2.066,7.148 -2.066,11.615 0,6.555 1.282,11.97 3.847,16.246 2.566,4.274 5.819,7.67 9.762,10.188 3.941,2.517 8.336,4.276 13.182,5.273 4.845,0.998 9.547,1.497 14.108,1.497 7.98,0 15.127,-1.165 21.447,-3.492 6.317,-2.33 12.373,-5.725 18.169,-10.189 0.76,-0.666 1.187,-1.475 1.283,-2.423 0.093,-0.951 -0.143,-1.805 -0.713,-2.565 L 55.007,35.484 c -0.57,-0.761 -1.332,-1.236 -2.28,-1.425 -0.951,-0.192 -1.806,0 -2.565,0.57 -4.846,3.039 -9.359,5.201 -13.538,6.484 -4.182,1.283 -8.03,1.924 -11.543,1.924 -1.047,0 -2.258,-0.024 -3.634,-0.071 -1.379,-0.049 -2.685,-0.238 -3.919,-0.57 -1.236,-0.334 -2.258,-0.88 -3.064,-1.639 -0.808,-0.762 -1.211,-1.806 -1.211,-3.135 0,-1.332 0.997,-2.518 2.993,-3.563 1.994,-1.046 4.275,-1.949 6.839,-2.707 2.566,-0.762 5.035,-1.354 7.411,-1.782 2.374,-0.427 3.894,-0.69 4.56,-0.784 3.42,-0.666 7.172,-1.639 11.258,-2.921 4.083,-1.283 7.909,-3.184 11.472,-5.7 3.562,-2.519 6.555,-5.796 8.978,-9.833 2.422,-4.039 3.633,-9.099 3.633,-15.177 0,-5.7 -0.997,-10.617 -2.992,-14.749 -1.995,-4.133 -4.774,-7.531 -8.337,-10.189 -3.563,-2.661 -7.838,-4.632 -12.825,-5.914 -4.988,-1.282 -10.523,-1.924 -16.602,-1.924 -4.941,0 -9.548,0.405 -13.823,1.211 -4.276,0.806 -8.265,1.924 -11.97,3.349 -3.706,1.425 -7.15,3.111 -10.332,5.059 -3.184,1.946 -6.106,4.013 -8.764,6.199 -0.762,0.57 -1.189,1.354 -1.283,2.351 -0.095,0.998 0.143,1.875 0.713,2.637 l 10.973,15.818 c 0.57,0.759 1.329,1.233 2.28,1.425 C -1.617,0.617 -0.762,0.475 0,0" /></g><g
           transform="translate(969.9424,402.0234)"
           id="g32"><path
             id="path34"
             style="fill:#ebb70c;fill-opacity:1;fill-rule:nonzero;stroke:none"
             d="m 0,0 h -13.46 c -0.957,0 -1.768,-0.332 -2.436,-0.993 -0.667,-0.661 -1.001,-1.463 -1.001,-2.407 v -16.713 c 0,-0.945 0.334,-1.748 1.001,-2.409 0.668,-0.662 1.479,-0.992 2.436,-0.992 H 1.862 c 3.627,0 6.278,1.157 7.948,3.47 1.669,2.314 2.506,4.934 2.506,7.862 0,1.51 -0.262,2.997 -0.788,4.462 -0.525,1.463 -1.311,2.761 -2.362,3.895 C 8.114,-2.692 6.828,-1.771 5.3,-1.062 3.772,-0.354 2.005,0 0,0 m -1.04,-50.02 h -12.429 c -0.953,0 -1.763,-0.334 -2.429,-0.997 -0.668,-0.666 -0.999,-1.474 -0.999,-2.422 v -21.234 c 0,-0.95 -0.332,-1.759 -0.994,-2.423 -0.661,-0.665 -1.465,-0.997 -2.409,-0.997 h -21.411 c -0.947,0 -1.75,0.332 -2.412,0.997 -0.661,0.664 -0.991,1.473 -0.991,2.423 v 97.474 c 0,0.948 0.332,1.757 0.998,2.423 0.663,0.663 1.471,0.997 2.423,0.997 H 1.913 c 5.32,0 10.332,-0.997 15.035,-2.992 4.702,-1.996 8.786,-4.752 12.255,-8.266 3.467,-3.516 6.222,-7.602 8.266,-12.255 2.042,-4.656 3.063,-9.644 3.063,-14.963 0,-5.322 -0.857,-10.285 -2.571,-14.892 -1.715,-4.609 -4.312,-8.599 -7.787,-11.97 -3.476,-3.374 -7.809,-6.034 -12.999,-7.981 C 11.982,-49.046 5.912,-50.02 -1.04,-50.02" /></g><g
           transform="translate(1113.6475,346.7314)"
           id="g36"><path
             id="path38"
             style="fill:#ebb70c;fill-opacity:1;fill-rule:nonzero;stroke:none"
             d="m 0,0 v -19.381 c 0,-0.95 -0.334,-1.759 -0.997,-2.423 -0.666,-0.665 -1.475,-0.997 -2.423,-0.997 h -71.11 c -1.046,0 -1.877,0.332 -2.493,0.997 -0.62,0.664 -0.927,1.473 -0.927,2.423 v 97.474 c 0,0.948 0.307,1.757 0.927,2.423 0.616,0.663 1.447,0.997 2.493,0.997 h 21.376 c 0.948,0 1.757,-0.334 2.423,-0.997 0.663,-0.666 0.997,-1.475 0.997,-2.423 V 6.84 c 0,-0.95 0.307,-1.759 0.926,-2.422 0.617,-0.666 1.448,-0.998 2.494,-0.998 H -3.42 c 0.948,0 1.757,-0.334 2.423,-0.997 C -0.334,1.757 0,0.948 0,0" /></g><g
           transform="translate(1133.3135,424.6816)"
           id="g40"><path
             id="path42"
             style="fill:#ebb70c;fill-opacity:1;fill-rule:nonzero;stroke:none"
             d="M 0,0 C 0,0.949 0.329,1.757 0.991,2.423 1.652,3.086 2.456,3.42 3.402,3.42 h 21.411 c 0.945,0 1.749,-0.334 2.41,-0.997 C 27.884,1.757 28.216,0.949 28.216,0 v -57.715 c 0,-3.705 0.595,-6.768 1.788,-9.191 1.193,-2.422 2.672,-4.324 4.435,-5.7 1.764,-1.378 3.65,-2.352 5.654,-2.921 2.004,-0.571 3.816,-0.856 5.437,-0.856 1.621,0 3.434,0.285 5.438,0.856 2.004,0.569 3.863,1.543 5.58,2.921 1.717,1.376 3.171,3.278 4.364,5.7 1.193,2.423 1.79,5.486 1.79,9.191 V 0 c 0,0.949 0.33,1.757 0.991,2.423 0.661,0.663 1.465,0.997 2.411,0.997 h 21.412 c 0.944,0 1.748,-0.334 2.409,-0.997 C 90.587,1.757 90.918,0.949 90.918,0 v -57.715 c 0,-6.746 -1.068,-12.874 -3.201,-18.383 -2.134,-5.51 -5.194,-10.214 -9.177,-14.108 -3.985,-3.897 -8.774,-6.911 -14.37,-9.049 -5.598,-2.138 -11.811,-3.206 -18.64,-3.206 -6.831,0 -13.044,1.068 -18.638,3.206 -5.599,2.138 -10.388,5.152 -14.371,9.049 -3.986,3.894 -7.068,8.598 -9.25,14.108 C 1.089,-70.589 0,-64.461 0,-57.715 Z" /></g><g
           transform="translate(1267.125,359.6992)"
           id="g44"><path
             id="path46"
             style="fill:#ebb70c;fill-opacity:1;fill-rule:nonzero;stroke:none"
             d="m 0,0 c 5.13,-3.326 10.211,-5.938 15.248,-7.838 5.034,-1.901 9.737,-2.85 14.107,-2.85 4.18,0 7.362,0.592 9.548,1.782 2.185,1.186 3.279,2.968 3.279,5.343 0,1.234 -0.477,2.209 -1.426,2.922 -0.95,0.712 -2.208,1.305 -3.777,1.782 C 35.412,1.614 33.582,1.995 31.493,2.28 29.402,2.565 27.265,2.944 25.081,3.42 22.99,3.799 20.543,4.251 17.741,4.774 14.938,5.295 12.063,6.057 9.12,7.055 6.174,8.052 3.253,9.31 0.356,10.831 c -2.899,1.519 -5.487,3.467 -7.766,5.843 -2.28,2.373 -4.111,5.201 -5.486,8.478 -1.379,3.278 -2.067,7.148 -2.067,11.615 0,6.555 1.282,11.97 3.848,16.246 2.564,4.274 5.817,7.67 9.761,10.188 3.941,2.517 8.336,4.276 13.182,5.273 4.845,0.998 9.548,1.497 14.108,1.497 7.98,0 15.127,-1.165 21.447,-3.492 6.317,-2.33 12.373,-5.725 18.169,-10.189 0.76,-0.666 1.187,-1.475 1.283,-2.423 0.094,-0.951 -0.143,-1.805 -0.713,-2.565 L 55.007,35.484 c -0.57,-0.761 -1.332,-1.236 -2.28,-1.425 -0.951,-0.192 -1.806,0 -2.565,0.57 -4.846,3.039 -9.359,5.201 -13.538,6.484 -4.182,1.283 -8.029,1.924 -11.543,1.924 -1.047,0 -2.258,-0.024 -3.634,-0.071 -1.379,-0.049 -2.685,-0.238 -3.919,-0.57 -1.236,-0.334 -2.257,-0.88 -3.064,-1.639 -0.808,-0.762 -1.211,-1.806 -1.211,-3.135 0,-1.332 0.997,-2.518 2.992,-3.563 1.995,-1.046 4.276,-1.949 6.841,-2.707 2.564,-0.762 5.034,-1.354 7.41,-1.782 2.373,-0.427 3.895,-0.69 4.56,-0.784 3.421,-0.666 7.173,-1.639 11.258,-2.921 4.083,-1.283 7.909,-3.184 11.472,-5.7 3.563,-2.519 6.555,-5.796 8.978,-9.833 2.423,-4.039 3.633,-9.099 3.633,-15.177 0,-5.7 -0.998,-10.617 -2.993,-14.749 -1.994,-4.133 -4.773,-7.531 -8.336,-10.189 -3.562,-2.661 -7.838,-4.632 -12.825,-5.914 -4.988,-1.282 -10.523,-1.924 -16.602,-1.924 -4.941,0 -9.548,0.405 -13.824,1.211 -4.274,0.806 -8.264,1.924 -11.969,3.349 -3.705,1.425 -7.151,3.111 -10.332,5.059 -3.184,1.946 -6.106,4.013 -8.764,6.199 -0.762,0.57 -1.189,1.354 -1.283,2.351 -0.096,0.998 0.142,1.875 0.713,2.637 l 10.972,15.818 c 0.571,0.759 1.33,1.233 2.281,1.425 C -1.617,0.617 -0.762,0.475 0,0" /></g><g
           transform="translate(935.7393,514.2568)"
           id="g48"><path
             id="path50"
             style="fill:#003895;fill-opacity:1;fill-rule:nonzero;stroke:none"
             d="m 0,0 c -3.996,-11.626 -1.59,-23.766 5.989,-27.127 3.838,-1.702 8.156,-0.935 12.088,1.636 4.298,2.809 7.827,8.017 9.808,13.904 l 0.105,0.312 c 0.603,1.789 1.252,3.547 1.94,5.28 9.987,25.087 28.475,42.706 46.916,46.3 2.027,0.405 4.05,0.628 6.061,0.671 16.571,2.698 33.259,12.349 47.777,27.18 14.253,14.577 26.413,34.148 34.321,57.089 4.585,13.3 1.039,26.305 -8.327,28.009 -7.703,1.403 -16.544,-5.864 -20.314,-17.058 C 126.961,108.271 107.052,88.489 87.326,85.031 87.287,85.03 87.249,85.028 87.206,85.015 85.827,84.787 84.44,84.618 83.058,84.547 66.188,82.063 49.153,72.345 34.371,57.235 20.089,42.637 7.907,23.01 0,0" /></g><g
           transform="translate(904.6299,514.2568)"
           id="g52"><path
             id="path54"
             style="fill:#003895;fill-opacity:1;fill-rule:nonzero;stroke:none"
             d="m 0,0 c 3.996,-11.626 1.59,-23.766 -5.989,-27.127 -3.838,-1.702 -8.156,-0.935 -12.088,1.636 -4.298,2.809 -7.827,8.017 -9.808,13.904 l -0.105,0.312 c -0.602,1.789 -1.252,3.547 -1.94,5.28 -9.987,25.087 -28.475,42.706 -46.916,46.3 -2.027,0.405 -4.05,0.628 -6.061,0.671 -16.571,2.698 -33.259,12.349 -47.777,27.18 -14.253,14.577 -26.412,34.148 -34.321,57.089 -4.585,13.3 -1.038,26.305 8.327,28.009 7.703,1.403 16.544,-5.864 20.313,-17.058 9.404,-27.925 29.314,-47.707 49.039,-51.165 0.039,-0.001 0.077,-0.003 0.12,-0.016 1.378,-0.228 2.766,-0.397 4.149,-0.468 16.869,-2.484 33.904,-12.202 48.685,-27.312 C -20.089,42.637 -7.907,23.01 0,0" /></g><g
           transform="translate(920.1895,631.6313)"
           id="g56"><path
             id="path58"
             style="fill:#003895;fill-opacity:1;fill-rule:nonzero;stroke:none"
             d="M 0,0 C 29.921,0.643 60.847,30.667 82.052,38.854 91.649,42.56 99.508,30.59 92.232,23.315 L 6.764,-62.154 c -3.706,-3.706 -9.714,-3.706 -13.42,0 l -85.586,85.586 c -7.278,7.277 0.587,19.25 10.185,15.537 C -58.53,29.867 -34.104,-0.733 0,0" /></g><g
           transform="translate(965.3037,712.8032)"
           id="g60"><path
             id="path62"
             style="fill:#003895;fill-opacity:1;fill-rule:nonzero;stroke:none"
             d="m 0,0 c 0,-24.919 -20.201,-45.119 -45.119,-45.119 -24.919,0 -45.119,20.2 -45.119,45.119 0,24.918 20.2,45.119 45.119,45.119 C -20.201,45.119 0,24.918 0,0" /></g></g></g></g></svg>